<?xml version="1.0" standalone="no"?>
<!DOCTYPE svg PUBLIC "-//W3C//DTD SVG 1.1//EN" "http://www.w3.org/Graphics/SVG/1.1/DTD/svg11.dtd" >
<svg xmlns="http://www.w3.org/2000/svg" xmlns:xlink="http://www.w3.org/1999/xlink" version="1.1">
<metadata>
Created by FontForge 20190801 at Sat Feb 19 00:33:30 2005
 By Jimmy Wärting
* !22! Soft 1993
</metadata>
<defs>
<font id="OptimalC" horiz-adv-x="596" >
  <font-face 
    font-family="OptimalC"
    font-weight="400"
    font-stretch="normal"
    units-per-em="1000"
    panose-1="0 0 5 0 0 0 0 0 0 0"
    ascent="715"
    descent="-285"
    x-height="504"
    cap-height="730"
    bbox="-35 -285 1092 910"
    underline-thickness="50"
    underline-position="-100"
    stemh="42"
    stemv="95"
    unicode-range="U+0020-2212"
  />
<missing-glyph horiz-adv-x="280" 
 />
    <glyph glyph-name=".notdef" horiz-adv-x="280" 
 />
    <glyph glyph-name="space" unicode=" " horiz-adv-x="298" 
 />
    <glyph glyph-name="space" unicode="&#xa0;" horiz-adv-x="298" 
 />
    <glyph glyph-name="exclam" unicode="!" horiz-adv-x="357" 
d="M190 185h-22l-41 454c-6 71 10 107 50 107c27 0 43 -10 48 -30s7 -46 4 -77zM179 117c17 1 32 -6 45 -20c12 -13 18 -28 18 -44c0 -17 -6 -32 -19 -45c-12 -13 -27 -20 -44 -20c-18 0 -33 7 -46 20s-20 28 -20 44c-1 17 7 32 21 45c13 13 28 20 45 20z" />
    <glyph glyph-name="quotedbl" unicode="&#x22;" horiz-adv-x="357" 
d="M132 480c5 -43 -7 -65 -36 -65c-16 0 -27 5 -32 15s-5 27 -5 50v180c0 57 8 86 36 86c17 0 28 -7 33 -20c5 -14 4 -36 4 -66v-180zM306 480c5 -43 -7 -65 -34 -65c-17 0 -28 5 -33 14s-4 26 -4 51v180c0 32 -1 54 4 67s16 19 32 19s26 -6 31 -19s4 -35 4 -67v-180z" />
    <glyph glyph-name="numbersign" unicode="#" 
d="M535 232h-117l-33 -232h-62l33 232h-143l-36 -232h-62l35 232h-115v59h125l22 143h-117v60h126l33 218h62l-33 -218h143l31 218h63l-32 -218h103v-60h-111l-23 -143h108v-59zM245 434l-23 -143h144l21 143h-142z" />
    <glyph glyph-name="dollar" unicode="$" 
d="M324 410c24 -9 46 -18 66 -25c20 -8 40 -18 59 -31s35 -31 48 -53c12 -22 18 -49 18 -80c0 -61 -18 -111 -53 -150c-36 -40 -82 -65 -138 -76v-119l-21 3h-12c-3 -1 -6 -2 -10 -3v112c-42 0 -80 4 -113 11c-34 7 -63 22 -87 45c13 47 19 78 19 92h12
c22 -35 46 -60 73 -78c26 -17 58 -27 96 -27v301c-36 13 -66 26 -90 38c-23 12 -44 31 -63 57c-19 25 -29 57 -29 97c0 55 17 99 50 132c34 34 78 55 132 64v82h10c4 -1 8 -2 11 -3c1 0 8 1 22 3v-79c70 0 124 -17 162 -50c-11 -23 -20 -51 -28 -84h-11
c-28 57 -69 87 -123 90v-269zM281 676c-30 -5 -54 -19 -72 -41c-18 -21 -27 -47 -27 -79c0 -37 10 -64 30 -81c19 -17 42 -32 69 -45v246zM324 38c33 7 59 24 78 50c19 25 29 56 29 93c0 38 -8 64 -24 79c-16 14 -44 32 -83 54v-276z" />
    <glyph glyph-name="percent" unicode="%" horiz-adv-x="954" 
d="M289 -35c-18 3 -34 3 -49 0l399 781c15 -3 32 -3 50 0zM218 365c-52 0 -93 17 -124 50s-48 75 -47 125c-1 51 17 94 53 129c35 34 77 51 127 51c49 0 88 -17 118 -50s45 -74 45 -122c0 -49 -16 -92 -50 -129c-33 -36 -75 -54 -122 -54zM805 10c-26 -15 -53 -23 -82 -23
c-51 -1 -92 17 -123 50c-32 33 -48 75 -48 126c0 33 8 63 24 91s38 50 65 65c28 16 58 24 91 24c49 0 89 -17 118 -51c30 -34 45 -75 45 -124c0 -33 -8 -64 -23 -91c-16 -28 -38 -50 -67 -67zM721 15c35 0 60 16 75 49s22 69 22 109c0 96 -29 144 -88 144
c-39 0 -65 -17 -80 -50c-14 -33 -21 -72 -21 -116c0 -36 7 -68 21 -95s38 -41 71 -41zM215 391c34 0 59 17 74 51c15 33 23 69 23 107c0 39 -7 73 -20 102c-13 28 -36 42 -69 42c-38 0 -64 -17 -79 -50s-22 -72 -22 -116c0 -35 8 -67 22 -94c15 -28 38 -42 71 -42z" />
    <glyph glyph-name="ampersand" unicode="&#x26;" horiz-adv-x="774" 
d="M707 -2c-29 3 -51 4 -66 4h-33c-8 -1 -17 -2 -27 -3c-37 51 -60 81 -67 90c-31 -33 -66 -59 -106 -77c-39 -18 -81 -27 -127 -27c-41 0 -76 7 -106 21c-30 15 -54 36 -71 62c-17 27 -26 59 -26 96c0 89 62 164 187 226l6 2c-25 39 -43 70 -54 93c-11 22 -17 47 -17 74
c0 49 15 88 46 117c30 29 70 44 119 44c42 0 76 -10 102 -30s39 -48 39 -83c0 -40 -13 -75 -40 -105s-62 -60 -106 -88c10 -13 29 -38 57 -74s53 -68 75 -94l57 -65c44 64 86 134 127 211c9 -15 23 -29 41 -43c-49 -74 -97 -140 -144 -197zM452 601c0 26 -8 47 -24 64
s-37 26 -61 26c-29 0 -52 -10 -69 -29c-16 -19 -24 -43 -24 -72c0 -17 3 -34 9 -51c6 -18 14 -35 24 -53c10 -17 22 -34 35 -50c35 25 62 50 81 75s29 55 29 90zM281 364c-78 -50 -117 -108 -118 -174c0 -44 16 -81 48 -112c31 -30 68 -45 111 -45c36 0 69 9 100 28
c30 19 53 36 68 52c-85 104 -152 189 -202 257c-1 -1 -2 -2 -4 -3z" />
    <glyph glyph-name="quotesingle" unicode="'" horiz-adv-x="298" 
d="M186 480c6 -43 -6 -65 -34 -65c-17 0 -28 5 -33 14s-4 26 -4 51v180c0 32 -1 54 4 67s16 19 32 19c28 0 35 -28 35 -86v-180z" />
    <glyph glyph-name="parenleft" unicode="(" horiz-adv-x="298" 
d="M258 782c-45 -62 -77 -130 -96 -204c-18 -74 -27 -155 -27 -242c0 -77 10 -152 28 -225c9 -35 20 -67 35 -95s35 -63 60 -104l-21 -23c-40 46 -73 93 -99 141c-25 47 -43 96 -54 147c-11 52 -17 110 -17 175c0 176 57 326 170 450z" />
    <glyph glyph-name="parenright" unicode=")" horiz-adv-x="298" 
d="M39 -88c28 43 48 78 62 106c13 27 25 58 34 93c18 73 28 148 28 224c0 89 -9 170 -27 243s-50 141 -97 204l22 20c114 -126 171 -276 171 -450c0 -95 -13 -178 -39 -249c-26 -70 -70 -141 -132 -213z" />
    <glyph glyph-name="asterisk" unicode="*" horiz-adv-x="476" 
d="M223 573l-15 165c22 -2 42 -2 61 1l-16 -168l134 99c10 -21 21 -39 32 -54l-151 -69l150 -67c-8 -11 -18 -29 -30 -54l-136 96l18 -166c-24 3 -45 3 -62 0l15 163l-131 -96c-12 22 -20 37 -24 43l-7 10l151 69l-156 70c15 17 26 35 32 54z" />
    <glyph glyph-name="plus" unicode="+" horiz-adv-x="650" 
d="M290 541h69v-235h236v-68h-236v-238h-69v238h-236v68h236v235z" />
    <glyph glyph-name="comma" unicode="," horiz-adv-x="298" 
d="M124 66c1 5 5 13 10 24c4 11 9 20 16 27c6 7 14 10 23 10c12 0 22 -3 31 -10s14 -17 14 -30c0 -12 -7 -31 -23 -57l-127 -210l-19 8z" />
    <glyph glyph-name="hyphenminus" horiz-adv-x="357" 
d="M44 270h269v-66h-269v66z" />
    <glyph glyph-name="period" unicode="." horiz-adv-x="298" 
d="M150 117c17 0 32 -6 45 -19s19 -28 19 -46c0 -17 -6 -32 -19 -45s-28 -19 -45 -19c-18 0 -33 7 -46 20s-20 28 -20 44c-1 17 7 32 21 45c13 13 28 20 45 20z" />
    <glyph glyph-name="slash" unicode="/" horiz-adv-x="298" 
d="M19 -110c-15 4 -33 4 -54 0l305 912c18 -3 36 -3 55 0z" />
    <glyph glyph-name="zero" unicode="0" 
d="M306 718c162 0 243 -119 243 -358c0 -76 -10 -142 -31 -198s-50 -99 -87 -129s-81 -45 -131 -45c-169 0 -253 116 -253 348c0 107 19 198 57 271c38 74 105 111 202 111zM461 360c0 95 -13 174 -39 235c-26 62 -65 91 -118 89c-65 -3 -110 -30 -133 -81
c-24 -52 -36 -134 -36 -245c0 -93 10 -172 30 -238s66 -99 137 -99c56 0 96 29 121 87c25 59 38 143 38 252z" />
    <glyph glyph-name="one" unicode="1" 
d="M259 644l-7 4l-118 -64c-7 17 -18 30 -33 39c57 25 103 46 138 63s64 33 88 48l19 -6v-731h-15c-6 1 -11 2 -14 3h-15h-23c-6 -1 -13 -2 -20 -3v647z" />
    <glyph glyph-name="two" unicode="2" 
d="M95 616c42 68 104 102 184 102c65 0 117 -16 156 -47s59 -78 59 -141c0 -73 -37 -148 -110 -226l-128 -136l-65 -68l-19 -20l6 -12c115 0 225 5 329 14v-20c-1 -8 -2 -15 -4 -22c1 -7 2 -14 3 -22s1 -14 1 -18h-460l-1 16c11 10 24 22 39 37c14 15 31 32 50 51l65 67
c54 56 91 97 113 122c21 25 40 58 57 98s26 85 26 136c0 101 -42 152 -126 154c-33 0 -61 -12 -84 -33c-24 -21 -40 -48 -47 -81l-7 -3z" />
    <glyph glyph-name="three" unicode="3" 
d="M104 653c13 14 33 28 61 43s60 22 97 22c54 0 101 -13 142 -40c41 -26 62 -64 62 -113c0 -42 -13 -80 -38 -113c-26 -33 -62 -58 -107 -75c51 -3 94 -19 127 -46c34 -28 51 -67 51 -117c0 -69 -26 -124 -79 -165c-52 -41 -117 -61 -194 -61c-59 0 -113 11 -162 34
c3 7 6 17 9 30c2 13 4 25 5 36l7 4c41 -47 89 -71 144 -71c54 0 96 18 127 54c30 36 45 81 45 137c0 45 -13 80 -39 105s-62 38 -109 38c-6 0 -13 0 -21 -1s-18 -2 -31 -4c1 3 2 6 3 10c0 3 0 5 1 7v6v12l-3 9c19 -1 32 -2 40 -2c43 0 74 15 96 46c21 30 33 67 33 112
c0 39 -10 71 -29 96c-20 25 -48 38 -85 38c-26 0 -50 -8 -73 -24c-22 -16 -38 -36 -48 -61l-5 -4z" />
    <glyph glyph-name="four" unicode="4" 
d="M22 200v14c26 38 56 82 91 130c35 50 79 115 135 194c55 78 98 136 125 174h16c6 -1 12 -2 18 -4c5 1 11 2 17 3s12 1 17 1v-451l98 4c-3 -23 -3 -46 0 -69l-98 4v-204c-6 1 -12 2 -17 3c-5 0 -9 0 -12 1h-14h-23c-6 -1 -13 -2 -20 -3v203h-333zM357 605l-5 4
c-24 -31 -44 -57 -59 -79s-36 -52 -61 -89c-26 -37 -46 -66 -59 -86c-14 -20 -34 -50 -61 -89l4 -5h241v344z" />
    <glyph glyph-name="five" unicode="5" 
d="M133 715l6 3h345l4 -9c-7 -31 -9 -57 -7 -78c-55 11 -103 17 -144 17h-159v-240c36 17 74 26 114 26c60 0 110 -19 150 -57s60 -87 60 -146c0 -66 -25 -123 -75 -171c-49 -48 -113 -72 -192 -72c-70 0 -127 14 -171 42l16 71l7 1c15 -25 37 -45 65 -58
c29 -14 59 -21 90 -21c35 0 64 9 86 27c24 18 43 42 56 73c12 31 18 64 18 99c0 111 -51 167 -152 167c-43 0 -79 -12 -108 -35l-9 8v353z" />
    <glyph glyph-name="six" unicode="6" 
d="M439 676c-15 5 -32 8 -52 8c-77 0 -134 -37 -172 -111c-37 -74 -56 -155 -57 -242c43 63 101 94 175 94c65 0 116 -18 152 -53s54 -84 54 -146c0 -69 -22 -126 -65 -171s-99 -67 -168 -67c-85 0 -147 29 -186 86c-38 57 -57 130 -57 218c0 64 8 122 23 174
c16 53 38 98 65 135c28 37 61 66 101 87c39 20 81 30 126 30c21 0 37 -1 48 -3zM158 197c0 -45 14 -86 41 -122s63 -54 108 -54s79 19 102 58c23 38 35 85 35 139c0 33 -6 62 -16 87c-11 25 -27 45 -47 59c-21 14 -45 22 -72 21c-101 -4 -151 -68 -151 -188z" />
    <glyph glyph-name="seven" unicode="7" 
d="M543 718v-32c-35 -59 -76 -129 -123 -210s-93 -163 -139 -246c-45 -82 -87 -160 -123 -234c-6 1 -12 2 -17 3s-12 1 -19 1h-20c-5 -1 -11 -2 -17 -3l1 13c60 99 107 176 141 231s73 120 116 193c44 74 82 140 114 199l-5 4c-95 -1 -217 -7 -367 -17c1 6 2 12 3 19
c0 6 0 11 1 15v15s0 13 -1 16v16c0 6 -1 12 -2 17h457z" />
    <glyph glyph-name="eight" unicode="8" 
d="M384 399c20 -5 40 -13 61 -22c21 -10 42 -28 62 -53c21 -26 31 -60 31 -101c1 -70 -23 -127 -68 -170s-103 -65 -174 -65c-70 0 -127 18 -170 54c-44 36 -66 89 -66 158c0 31 7 60 20 86c14 27 33 50 58 69c24 19 50 32 78 39v8c-27 8 -53 23 -80 44
c-26 22 -39 56 -38 101c-1 53 20 95 61 126c41 30 89 45 143 45c60 0 108 -14 143 -41c39 -30 59 -70 60 -118c0 -35 -12 -67 -35 -96s-52 -48 -86 -57v-7zM213 636c-18 -26 -27 -59 -27 -101c0 -33 13 -63 37 -91c18 -20 44 -31 79 -31c39 0 68 18 90 50c14 21 23 51 23 91
c0 37 -10 68 -30 93s-48 37 -84 37c-37 0 -66 -16 -88 -48zM154 202c-1 -52 12 -95 37 -130c25 -34 62 -51 111 -51c47 0 82 19 105 57c24 38 36 81 36 130c0 50 -12 91 -35 123s-59 48 -107 48c-45 0 -81 -18 -108 -54c-26 -36 -39 -77 -39 -123z" />
    <glyph glyph-name="nine" unicode="9" 
d="M115 61c28 -27 63 -40 104 -40c33 0 65 15 95 42c32 29 56 67 74 115c23 62 36 129 36 202c-16 -29 -40 -53 -71 -71s-65 -27 -102 -27c-58 0 -106 19 -145 57c-39 37 -58 87 -58 151c0 69 22 123 67 165c44 41 102 63 173 63c79 0 138 -29 176 -88
c38 -58 57 -131 57 -218c0 -79 -14 -151 -42 -217s-66 -117 -113 -153s-99 -54 -155 -54c-43 0 -72 5 -86 14c-2 17 -9 35 -22 54zM284 684c-33 0 -60 -10 -81 -27c-22 -19 -38 -42 -47 -70c-10 -28 -15 -59 -15 -91c0 -47 11 -87 33 -120s56 -49 101 -51c44 0 79 19 104 54
c27 35 40 75 41 120c0 35 -3 67 -14 96c-11 28 -27 50 -48 65c-21 16 -46 24 -74 24z" />
    <glyph glyph-name="colon" unicode=":" horiz-adv-x="298" 
d="M150 117c17 0 32 -6 45 -19s19 -28 19 -46c0 -17 -6 -32 -19 -45s-28 -19 -45 -19c-18 0 -33 7 -46 20s-20 28 -20 44c-1 17 7 32 21 45c13 13 28 20 45 20zM150 504c17 0 32 -6 45 -19s19 -28 19 -45c0 -18 -6 -33 -19 -46s-28 -19 -45 -19c-18 0 -33 7 -46 20
s-20 28 -19 45c-1 18 6 33 20 46c13 12 28 18 45 18z" />
    <glyph glyph-name="semicolon" unicode=";" horiz-adv-x="298" 
d="M124 66c1 5 5 13 10 24c4 11 9 20 16 27c6 7 14 10 23 10c12 0 22 -3 31 -10s14 -17 14 -30c0 -12 -7 -31 -23 -57l-127 -210l-19 8zM168 504c19 0 34 -6 46 -19s18 -28 18 -45c0 -18 -6 -33 -18 -46s-27 -19 -46 -19c-18 0 -33 7 -46 20s-20 28 -19 45c-1 18 6 33 20 46
c13 12 28 18 45 18z" />
    <glyph glyph-name="less" unicode="&#x3c;" horiz-adv-x="650" 
d="M599 -7l-547 250v58l547 251v-66l-460 -214l460 -213v-66z" />
    <glyph glyph-name="equal" unicode="=" horiz-adv-x="650" 
d="M595 342h-541v68h541v-68zM595 134h-541v69h541v-69z" />
    <glyph glyph-name="greater" unicode="&#x3e;" horiz-adv-x="650" 
d="M510 272l-459 214v66l547 -251v-58l-547 -250v66z" />
    <glyph glyph-name="question" unicode="?" horiz-adv-x="417" 
d="M218 386c-18 -19 -32 -36 -41 -51c-9 -14 -14 -31 -14 -50c0 -24 9 -41 28 -53c18 -11 39 -13 63 -2l7 -5l-12 -29c-5 -3 -15 -5 -31 -5c-21 0 -41 5 -60 15s-34 24 -45 42c-11 19 -17 42 -17 69c0 41 20 83 61 126l65 68c38 40 58 76 59 108c0 27 -10 48 -29 65
c-19 16 -43 24 -71 24c-17 0 -34 -5 -51 -14s-30 -21 -40 -35l-6 54c37 22 72 33 105 33c49 0 88 -13 117 -37c29 -25 44 -59 44 -101c0 -51 -22 -100 -65 -148zM198 118c18 0 33 -6 45 -19s18 -28 18 -46c0 -17 -6 -32 -18 -45s-27 -20 -44 -20c-18 -1 -34 7 -47 20
s-20 28 -21 45c0 17 7 32 20 45s29 20 47 20z" />
    <glyph glyph-name="at" unicode="@" horiz-adv-x="858" 
d="M544 538h95l-78 -282c-4 -13 -5 -21 -5 -24c0 -9 3 -17 9 -24s13 -11 22 -12c20 0 43 10 68 29s47 47 65 83c18 37 27 81 27 132c0 32 -10 68 -32 107c-20 40 -51 75 -95 104c-44 28 -99 42 -164 42c-49 0 -94 -8 -135 -24c-42 -16 -79 -39 -110 -69s-55 -65 -72 -104
s-26 -83 -26 -131c0 -63 15 -120 46 -170s73 -89 127 -116c54 -28 113 -42 178 -42c111 0 201 50 270 151l65 -1c-32 -61 -79 -110 -141 -147c-63 -37 -130 -56 -201 -56c-72 0 -139 15 -202 48c-62 31 -111 75 -148 132c-36 57 -54 121 -54 194c0 71 17 136 51 195
s82 106 143 141s128 52 202 52c68 0 129 -14 183 -41c54 -28 96 -66 127 -113c30 -47 45 -97 45 -149c0 -53 -12 -102 -37 -147s-56 -81 -93 -108c-38 -27 -73 -40 -106 -40c-29 0 -51 8 -65 23c-15 16 -24 34 -27 54c-17 -16 -32 -29 -44 -40c-12 -10 -26 -17 -42 -23
c-15 -5 -31 -9 -48 -9c-39 0 -72 16 -101 46c-28 28 -42 64 -42 109c0 37 11 75 32 113s50 69 86 92c36 24 74 36 112 36c49 0 83 -20 102 -60zM359 197c23 0 46 15 68 44s41 64 56 103c15 40 22 72 22 97c0 18 -4 33 -13 46s-23 19 -42 19c-43 0 -80 -27 -111 -80
c-31 -54 -46 -104 -46 -150c0 -53 22 -79 66 -79z" />
    <glyph glyph-name="A" unicode="A" horiz-adv-x="716" 
d="M699 -3c-8 0 -15 1 -22 2c-7 0 -13 0 -17 1h-18h-30c-8 -1 -17 -2 -26 -3c-43 120 -81 216 -113 289l-272 -1c-53 -131 -88 -227 -106 -289c-7 1 -13 2 -18 3c-6 1 -14 1 -22 1h-21c-5 -1 -11 -2 -17 -3l335 749h24zM337 605l-117 -274h236z" />
    <glyph glyph-name="B" unicode="B" horiz-adv-x="655" 
d="M102 0v730h211c81 0 141 -11 180 -33s58 -60 58 -114c0 -48 -16 -89 -48 -122s-72 -56 -121 -68c51 -3 97 -18 136 -45c40 -27 60 -68 60 -125c0 -75 -32 -135 -95 -180c-29 -20 -60 -32 -93 -37c-33 -4 -78 -6 -135 -6h-153zM197 407c50 0 86 1 109 3c22 2 45 8 69 20
c27 13 47 31 62 54c14 23 21 48 21 75c0 49 -15 83 -45 102c-31 20 -77 30 -138 30h-78v-284zM197 39l102 -1c53 -1 96 16 129 48c33 31 50 71 50 120c0 59 -19 102 -57 126c-39 25 -94 36 -165 36h-59v-329z" />
    <glyph glyph-name="C" unicode="C" horiz-adv-x="716" 
d="M655 45c-61 -41 -140 -61 -237 -63c-78 0 -145 17 -201 48c-57 31 -101 76 -132 135c-30 58 -45 126 -45 203c0 78 18 146 52 204c36 57 86 100 147 129c61 30 130 45 205 45c79 0 156 -16 230 -49c-9 -25 -16 -52 -21 -82l-8 -1c-13 18 -38 38 -75 59
c-37 22 -80 33 -128 33c-95 0 -168 -33 -219 -98c-51 -66 -77 -147 -77 -244c0 -68 12 -127 36 -179c24 -51 58 -90 101 -117c43 -28 93 -42 150 -42c51 0 97 10 137 30s70 39 90 57z" />
    <glyph glyph-name="D" unicode="D" horiz-adv-x="835" 
d="M107 730h244c89 0 153 -1 193 -6c39 -4 77 -25 116 -58c76 -63 115 -152 115 -268c0 -133 -45 -238 -135 -316c-40 -34 -85 -57 -137 -67c-51 -10 -113 -15 -186 -15h-210v730zM202 48c38 -2 76 -4 114 -7c37 -1 73 2 108 8c35 4 66 12 92 25c103 52 154 154 154 307
c0 77 -11 138 -33 182c-22 45 -57 78 -106 99c-48 20 -113 30 -194 30c-15 0 -34 0 -56 -1s-48 -2 -79 -3v-640z" />
    <glyph glyph-name="E" unicode="E" horiz-adv-x="536" 
d="M190 410h166c11 0 22 0 35 2c12 0 23 1 34 2c10 1 19 2 27 2c-2 -18 -3 -27 -4 -28c1 -4 2 -9 3 -14c1 -6 1 -11 1 -15l-48 3s-32 2 -48 2h-166v-314c22 -1 87 1 194 4c31 1 64 4 99 11v-16c-1 -6 -2 -12 -4 -17c1 -5 2 -11 3 -17s1 -11 1 -15h-387v730h380v-14
c-1 -6 -2 -12 -3 -17c0 -2 1 -13 3 -33c-27 5 -59 10 -96 11l-108 2h-82v-269z" />
    <glyph glyph-name="F" unicode="F" horiz-adv-x="536" 
d="M96 730h380v-14c-1 -6 -2 -12 -3 -17c0 -2 1 -13 3 -33c-27 5 -59 10 -96 11l-108 2h-82v-269h166c11 0 22 0 35 2c12 0 23 1 34 2c10 1 19 2 27 2c-2 -18 -3 -27 -4 -28c1 -4 2 -9 3 -14c1 -6 1 -11 1 -15l-48 3s-32 2 -48 2h-166v-368c-6 1 -12 2 -19 3
c-6 0 -11 0 -14 1h-15h-25c-6 -1 -13 -2 -21 -3v733z" />
    <glyph glyph-name="G" unicode="G" horiz-adv-x="835" 
d="M724 602c-20 24 -43 43 -68 59c-26 15 -54 26 -83 33c-29 8 -59 12 -90 12c-61 0 -115 -13 -162 -39s-83 -65 -109 -116s-39 -112 -39 -183s12 -132 36 -183s60 -91 108 -119c49 -28 108 -42 176 -42c65 0 121 12 168 37l1 276h21c9 -1 18 -2 25 -4c8 1 17 2 27 3
c9 1 16 1 21 1v-304c-96 -33 -193 -49 -291 -49c-130 0 -229 35 -295 104c-67 69 -101 161 -101 276c0 80 18 149 54 207s85 102 148 131c62 29 134 44 216 44c47 0 89 -4 127 -11c37 -7 67 -15 90 -24s42 -18 56 -27c-8 -25 -16 -52 -24 -82h-12z" />
    <glyph glyph-name="H" unicode="H" horiz-adv-x="835" 
d="M642 730h21c10 -1 19 -2 26 -4c8 1 17 2 27 3c9 1 16 1 21 1v-734c-8 1 -15 2 -22 3s-15 1 -25 1h-27c-6 -1 -13 -2 -21 -3v369c-125 3 -200 5 -225 5c-22 0 -97 -2 -226 -5v-370c-6 1 -12 2 -19 3c-6 0 -11 0 -14 1h-14h-26c-6 -1 -13 -2 -21 -3v733h21
c9 -1 18 -2 26 -4c7 1 15 2 24 3s17 1 23 1v-308c129 -3 204 -5 226 -5c25 0 100 2 225 5v308z" />
    <glyph glyph-name="I" unicode="I" horiz-adv-x="298" 
d="M102 730h21c9 -1 18 -2 25 -4c8 1 17 2 26 3s17 1 23 1v-734c-6 1 -12 2 -19 3c-6 0 -11 0 -14 1h-14h-27c-6 -1 -13 -2 -21 -3v733z" />
    <glyph glyph-name="J" unicode="J" horiz-adv-x="298" 
d="M213 94c0 -46 -7 -87 -25 -123c-17 -36 -42 -65 -75 -86s-73 -32 -119 -33l-9 29c54 2 90 21 107 56s26 83 26 143v650h21c9 -1 18 -2 25 -4c8 1 17 2 26 3s17 1 23 1v-636z" />
    <glyph glyph-name="K" unicode="K" horiz-adv-x="655" 
d="M381 497l-93 -93c29 -33 75 -84 139 -154c63 -70 104 -116 123 -140l87 -108v-6c-10 1 -19 2 -27 3s-19 1 -32 1h-33c-8 -1 -17 -2 -26 -3c-33 46 -58 79 -75 98l-233 272c-4 3 -8 5 -13 6c-4 1 -6 0 -6 -2v-375l-18 3c-6 0 -11 0 -14 1h-14h-27c-6 -1 -13 -2 -21 -3v733
h21c9 -1 18 -2 26 -4c7 1 15 2 24 3s17 1 23 1l1 -331c1 -8 10 -6 26 6c17 13 35 31 56 53l263 272h21c9 -1 17 -2 24 -4l21 3c8 1 15 1 20 1z" />
    <glyph glyph-name="L" unicode="L" horiz-adv-x="536" 
d="M190 50c22 0 87 1 194 3c23 1 57 5 102 12v-16c-1 -6 -2 -12 -4 -17c1 -5 2 -11 3 -17s1 -11 1 -15h-390v730h22c9 -1 17 -2 23 -4c8 1 17 2 26 3s17 1 23 1v-680z" />
    <glyph glyph-name="M" unicode="M" horiz-adv-x="954" 
d="M813 730c33 -315 62 -559 88 -734l-21 3c-7 0 -12 0 -15 1h-15h-27c-7 -1 -15 -2 -25 -2c-25 289 -43 473 -54 552c-59 -105 -114 -205 -163 -298c-50 -94 -88 -175 -117 -243h-12l-60 121c-27 55 -60 122 -101 199c-40 77 -79 151 -116 221c-13 -115 -22 -197 -28 -247
c-5 -49 -11 -102 -16 -159s-8 -106 -8 -148c-6 1 -12 2 -17 3s-12 1 -19 1h-14s-7 -1 -11 -2c-5 -1 -10 -1 -15 -1c6 36 14 89 24 159c11 71 22 145 33 221s21 148 30 215s14 113 16 138l27 1c61 -120 114 -222 159 -305c44 -83 93 -169 146 -258c61 112 119 218 173 317
s99 181 135 245h23z" />
    <glyph glyph-name="N" unicode="N" horiz-adv-x="835" 
d="M729 -3h-32c-15 19 -33 41 -56 66l-463 512h-11l1 -579c-5 1 -10 2 -14 3s-10 1 -17 1h-16c-4 -1 -9 -2 -14 -3v733h42l509 -552h11v552c18 -2 28 -3 31 -4l15 3c6 1 11 1 14 1v-733z" />
    <glyph glyph-name="O" unicode="O" horiz-adv-x="893" 
d="M45 364c-1 76 17 143 52 201s83 103 144 134c60 31 127 47 201 47c70 0 136 -13 198 -41c62 -26 113 -66 151 -121c39 -56 57 -124 57 -204c0 -119 -38 -215 -114 -288c-76 -72 -174 -108 -294 -110c-77 0 -146 17 -206 49c-60 31 -107 75 -139 132
c-33 58 -50 125 -50 201zM674 607c-26 33 -58 59 -97 77s-81 27 -125 27c-61 0 -115 -14 -162 -44c-46 -29 -81 -73 -105 -128s-36 -118 -36 -187c0 -105 28 -187 84 -246c56 -58 126 -87 209 -87c69 0 127 20 172 60c47 40 82 88 104 144c20 56 26 105 23 148
c-2 50 -4 93 -11 130c-9 37 -29 72 -56 106z" />
    <glyph glyph-name="P" unicode="P" 
d="M179 -3c-8 0 -15 1 -22 2s-15 1 -25 1h-26c-6 -1 -13 -2 -21 -3v733h191c71 0 126 -6 165 -17c40 -11 69 -29 86 -54s27 -60 26 -106c1 -63 -18 -111 -55 -145c-37 -33 -95 -57 -174 -72c-18 -3 -33 -5 -45 -7c-12 0 -31 2 -55 3c-25 1 -40 2 -45 2v-337zM179 374
c30 -3 65 -3 106 0c53 6 95 25 125 57c30 31 45 70 45 116c0 39 -10 71 -31 96s-51 40 -90 44c-47 4 -99 4 -155 1v-314z" />
    <glyph glyph-name="Q" unicode="Q" horiz-adv-x="893" 
d="M848 382c0 -101 -26 -183 -79 -244c-53 -62 -120 -107 -203 -135c13 -9 42 -31 87 -65s96 -73 153 -116c-39 -17 -67 -32 -83 -44c-7 9 -40 40 -99 93c-59 52 -107 91 -143 116h-11l-15 -3c-80 0 -151 15 -213 44c-62 30 -110 74 -145 131s-52 126 -52 207
c0 73 17 138 51 195c35 58 83 103 144 136s128 49 202 49c77 0 146 -14 207 -42s109 -70 145 -126c35 -55 54 -120 54 -196zM675 606c-26 32 -57 58 -96 77c-40 19 -82 28 -126 28c-67 0 -123 -16 -170 -47c-46 -33 -79 -78 -100 -133c-22 -55 -33 -115 -33 -180
c0 -108 28 -190 84 -247s126 -85 209 -85c75 0 135 21 181 64c45 42 76 90 93 144s27 102 26 143c1 50 -4 94 -13 132c-9 37 -28 71 -55 104z" />
    <glyph glyph-name="R" unicode="R" horiz-adv-x="655" 
d="M97 730h227c158 0 237 -54 237 -161c0 -59 -21 -106 -62 -139c-42 -34 -94 -55 -157 -66l222 -280l51 -61l20 -27l-24 3c-8 0 -14 0 -18 1h-20h-21s-11 -1 -19 -2s-15 -1 -22 -1c-29 41 -51 72 -67 93l-126 164l-86 101h-41v-359c-6 1 -12 2 -19 3c-6 0 -11 0 -14 1h-14
h-26c-6 -1 -13 -2 -21 -3v733zM191 396c46 -6 92 -5 139 4c40 7 72 26 98 54c25 27 39 60 39 100c0 77 -39 122 -118 135c-28 4 -81 5 -158 2v-295z" />
    <glyph glyph-name="S" unicode="S" horiz-adv-x="536" 
d="M80 141c14 -23 29 -43 45 -59c16 -17 35 -30 56 -39s45 -13 72 -13c43 0 79 15 107 46c28 30 42 67 42 110c0 44 -14 76 -42 97s-70 43 -125 65s-97 46 -126 73c-28 26 -43 66 -43 119c-1 67 23 118 68 153s102 53 170 53c64 0 115 -17 155 -51c-5 -11 -15 -40 -30 -88
h-11c-11 31 -28 54 -51 70s-50 24 -82 24c-37 0 -69 -11 -96 -35c-26 -23 -39 -54 -39 -91c0 -43 14 -75 41 -96s69 -42 125 -63c56 -22 99 -46 128 -71c29 -26 44 -65 44 -116c0 -49 -12 -93 -35 -130c-24 -38 -56 -67 -96 -86s-85 -29 -134 -29c-28 0 -60 6 -95 17
c-36 12 -63 27 -80 45c9 27 16 59 21 95h11z" />
    <glyph glyph-name="T" unicode="T" 
d="M351 -5c-8 0 -15 1 -21 2c-7 1 -16 1 -26 1h-27c-6 -1 -13 -2 -21 -3v683c-74 0 -152 -4 -235 -12c2 20 3 31 3 32v18c-1 4 -2 9 -3 14h554v-14c-1 -6 -2 -12 -3 -17c0 -2 1 -13 3 -33c-72 8 -147 12 -224 12v-683z" />
    <glyph glyph-name="U" unicode="U" horiz-adv-x="835" 
d="M196 320c-1 -99 17 -172 53 -218c35 -46 96 -69 183 -69c82 0 141 26 178 79c36 52 54 125 54 219v399c18 -2 28 -3 30 -4c5 1 11 2 16 3c6 1 11 1 14 1v-427c0 -69 -13 -127 -38 -175c-26 -48 -63 -84 -111 -108c-47 -24 -102 -36 -164 -36c-53 0 -98 6 -135 18
s-70 31 -98 56c-30 28 -50 62 -60 101s-17 86 -17 142v429h21c9 -1 18 -2 25 -4c8 1 17 2 26 3s17 1 23 1v-410z" />
    <glyph glyph-name="V" unicode="V" horiz-adv-x="716" 
d="M555 534l65 179l7 17h18c8 -1 15 -2 22 -4c6 1 13 2 20 3c8 1 14 1 19 2c-12 -23 -42 -90 -90 -201c-49 -111 -95 -218 -137 -321c-42 -102 -70 -173 -82 -212h-10c-3 1 -5 2 -7 3h-6c-1 0 -8 -1 -22 -3c-26 55 -55 118 -87 190s-62 141 -91 207s-57 134 -87 204
c-29 69 -50 113 -61 132c30 -2 47 -3 52 -3c9 0 18 1 28 2s18 1 23 1c7 -16 14 -33 20 -50c7 -18 13 -36 20 -54l72 -187l132 -325h9c11 22 23 44 33 65c11 22 20 43 28 64z" />
    <glyph glyph-name="W" unicode="W" horiz-adv-x="1073" 
d="M13 730h22c10 -1 20 -2 29 -4c8 1 17 2 26 3c10 1 18 1 23 1c4 -12 9 -29 15 -51s11 -43 17 -62l63 -218l90 -283h9c17 47 53 151 108 312c55 160 89 261 101 302c18 -2 28 -3 31 -3c0 0 10 1 30 4c6 -23 17 -59 34 -108l78 -234c36 -107 66 -198 91 -273h11
c15 39 30 79 43 122l125 404l26 88c22 -2 34 -3 36 -4c6 1 13 2 20 3s13 1 18 2c-20 -47 -38 -93 -53 -138l-204 -597l-18 3c-5 1 -11 1 -18 1h-19c-5 -1 -11 -2 -17 -4c-4 15 -14 47 -28 96c-16 49 -34 101 -52 156c-18 56 -33 102 -45 139s-35 108 -69 212h-9l-206 -603
c-5 1 -10 2 -14 3c-5 0 -9 0 -11 1h-11h-21c-5 -1 -10 -2 -16 -3c-9 32 -17 60 -25 84c-7 23 -13 42 -18 57z" />
    <glyph glyph-name="X" unicode="X" horiz-adv-x="655" 
d="M287 366c-20 34 -40 67 -59 101c-20 33 -41 67 -64 102l-107 161h27c12 -1 23 -2 32 -4c9 1 19 2 30 3s20 1 27 1c15 -23 34 -54 56 -92l113 -195c10 16 24 37 41 62c17 26 34 51 50 76s33 52 50 80c17 29 30 52 39 69h18c8 -1 15 -2 21 -4c7 1 14 2 22 3s14 1 20 1
c-7 -6 -13 -13 -19 -21l-165 -228l-52 -80l249 -404h-22c-8 1 -14 2 -18 3h-20h-31c-8 -1 -17 -2 -26 -4c-57 111 -119 220 -186 327c-66 -97 -131 -206 -195 -326h-15c-5 1 -9 2 -12 3h-13h-21c-6 -1 -12 -2 -19 -3c23 33 47 68 72 104s44 64 58 85z" />
    <glyph glyph-name="Y" unicode="Y" horiz-adv-x="655" 
d="M379 -3c-8 0 -15 1 -22 2s-15 1 -24 1h-27c-7 -1 -14 -2 -22 -3v308l-263 425h28c12 -1 23 -2 34 -4c9 1 19 2 30 3s20 1 27 2c14 -27 34 -65 61 -113c26 -48 55 -99 86 -152s50 -85 57 -96c18 21 86 141 205 360c24 -2 38 -3 42 -4c7 1 14 2 22 3s15 1 20 1
c-14 -18 -43 -52 -77 -107l-116 -190c-23 -38 -46 -73 -61 -107v-329z" />
    <glyph glyph-name="Z" unicode="Z" horiz-adv-x="655" 
d="M331 459c83 116 131 192 152 223v2l-123 -2c-45 -1 -90 -1 -135 -4c-44 -3 -98 -7 -162 -12c2 20 3 31 3 32v18c-1 4 -2 9 -3 14h563v-20c-163 -213 -319 -433 -468 -661v-2h164c94 0 194 8 300 18v-16c-1 -6 -2 -12 -4 -17c1 -5 2 -11 3 -17s1 -11 1 -15h-604v23z" />
    <glyph glyph-name="bracketleft" unicode="[" horiz-adv-x="357" 
d="M145 802h169v-31h-105v-865h105v-30h-169v926z" />
    <glyph glyph-name="backslash" unicode="\" horiz-adv-x="536" 
d="M501 0c-24 3 -46 3 -67 0l-399 802c23 -3 45 -3 67 0z" />
    <glyph glyph-name="bracketright" unicode="]" horiz-adv-x="357" 
d="M213 -124h-169v30h104v865h-104v31h169v-926z" />
    <glyph glyph-name="asciicircum" unicode="^" horiz-adv-x="650" 
d="M54 295l235 435h71l234 -435h-75l-194 349l-195 -349h-76z" />
    <glyph glyph-name="underscore" unicode="_" horiz-adv-x="536" 
d="M0 -171v40h536v-40h-536z" />
    <glyph glyph-name="grave" unicode="`" horiz-adv-x="357" 
d="M223 571l-170 104c-15 12 -24 20 -26 25c-4 9 -4 18 -1 27c4 9 10 16 18 21c8 4 17 5 26 4c7 -3 12 -6 15 -9c9 -5 21 -19 40 -38l135 -134h-37z" />
    <glyph glyph-name="a" unicode="a" horiz-adv-x="536" 
d="M443 87c0 -17 1 -30 3 -37c1 -8 6 -13 15 -16s23 -2 42 3v-22c-18 -7 -29 -11 -32 -12c-67 -11 -104 10 -111 63l-9 -11c-47 -45 -100 -67 -159 -67c-39 0 -73 12 -101 36s-42 56 -42 95c0 37 9 66 26 87c18 21 41 36 70 45s63 16 102 22c47 7 78 15 93 23s22 25 22 50
c0 39 -11 70 -33 92s-53 33 -94 33c-33 0 -61 -8 -85 -25c-23 -17 -37 -33 -42 -49h-11l1 60c57 39 114 59 171 59c116 0 174 -60 174 -180v-249zM357 264l-38 -9c-62 -15 -108 -24 -137 -37c-30 -14 -45 -42 -45 -84c0 -33 9 -58 27 -75c19 -17 45 -26 77 -26
c15 0 30 4 44 11c15 7 30 17 44 30l19 19c6 6 9 11 9 14v157z" />
    <glyph glyph-name="b" unicode="b" 
d="M70 0l-1 802h21c8 -1 16 -2 23 -4c7 1 14 2 22 3s15 1 20 1v-397c23 35 50 61 81 81c30 19 65 30 105 30c37 0 70 -8 96 -22c28 -15 51 -32 68 -54c16 -22 29 -49 38 -80s14 -62 14 -94c0 -75 -22 -140 -65 -195c-44 -55 -103 -83 -176 -83c-69 0 -120 26 -153 78
c-9 -7 -19 -16 -31 -27s-26 -24 -42 -39h-20zM153 219c0 -58 14 -105 42 -142c27 -37 63 -55 108 -55c55 0 96 25 122 75s39 105 39 166c0 63 -13 113 -38 151s-62 58 -112 58c-57 1 -98 -24 -123 -73c-25 -48 -38 -108 -38 -180z" />
    <glyph glyph-name="c" unicode="c" horiz-adv-x="536" 
d="M467 401h-8c-11 16 -21 29 -29 35c-12 14 -28 25 -49 32c-21 8 -40 13 -57 13c-59 1 -105 -22 -138 -66c-32 -43 -48 -95 -48 -156c0 -68 18 -124 55 -169c37 -44 84 -66 141 -68c30 0 55 7 76 19c21 11 45 29 72 54l6 -4l-5 -50c-49 -35 -104 -53 -164 -53
c-87 0 -155 25 -203 75s-72 114 -72 191c0 55 12 102 36 141s57 69 99 90s90 31 144 31c65 0 121 -15 168 -44z" />
    <glyph glyph-name="d" unicode="d" 
d="M522 -3h-16c-6 1 -10 2 -13 3h-13h-16c-3 0 -7 -1 -13 -2c-5 -1 -10 -1 -15 -1l-1 103c-43 -75 -104 -112 -183 -112c-63 0 -115 23 -155 68s-60 109 -61 191c0 49 10 94 29 135s46 74 81 98s76 36 122 36c72 0 128 -35 168 -104v390h21c8 -1 16 -2 23 -4c7 1 14 2 22 3
s15 1 20 1v-805zM291 472c-106 0 -159 -80 -159 -239c0 -55 12 -103 36 -144c23 -41 60 -63 111 -62c56 -1 96 24 121 74c24 49 36 104 36 167c0 53 -12 100 -36 141c-24 42 -60 63 -109 63z" />
    <glyph glyph-name="e" unicode="e" horiz-adv-x="536" 
d="M474 51c-60 -42 -122 -64 -184 -64c-75 -1 -136 24 -183 72c-47 47 -71 111 -71 194c0 77 22 140 65 189c44 49 104 74 181 74c41 0 79 -10 113 -29c35 -20 62 -49 81 -88s27 -88 24 -146c-74 2 -147 3 -218 3l-151 1c-5 -63 9 -116 42 -159c34 -43 82 -65 144 -65
c54 0 107 25 158 74zM416 296c-2 125 -47 187 -134 188c-47 0 -83 -19 -109 -56c-25 -37 -39 -81 -42 -132h285z" />
    <glyph glyph-name="f" unicode="f" horiz-adv-x="298" 
d="M95 469h-75c3 13 3 26 0 40h75l2 9c6 47 17 93 34 138s41 82 72 110c32 29 72 41 121 36c-5 -26 -7 -54 -6 -85l-5 -5l-24 11c-9 3 -21 5 -36 5c-33 0 -57 -11 -72 -32c-14 -22 -20 -49 -18 -82c1 -33 6 -68 15 -105h109c-3 -14 -3 -27 0 -40h-107v-472h-15
c-6 1 -11 2 -14 3h-14h-23c-6 -1 -12 -2 -19 -3v472z" />
    <glyph glyph-name="g" unicode="g" horiz-adv-x="536" 
d="M498 472l-118 9c49 -39 74 -86 75 -141s-22 -97 -65 -125s-98 -43 -165 -42c-8 0 -18 1 -30 0s-23 -5 -32 -12c-10 -8 -15 -21 -15 -38c0 -21 8 -35 25 -42s43 -10 78 -10h69c123 0 185 -48 185 -143c0 -41 -10 -78 -34 -111c-22 -32 -54 -57 -94 -74
c-41 -17 -89 -26 -144 -28c-32 0 -63 7 -92 18c-30 11 -55 29 -74 53s-29 54 -29 89c0 73 37 116 112 129v9c-43 7 -65 36 -65 87c0 23 6 42 19 55c13 14 31 26 55 37c-33 16 -59 36 -78 61c-18 24 -27 55 -27 93c0 55 18 98 53 129c35 30 90 44 164 41l149 -6
c27 -1 53 -2 78 3v-41zM104 -121c0 -42 14 -74 43 -97c28 -22 65 -33 112 -33c45 0 84 11 117 33c34 22 52 57 51 104c1 51 -13 83 -40 98c-27 14 -66 21 -118 21c-55 0 -96 -10 -123 -30c-28 -21 -42 -53 -42 -96zM253 201c37 0 66 14 87 41s32 60 32 99
c0 97 -38 146 -115 146c-38 0 -68 -13 -89 -39s-31 -60 -32 -101s8 -76 30 -104c21 -28 50 -42 87 -42z" />
    <glyph glyph-name="h" unicode="h" 
d="M83 802h19c8 -1 16 -2 23 -4c7 1 15 2 23 3s15 1 20 1l-1 -390c41 69 99 104 174 104c62 0 106 -17 133 -51c27 -35 40 -88 40 -159v-309h-15c-6 1 -11 2 -15 3h-13h-16c-3 0 -7 -1 -13 -2c-5 -1 -10 -1 -15 -1v285c0 61 -9 106 -26 135s-48 43 -93 43
c-93 0 -140 -57 -140 -172v-291h-15c-6 1 -11 2 -15 3h-13h-22c-6 -1 -13 -2 -20 -3v805z" />
    <glyph glyph-name="i" unicode="i" horiz-adv-x="298" 
d="M192 -3c-6 0 -12 1 -17 2c-5 0 -9 0 -12 1h-14h-23c-6 -1 -13 -2 -20 -3l-1 512h21c8 -1 16 -2 23 -4c7 1 14 2 22 3s15 1 21 1v-512zM149 637c-14 0 -27 5 -38 16s-16 24 -16 39c0 16 5 29 15 39c11 10 24 15 38 15c15 0 28 -5 39 -15s17 -23 18 -39
c0 -16 -6 -29 -17 -40c-11 -10 -24 -15 -39 -15z" />
    <glyph glyph-name="j" unicode="j" horiz-adv-x="298" 
d="M113 509h19c8 -1 16 -2 23 -4c7 1 15 2 23 3s15 1 21 1v-518c0 -50 -4 -93 -14 -129c-8 -36 -24 -69 -54 -97c-38 -35 -80 -50 -124 -48l-7 34l10 -2c31 -6 57 17 78 68c17 40 25 100 25 179v513zM154 638c-14 0 -27 5 -38 16s-16 24 -16 39c0 16 5 29 15 39
c11 10 24 15 39 15s28 -5 39 -16c11 -10 17 -23 17 -37c0 -15 -6 -28 -17 -39s-24 -17 -39 -17z" />
    <glyph glyph-name="k" unicode="k" horiz-adv-x="536" 
d="M170 322c0 -7 0 -14 -1 -21c0 -7 2 -12 7 -15s12 -2 21 2c9 5 18 11 27 18c8 7 17 15 27 24c9 10 15 17 18 20l67 67l82 92h21c9 -1 17 -2 24 -4l21 3c8 1 15 1 20 1v-6c-19 -17 -39 -34 -59 -51s-46 -40 -79 -68c-32 -28 -65 -58 -99 -89c20 -22 39 -43 56 -62
c17 -20 38 -45 63 -74s47 -54 65 -76c18 -21 41 -48 69 -81l1 -6l-21 3c-7 0 -12 0 -15 1h-17h-30c-7 -1 -15 -2 -24 -3c-31 41 -99 121 -205 241c-26 29 -39 22 -39 -22v-219h-16c-6 1 -10 2 -13 3h-13h-23c-6 -1 -13 -2 -20 -3l-1 805h21c8 -1 16 -2 23 -4c7 1 14 2 22 3
s15 1 20 1v-480z" />
    <glyph glyph-name="l" unicode="l" horiz-adv-x="298" 
d="M106 802h20c8 -1 16 -2 23 -4c7 1 14 2 22 3s15 1 21 1v-806c-6 1 -12 2 -17 3c-5 0 -9 0 -12 1h-14h-23c-6 -1 -13 -2 -20 -3v805z" />
    <glyph glyph-name="m" unicode="m" horiz-adv-x="893" 
d="M77 509h19c8 -1 16 -2 23 -4c7 1 15 2 23 3s15 1 20 1v-92c39 66 92 99 158 99c37 0 70 -10 98 -29s48 -45 59 -78c43 71 99 107 168 107c63 0 109 -17 135 -51c27 -35 39 -88 39 -159v-310c-6 1 -12 2 -17 3c-6 0 -10 0 -13 1h-14h-23c-6 -1 -12 -2 -19 -3v285
c0 57 -8 101 -24 132s-48 46 -95 46c-83 0 -124 -58 -124 -174v-289h-16c-6 1 -10 2 -13 3h-13h-24c-6 -1 -13 -2 -20 -3v314c0 99 -38 149 -114 149c-50 0 -84 -14 -101 -41c-18 -27 -27 -64 -27 -111v-311h-15c-6 1 -11 2 -14 3h-14h-23c-6 -1 -12 -2 -19 -3v512z" />
    <glyph glyph-name="n" unicode="n" 
d="M83 509h19c8 -1 16 -2 23 -4c7 1 15 2 23 3s15 1 20 1l-1 -97c41 69 99 104 174 104c62 0 106 -17 133 -50c27 -34 40 -87 40 -160v-309h-15c-6 1 -11 2 -15 3h-13h-16c-3 0 -7 -1 -13 -2c-5 -1 -10 -1 -15 -1v285c0 59 -8 103 -24 133s-48 45 -95 45
c-52 0 -88 -18 -109 -53c-21 -36 -31 -90 -31 -161v-249h-15c-6 1 -11 2 -15 3h-13h-22c-6 -1 -13 -2 -20 -3v512z" />
    <glyph glyph-name="o" unicode="o" 
d="M313 516c75 0 135 -24 180 -71c46 -47 69 -111 69 -190c0 -47 -11 -91 -30 -131c-21 -41 -51 -74 -92 -99c-40 -25 -89 -37 -146 -37c-47 0 -91 10 -133 33c-40 22 -70 55 -91 95c-22 41 -30 88 -28 141c1 50 11 95 34 134s56 70 97 92c42 22 89 33 140 33zM136 241
c0 -60 14 -112 41 -155s69 -65 126 -65c55 0 97 26 124 78c28 52 42 105 42 160c0 37 -6 72 -16 105c-11 34 -27 62 -50 85c-24 23 -54 34 -90 34c-43 0 -78 -12 -104 -35s-45 -53 -56 -89s-17 -75 -17 -118z" />
    <glyph glyph-name="p" unicode="p" 
d="M156 -278c-21 3 -35 4 -42 4c-10 0 -24 -1 -43 -4l-1 787h21c8 -1 16 -2 23 -4c7 1 14 2 22 3s15 1 20 1v-108h2c17 33 38 61 62 82c24 22 64 33 120 33c44 0 82 -12 114 -34c33 -23 58 -52 75 -89s26 -78 26 -123c0 -87 -20 -156 -63 -207c-42 -50 -99 -75 -168 -75
c-73 0 -128 34 -166 103h-2v-369zM315 33c51 0 88 22 111 65s35 99 35 167c0 61 -11 112 -33 154c-23 41 -61 62 -114 62c-56 1 -96 -25 -121 -74s-37 -105 -37 -168c0 -61 13 -111 39 -149c27 -38 67 -57 120 -57z" />
    <glyph glyph-name="q" unicode="q" 
d="M436 509h21c8 -1 16 -2 23 -4c7 1 14 2 22 3s15 1 20 1v-787c-21 3 -35 4 -42 4c-9 0 -24 -1 -44 -4v367h-2c-33 -67 -88 -101 -164 -101c-73 0 -130 26 -171 77c-41 52 -61 115 -61 188c0 77 19 140 57 189s91 74 159 74c35 0 65 -7 90 -20s45 -28 58 -45
c14 -17 25 -34 32 -52h2v110zM281 480c-99 0 -148 -71 -148 -212c0 -157 53 -235 160 -236c45 0 80 21 105 63c25 41 38 89 38 145c0 67 -13 124 -40 171c-27 46 -65 69 -115 69z" />
    <glyph glyph-name="r" unicode="r" horiz-adv-x="357" 
d="M85 509h20c8 -1 16 -2 23 -4c7 1 14 2 22 3s15 1 20 1v-107l5 13c45 67 90 101 136 101c15 0 26 -2 33 -6l-13 -90c-1 0 -8 3 -21 9s-23 9 -31 9c-31 0 -53 -10 -68 -28c-18 -21 -31 -40 -35 -58c-5 -19 -6 -45 -6 -78v-277h-16c-6 1 -10 2 -13 3h-13h-23
c-6 -1 -13 -2 -20 -3v512z" />
    <glyph glyph-name="s" unicode="s" horiz-adv-x="417" 
d="M77 101c14 -23 32 -42 55 -57c22 -15 45 -23 68 -23c26 0 50 10 71 29c22 19 33 42 33 69c0 33 -10 55 -29 66s-51 23 -94 34c-44 13 -77 30 -98 49c-21 18 -32 48 -32 89c0 49 17 88 50 117c33 28 75 42 125 42c52 0 93 -9 123 -29c-9 -19 -18 -44 -27 -75h-9
c-7 19 -20 36 -37 50c-18 14 -36 21 -55 21c-27 0 -50 -8 -69 -23c-19 -16 -29 -38 -29 -67c0 -30 9 -51 27 -62c18 -12 49 -25 94 -40s78 -31 99 -49c22 -18 33 -46 33 -85c0 -53 -20 -94 -60 -124s-86 -45 -137 -45c-50 0 -95 11 -135 34c5 13 10 27 15 42s8 27 9 37h9z
" />
    <glyph glyph-name="t" unicode="t" horiz-adv-x="298" 
d="M163 649v-140l113 -1c-3 -15 -3 -28 0 -39h-113v-269c0 -57 4 -100 11 -129c7 -30 30 -45 68 -45c7 0 23 2 48 7v-26c-35 -13 -65 -20 -88 -20c-43 -1 -75 13 -96 39c-21 25 -28 68 -28 130v313l-67 1c3 13 3 26 0 39h67v107z" />
    <glyph glyph-name="u" unicode="u" 
d="M507 -3h-16c-6 1 -10 2 -13 3h-13h-15s-8 -1 -13 -2c-6 -1 -11 -1 -16 -1v92c-17 -33 -40 -58 -69 -75s-63 -27 -100 -27c-60 -1 -105 17 -134 50s-44 86 -44 158l-1 314h21c8 -1 16 -2 23 -4c7 1 15 2 23 3s15 1 20 1v-289c0 -59 10 -104 31 -135c20 -30 53 -45 98 -45
c88 0 132 58 132 174l-1 295h21c9 -1 17 -2 24 -4c7 1 14 2 22 3s15 1 20 1v-512z" />
    <glyph glyph-name="v" unicode="v" horiz-adv-x="536" 
d="M448 509c20 -2 31 -3 34 -4c5 1 11 2 18 3s12 1 16 2c-99 -207 -172 -378 -219 -513h-13c-4 1 -7 2 -10 3h-9c-2 0 -13 -1 -33 -3c-19 54 -50 133 -92 237s-82 196 -119 275h21c10 -1 19 -2 28 -4c7 1 15 2 24 3s17 1 23 0c29 -97 82 -234 159 -411c11 13 18 23 21 30
l65 151z" />
    <glyph glyph-name="w" unicode="w" horiz-adv-x="835" 
d="M602 -3c-4 0 -8 1 -11 2c-4 0 -7 0 -9 1h-9h-16c-4 -1 -9 -2 -14 -3c-13 52 -33 117 -59 195c-27 78 -51 143 -71 194c-17 -31 -40 -85 -69 -162c-29 -78 -55 -154 -78 -228c-5 1 -9 2 -13 3s-9 1 -16 1h-15c-4 -1 -9 -2 -14 -4c-31 99 -64 194 -98 285s-65 167 -92 228
h21c10 -1 19 -2 27 -4c7 1 15 2 24 3s17 1 23 1c42 -146 87 -278 135 -397c19 40 45 102 77 187s57 155 74 210c16 -2 25 -3 27 -4l15 3c6 1 11 1 14 2c13 -51 34 -118 63 -201c28 -83 53 -149 74 -198c37 89 71 171 100 245c30 74 49 125 57 153h15c7 -1 14 -2 20 -4
c5 1 11 2 17 3s12 1 18 1c-29 -55 -65 -131 -107 -228s-79 -192 -110 -284z" />
    <glyph glyph-name="x" unicode="x" horiz-adv-x="536" 
d="M31 509h25c11 -1 21 -2 29 -4c9 1 19 2 29 3s19 1 26 1c19 -33 42 -67 67 -103c26 -36 50 -68 72 -97l60 78l90 122h17c7 -1 14 -2 19 -4c6 1 13 2 20 3s13 1 18 1c-66 -70 -133 -147 -200 -230l201 -272v-10h-19c-7 1 -12 2 -16 3h-15h-18s-9 -1 -16 -2
c-6 -1 -12 -1 -17 -2c-43 71 -93 145 -151 222c-78 -106 -129 -180 -154 -222l-12 3c-4 0 -7 0 -9 1h-11h-12s-6 -1 -9 -2c-4 -1 -8 -1 -12 -1v10c54 67 118 148 193 243z" />
    <glyph glyph-name="y" unicode="y" horiz-adv-x="536" 
d="M28 509h22c11 -1 21 -2 30 -4c8 1 17 2 26 3s17 1 24 1c15 -46 30 -90 46 -133c16 -42 33 -85 52 -130c19 -44 39 -89 61 -134c41 81 95 213 161 397h18c6 -1 12 -2 18 -4c5 1 11 2 18 3s12 1 16 1c-31 -70 -61 -137 -91 -202s-60 -130 -89 -196s-60 -136 -92 -211
s-57 -134 -75 -178c-17 3 -29 4 -36 4c-8 0 -20 -1 -36 -4c69 135 117 228 144 279z" />
    <glyph glyph-name="z" unicode="z" horiz-adv-x="536" 
d="M155 43v-4c48 0 105 3 170 7c66 5 118 7 157 9c0 -4 -1 -9 -2 -15s-2 -10 -2 -12c0 -4 1 -9 2 -15s2 -10 2 -13h-459v10c60 73 119 148 176 225c58 77 114 153 167 228v3c-48 0 -144 -5 -287 -16c2 14 3 23 3 26v15c-1 4 -2 8 -3 13h410v-10z" />
    <glyph glyph-name="braceleft" unicode="{" horiz-adv-x="357" 
d="M221 10c0 -40 7 -71 20 -92s36 -35 68 -42c-61 -2 -104 8 -129 30c-24 22 -36 65 -36 130v176c0 39 -5 67 -16 85c-10 18 -32 32 -66 41c32 9 54 23 65 42c11 18 17 45 17 81v191c0 61 13 102 39 122s68 29 127 27c-33 -7 -56 -21 -69 -42s-20 -52 -20 -92v-190
c0 -42 -6 -73 -16 -94c-11 -21 -35 -36 -72 -45c37 -9 61 -25 72 -48c11 -22 16 -56 16 -102v-178z" />
    <glyph glyph-name="bar" unicode="|" horiz-adv-x="357" 
d="M144 0h-144h213v802h-69v-802z" />
    <glyph glyph-name="braceright" unicode="}" horiz-adv-x="357" 
d="M136 188c-1 43 5 77 16 101c11 23 35 39 71 48c-36 9 -60 24 -70 44c-11 21 -17 53 -17 96v190c0 39 -7 69 -20 90s-36 36 -70 45c40 0 72 -4 95 -11s41 -22 54 -44c13 -23 19 -55 19 -96l-1 -191c0 -35 6 -62 17 -81c11 -18 33 -32 65 -42c-33 -9 -55 -22 -66 -40
c-10 -18 -15 -46 -15 -85v-176c0 -65 -12 -109 -37 -130c-25 -22 -68 -32 -130 -30c33 7 56 21 69 43c13 21 20 51 20 90v179z" />
    <glyph glyph-name="asciitilde" unicode="~" horiz-adv-x="650" 
d="M595 321c-16 -32 -37 -60 -63 -83s-55 -34 -88 -35c-10 0 -24 3 -41 8c-18 5 -37 12 -58 22c-20 8 -35 14 -46 18c-45 19 -76 28 -93 28c-25 0 -46 -8 -61 -24c-16 -17 -34 -42 -53 -75l-38 42c22 39 43 70 66 93s52 33 87 33c16 0 34 -3 55 -10c20 -7 41 -15 63 -25
s45 -19 69 -28c23 -8 40 -14 51 -14c23 0 44 9 64 27c20 19 36 41 48 66z" />
    <glyph glyph-name="ellipsis" unicode="&#x2026;" horiz-adv-x="1073" 
d="M180 117c17 1 32 -6 45 -20c12 -13 18 -28 18 -44c0 -17 -6 -32 -19 -45c-12 -13 -27 -20 -44 -20c-18 0 -33 7 -46 20s-20 28 -20 44c-1 17 7 32 21 45c13 13 28 20 45 20zM537 118c19 0 34 -6 46 -19s18 -28 18 -46c0 -17 -6 -32 -18 -45s-27 -19 -46 -19
c-18 0 -33 7 -46 20s-20 28 -20 44c-1 17 7 32 21 45c13 13 28 20 45 20zM894 118c17 0 32 -6 45 -19s19 -28 19 -46c0 -17 -6 -32 -19 -45s-28 -19 -45 -19c-18 0 -33 7 -46 20s-20 28 -20 44c-1 17 7 32 21 45c13 13 28 20 45 20z" />
    <glyph glyph-name="dagger" unicode="&#x2020;" horiz-adv-x="536" 
d="M231 423c-25 0 -87 -2 -188 -6l3 18c1 5 1 11 1 19v18c-1 5 -2 10 -3 16c107 -3 169 -5 187 -5v247c22 -2 34 -3 36 -4c6 1 13 2 20 3s13 1 18 1l1 -247c23 0 85 2 186 5v-16c-1 -7 -2 -13 -4 -17c1 -6 2 -13 3 -20s1 -13 0 -17c-101 3 -163 5 -186 5l1 -427
c-5 1 -10 2 -14 3c-5 0 -9 0 -12 1h-12c-3 0 -15 -1 -37 -3v426z" />
    <glyph glyph-name="daggerdbl" unicode="&#x2021;" 
d="M471 509h43v-513c-7 1 -14 2 -20 3s-14 1 -23 1h-16c-3 0 -7 -1 -13 -2c-5 -1 -10 -1 -15 -1v373c-68 -77 -126 -145 -173 -203c-48 -58 -91 -115 -129 -170h-42v512c9 -2 23 -3 42 -3s33 1 43 3v-373c103 111 204 235 303 373z" />
    <glyph glyph-name="quoteleft" unicode="&#x2018;" horiz-adv-x="298" 
d="M167 501c-12 -40 -28 -61 -49 -61c-11 0 -21 4 -30 11c-9 8 -14 18 -14 29c0 13 9 31 24 56l126 210l18 -7z" />
    <glyph glyph-name="quoteright" unicode="&#x2019;" horiz-adv-x="298" 
d="M131 685c13 40 28 61 49 61c13 0 24 -4 32 -10c8 -7 12 -17 12 -29c0 -14 -8 -33 -23 -57l-127 -210l-19 8z" />
    <glyph glyph-name="quotedblleft" unicode="&#x201c;" horiz-adv-x="476" 
d="M346 501c-13 -41 -30 -61 -50 -61c-11 0 -21 4 -30 11s-14 17 -14 29c0 11 7 30 23 56l127 210l18 -7zM163 501c-7 -21 -13 -36 -19 -46s-16 -15 -30 -15c-11 0 -21 4 -30 11s-14 17 -14 29c0 13 9 31 24 56l126 210l18 -7z" />
    <glyph glyph-name="quotedblright" unicode="&#x201d;" horiz-adv-x="476" 
d="M131 685c13 40 28 61 49 61c13 0 24 -4 32 -10c8 -7 12 -17 12 -29c0 -14 -8 -33 -23 -57l-127 -210l-19 8zM314 685c13 40 28 61 49 61c13 0 23 -4 31 -11s12 -16 12 -28c0 -9 -1 -16 -3 -21s-5 -11 -9 -18c-4 -6 -7 -12 -11 -18l-127 -210l-18 8z" />
    <glyph glyph-name="bullet" unicode="&#x2022;" horiz-adv-x="298" 
d="M150 311c17 0 32 -6 45 -19s19 -28 19 -45c0 -18 -7 -33 -20 -46s-28 -19 -44 -19c-17 0 -32 7 -45 20s-21 28 -20 45c-1 18 6 33 20 46c13 12 28 18 45 18z" />
    <glyph glyph-name="endash" unicode="&#x2013;" horiz-adv-x="536" 
d="M0 212v51h541v-51h-541z" />
    <glyph glyph-name="emdash" unicode="&#x2014;" horiz-adv-x="1073" 
d="M0 263h1073v-51h-1073v51z" />
    <glyph glyph-name="trademark" unicode="&#x2122;" horiz-adv-x="1019" 
d="M912 730c20 -190 38 -335 54 -436c-5 1 -10 2 -14 3s-10 1 -17 1c-2 0 -12 -1 -30 -3c-14 164 -25 273 -34 328c-81 -145 -136 -252 -165 -321h-6l-36 72c-17 34 -36 74 -60 119c-24 46 -47 89 -70 130c-19 -171 -29 -280 -30 -328c-3 1 -10 2 -22 3c-3 0 -6 0 -7 -1h-7
s-6 -1 -9 -2c35 222 55 367 61 435l16 1c21 -41 41 -79 58 -115c18 -35 40 -73 64 -116c25 -44 44 -78 59 -102l90 165s61 111 93 167h12zM248 295c-3 0 -7 1 -10 2c-4 0 -7 0 -9 1h-9h-15c-4 -1 -8 -2 -13 -3v406c-27 0 -74 -3 -140 -8v37h329v-37c-57 5 -101 8 -133 8
v-406z" />
    <glyph glyph-name="afii10062" unicode="&#x40e;" horiz-adv-x="695" 
d="M617 730c11 -2 23 -3 36 -4c6 1 13 2 20 3c8 1 14 1 19 1c-8 -13 -27 -48 -55 -104c-30 -57 -66 -125 -109 -204c-41 -79 -82 -163 -125 -251c-44 -88 -72 -146 -85 -174c-18 2 -29 3 -34 3c-18 0 -34 -1 -49 -3c25 39 50 80 75 123c25 44 43 77 55 98
c-13 19 -30 43 -51 72c-21 30 -53 77 -95 140c-44 64 -88 127 -132 190c-43 62 -71 99 -81 110c32 -2 54 -3 67 -3c3 0 22 1 58 3c36 -59 80 -127 132 -204c52 -78 100 -146 144 -204l12 -1c13 25 44 87 93 186s84 173 105 223z" />
    <glyph glyph-name="afii10110" unicode="&#x45e;" horiz-adv-x="536" 
d="M28 509h22c11 -1 21 -2 30 -4c8 1 17 2 26 3s17 1 24 1c15 -46 30 -90 46 -133c16 -42 33 -85 52 -130c19 -44 39 -89 61 -134c41 81 95 213 162 397c12 -2 24 -3 35 -3s22 1 34 3c-31 -70 -61 -137 -91 -202s-60 -130 -89 -196s-60 -136 -92 -211s-57 -134 -75 -178
c-17 3 -29 4 -36 4c-8 0 -20 -1 -36 -4c69 135 117 228 144 279z" />
    <glyph glyph-name="afii10057" unicode="&#x408;" horiz-adv-x="298" 
d="M213 94c0 -46 -7 -87 -25 -123c-17 -36 -42 -65 -75 -86s-73 -32 -119 -33l-9 29c54 2 90 21 107 56s26 83 26 143v650h21c9 -1 18 -2 25 -4c8 1 17 2 26 3s17 1 23 1v-636z" />
    <glyph glyph-name="currency" unicode="&#xa4;" 
d="M92 209c-40 52 -60 106 -60 164c0 65 19 119 57 162l-58 59l48 47l57 -58c47 38 102 57 165 57c60 0 113 -19 159 -56l57 56l47 -46l-58 -57c40 -47 60 -101 60 -163c0 -61 -21 -115 -62 -163l56 -59l-45 -46l-57 57c-45 -37 -98 -56 -158 -56c-63 0 -117 19 -162 56
l-56 -57l-48 45zM98 373c0 -55 20 -102 60 -141s87 -59 142 -59c37 0 71 8 103 27c30 18 53 44 70 75c18 31 27 64 27 100s-9 69 -27 99c-18 31 -42 56 -73 75c-31 18 -64 27 -99 27c-56 0 -104 -20 -143 -59c-40 -40 -60 -88 -60 -144z" />
    <glyph glyph-name="afii10050" unicode="&#x490;" horiz-adv-x="357" 
d="M144 0h-144h213v300h-69v-300zM213 802v-300h-69v300h69z" />
    <glyph glyph-name="section" unicode="&#xa7;" horiz-adv-x="536" 
d="M240 165c-36 15 -66 29 -92 43c-24 13 -43 32 -58 55c-16 23 -24 51 -24 85c0 48 24 91 71 128c-19 35 -29 66 -29 92c0 53 18 96 54 129s81 49 135 49c58 0 106 -20 144 -60c-11 -13 -22 -34 -33 -62l-9 -1c-9 25 -24 46 -45 63c-20 17 -42 25 -66 25
c-33 0 -60 -7 -81 -22c-29 -22 -43 -50 -43 -83c0 -46 26 -80 77 -103l134 -59c64 -28 95 -74 95 -136c0 -47 -21 -93 -62 -138c28 -30 42 -58 42 -86c0 -63 -22 -114 -65 -153s-97 -59 -161 -59c-49 0 -99 15 -151 45c9 33 13 63 13 90h10c35 -64 89 -96 162 -98
c35 0 65 15 93 43s42 53 42 78c0 30 -7 52 -22 68c-16 16 -42 28 -74 42zM334 218l58 -33c20 33 30 59 30 78c0 43 -29 79 -88 105l-112 49c-8 4 -17 9 -27 13c-10 5 -18 10 -25 14c-7 5 -12 10 -16 15c-27 -24 -40 -50 -40 -78c0 -21 6 -38 17 -51c8 -10 19 -21 35 -32
c15 -11 31 -21 49 -29c17 -8 30 -14 39 -18z" />
    <glyph glyph-name="afii10023" unicode="&#x401;" horiz-adv-x="536" 
d="M190 410h166c11 0 22 0 35 2c12 0 23 1 34 2c10 1 19 2 27 2c-2 -18 -3 -27 -4 -28c1 -4 2 -9 3 -14c1 -6 1 -11 1 -15l-48 3s-32 2 -48 2h-166v-314c22 -1 87 1 194 4c31 1 64 4 99 11v-16c-1 -6 -2 -12 -4 -17c1 -5 2 -11 3 -17s1 -11 1 -15h-387v730h380v-14
c-1 -6 -2 -12 -3 -17c0 -2 1 -13 3 -33c-27 5 -59 10 -96 11l-108 2h-82v-269zM355 861c0 12 5 23 14 34c10 10 22 15 35 15s25 -5 35 -15s15 -21 15 -33c0 -13 -5 -25 -14 -36c-10 -10 -22 -15 -37 -15c-13 0 -24 5 -33 15c-10 10 -15 22 -15 35zM145 861c0 13 5 24 15 34
s22 15 36 15c13 0 24 -5 33 -14s14 -21 14 -35c0 -12 -5 -23 -15 -34c-9 -11 -20 -16 -33 -16c-14 0 -26 5 -35 15c-10 10 -15 22 -15 35z" />
    <glyph glyph-name="copyright" unicode="&#xa9;" horiz-adv-x="804" 
d="M21 365c0 68 17 131 50 190c34 59 80 106 138 140c59 35 123 51 192 51s133 -17 191 -51s105 -80 140 -139c35 -58 52 -122 52 -191s-16 -133 -51 -193c-34 -58 -82 -103 -141 -137c-58 -34 -122 -51 -190 -51c-69 0 -133 17 -192 51c-58 34 -104 80 -138 138
c-34 59 -51 123 -51 192zM725 365c0 44 -9 86 -27 128c-17 41 -40 76 -70 105c-29 29 -63 52 -102 69s-81 26 -125 26s-85 -9 -124 -26c-38 -17 -72 -41 -101 -72c-29 -30 -52 -65 -69 -105s-27 -82 -27 -124c-1 -89 32 -166 96 -231c63 -65 138 -98 224 -98
c57 0 111 15 162 45c50 30 90 70 119 120s44 104 44 163zM543 187c-35 -23 -82 -34 -140 -34c-69 0 -124 19 -165 58c-40 39 -60 91 -60 157c0 65 23 116 69 154c45 38 102 57 171 57c50 0 96 -9 137 -28c-6 -15 -10 -31 -13 -49h-4c-7 9 -21 19 -43 29s-48 15 -79 15
c-33 0 -62 -8 -88 -23c-25 -15 -44 -37 -57 -65s-20 -59 -20 -92c0 -56 15 -100 46 -133c31 -32 69 -48 115 -48c41 0 87 15 138 44z" />
    <glyph glyph-name="afii10053" unicode="&#x404;" horiz-adv-x="716" 
d="M539 416c0 -3 -1 -7 -2 -13s-2 -11 -2 -15c0 -2 1 -6 2 -12c1 -7 2 -13 3 -19c-7 0 -17 1 -29 2s-25 2 -37 3c-13 1 -23 2 -30 2l-300 1c0 -68 12 -128 36 -180c24 -51 58 -90 101 -116c43 -28 93 -43 150 -44c51 0 96 10 135 29c38 19 69 39 93 59l-6 -68
c-61 -41 -140 -61 -237 -62c-78 0 -145 16 -202 47s-100 76 -130 135c-30 58 -45 126 -45 203c0 78 18 146 52 204c36 57 86 100 147 129c61 30 130 45 206 45c77 0 154 -16 230 -50c-7 -17 -15 -44 -23 -81l-7 -1c-12 17 -37 37 -75 59s-81 33 -129 33
c-86 0 -155 -28 -207 -83c-51 -55 -80 -126 -87 -213l297 -1c7 0 17 1 29 2c13 1 26 2 38 3s22 2 29 2z" />
    <glyph glyph-name="guillemotleft" unicode="&#xab;" horiz-adv-x="536" 
d="M104 240l135 199c11 -13 24 -23 40 -29l-121 -169l114 -176c-17 -6 -30 -16 -39 -29zM257 240l135 199c11 -13 24 -23 40 -29l-119 -169l113 -176c-16 -5 -29 -15 -40 -29z" />
    <glyph glyph-name="logicalnot" unicode="&#xac;" horiz-adv-x="650" 
d="M526 342h-472v68h541v-289h-69v221z" />
    <glyph glyph-name="registered" unicode="&#xae;" horiz-adv-x="804" 
d="M20 366c0 68 17 132 51 191c35 59 82 105 140 138c59 34 123 51 192 51c67 0 130 -17 189 -50c59 -34 106 -80 140 -139s51 -123 51 -190c0 -68 -17 -132 -51 -191s-80 -106 -139 -141c-59 -34 -122 -51 -190 -51c-69 0 -133 17 -191 52c-59 34 -107 80 -141 138
c-35 59 -51 123 -51 192zM724 365c0 57 -14 111 -43 162s-68 91 -118 120c-50 30 -103 45 -159 45c-57 0 -111 -15 -161 -45s-90 -70 -118 -120c-29 -50 -45 -104 -46 -162s15 -112 44 -163s69 -91 119 -121s104 -45 161 -45s110 15 160 44c50 30 89 71 118 123
c29 51 43 105 43 162zM318 160c-4 0 -9 1 -14 2c-4 1 -9 1 -15 1c-2 0 -11 -1 -27 -3v410h135c94 0 141 -30 141 -91c0 -63 -44 -101 -131 -114l132 -157l31 -34l12 -15c-6 1 -12 2 -17 3c-6 1 -13 1 -22 1h-18c-5 -1 -11 -2 -17 -3c-7 9 -14 19 -20 31c-7 10 -14 17 -19 22
l-77 90l-50 56h-24v-199zM319 390l70 -2c29 0 52 9 69 25c17 15 26 34 26 57c0 42 -24 66 -73 66h-92v-146z" />
    <glyph glyph-name="afii10056" unicode="&#x407;" horiz-adv-x="298" 
d="M102 730h21c9 -1 18 -2 25 -4c8 1 17 2 26 3s17 1 23 1v-734c-6 1 -12 2 -19 3c-6 0 -11 0 -14 1h-14h-27c-6 -1 -13 -2 -21 -3v733zM206 861c0 12 5 23 14 34c10 10 22 15 35 15s25 -5 34 -14c10 -10 15 -22 15 -34c0 -13 -5 -25 -14 -36c-10 -10 -22 -15 -35 -15
s-25 5 -34 15c-10 10 -15 22 -15 35zM-4 861c0 12 5 23 15 34c10 10 21 15 34 15c14 0 26 -5 35 -14s14 -21 14 -35c0 -12 -5 -23 -15 -34s-21 -16 -34 -16s-25 5 -34 15c-10 10 -15 22 -15 35z" />
    <glyph glyph-name="degree" unicode="&#xb0;" horiz-adv-x="429" 
d="M215 396c-44 0 -82 16 -114 47s-49 69 -49 113c-1 45 16 82 48 114s69 48 114 48s83 -16 114 -47c31 -32 47 -70 47 -115c0 -44 -16 -82 -47 -113s-69 -47 -113 -47zM214 674c-33 1 -61 -11 -84 -34c-22 -23 -33 -51 -33 -83c0 -33 12 -61 35 -84s51 -34 82 -34
c33 0 61 11 84 34c23 22 35 50 35 83s-12 61 -35 84s-51 34 -84 34z" />
    <glyph glyph-name="plusminus" unicode="&#xb1;" horiz-adv-x="650" 
d="M290 541h69v-170h236v-69h-236v-173h-69v173h-236v69h236v170zM54 0v69h541v-69h-541z" />
    <glyph glyph-name="afii10055" unicode="&#x406;" horiz-adv-x="298" 
d="M102 730h21c9 -1 18 -2 25 -4c8 1 17 2 26 3s17 1 23 1v-734c-6 1 -12 2 -19 3c-6 0 -11 0 -14 1h-14h-27c-6 -1 -13 -2 -21 -3v733z" />
    <glyph glyph-name="afii10103" unicode="&#x456;" horiz-adv-x="298" 
d="M192 -3c-6 0 -12 1 -17 2c-5 0 -9 0 -12 1h-14h-23c-6 -1 -13 -2 -20 -3l-1 512h21c8 -1 16 -2 23 -4c7 1 14 2 22 3s15 1 21 1v-512zM149 637c-14 0 -27 5 -38 16s-16 24 -16 39c0 16 5 29 15 39c11 10 24 15 38 15c15 0 28 -5 39 -15s17 -23 18 -39
c0 -16 -6 -29 -17 -40c-11 -10 -24 -15 -39 -15z" />
    <glyph glyph-name="afii10098" unicode="&#x491;" horiz-adv-x="357" 
d="M137 571h-36l133 133c5 5 10 10 15 14s9 9 14 13c3 2 7 6 12 11s10 8 15 9c9 2 18 1 27 -4s15 -11 17 -19c5 -13 5 -22 -2 -29c-3 -7 -12 -15 -27 -24z" />
    <glyph glyph-name="mu" unicode="&#xb5;" 
d="M421 509h20c9 -1 17 -2 24 -4c7 1 14 2 22 3s15 1 20 1v-512h-16c-6 1 -10 2 -13 3h-13h-15s-8 -1 -13 -2c-6 -1 -11 -1 -16 -1v92h-1c-16 -33 -39 -58 -69 -75c-29 -17 -62 -26 -101 -26c-35 0 -65 10 -90 29l-1 -295c-21 3 -35 4 -42 4c-10 0 -24 -1 -43 -4l-1 787h21
c8 -1 16 -2 23 -4c7 1 15 2 23 3s15 1 20 1v-289c0 -59 10 -104 31 -135c20 -30 53 -45 98 -45c88 0 132 58 132 174v295z" />
    <glyph glyph-name="mu" unicode="&#x3bc;" 
d="M421 509h20c9 -1 17 -2 24 -4c7 1 14 2 22 3s15 1 20 1v-512h-16c-6 1 -10 2 -13 3h-13h-15s-8 -1 -13 -2c-6 -1 -11 -1 -16 -1v92h-1c-16 -33 -39 -58 -69 -75c-29 -17 -62 -26 -101 -26c-35 0 -65 10 -90 29l-1 -295c-21 3 -35 4 -42 4c-10 0 -24 -1 -43 -4l-1 787h21
c8 -1 16 -2 23 -4c7 1 15 2 23 3s15 1 20 1v-289c0 -59 10 -104 31 -135c20 -30 53 -45 98 -45c88 0 132 58 132 174v295z" />
    <glyph glyph-name="paragraph" unicode="&#xb6;" horiz-adv-x="858" 
d="M439 696v-806c-16 3 -27 4 -34 4s-18 -1 -34 -4v458l-38 -4c-64 0 -115 17 -152 51c-38 34 -57 82 -57 145c0 35 7 68 21 98c15 30 37 53 65 68c23 12 47 19 71 21s63 3 116 3h204v-840c-15 3 -26 4 -32 4c-9 0 -21 -1 -36 -4v806h-94zM269 501c0 -84 29 -130 87 -126
l15 1l1 320c-28 1 -50 -3 -67 -13c-15 -9 -24 -25 -28 -44c-5 -19 -8 -42 -8 -68v-70z" />
    <glyph glyph-name="periodcentered" unicode="&#xb7;" horiz-adv-x="536" 
d="M170 322c0 -7 0 -14 -1 -21c0 -7 2 -12 7 -15s12 -2 21 2c9 5 18 11 27 18c8 7 17 15 27 24c9 10 15 17 18 20l67 67l82 92h21c9 -1 17 -2 24 -4l21 3c8 1 15 1 20 1v-6c-19 -17 -39 -34 -59 -51s-46 -40 -79 -68c-32 -28 -65 -58 -99 -89c20 -22 39 -43 56 -62
c17 -20 38 -45 63 -74s47 -54 65 -76c18 -21 41 -48 69 -81l1 -6l-21 3c-7 0 -12 0 -15 1h-17h-30c-7 -1 -15 -2 -24 -3c-31 41 -99 121 -205 241c-26 29 -39 22 -39 -22v-219h-16c-6 1 -10 2 -13 3h-13h-23c-6 -1 -13 -2 -20 -3l-1 512h21c8 -1 16 -2 23 -4c7 1 14 2 22 3
s15 1 20 1v-187z" />
    <glyph glyph-name="periodcentered" unicode="&#x2219;" horiz-adv-x="536" 
d="M170 322c0 -7 0 -14 -1 -21c0 -7 2 -12 7 -15s12 -2 21 2c9 5 18 11 27 18c8 7 17 15 27 24c9 10 15 17 18 20l67 67l82 92h21c9 -1 17 -2 24 -4l21 3c8 1 15 1 20 1v-6c-19 -17 -39 -34 -59 -51s-46 -40 -79 -68c-32 -28 -65 -58 -99 -89c20 -22 39 -43 56 -62
c17 -20 38 -45 63 -74s47 -54 65 -76c18 -21 41 -48 69 -81l1 -6l-21 3c-7 0 -12 0 -15 1h-17h-30c-7 -1 -15 -2 -24 -3c-31 41 -99 121 -205 241c-26 29 -39 22 -39 -22v-219h-16c-6 1 -10 2 -13 3h-13h-23c-6 -1 -13 -2 -20 -3l-1 512h21c8 -1 16 -2 23 -4c7 1 14 2 22 3
s15 1 20 1v-187z" />
    <glyph glyph-name="afii10071" unicode="&#x451;" horiz-adv-x="536" 
d="M324 640c0 13 5 25 15 35s21 15 34 15s25 -5 34 -14c10 -10 15 -22 15 -36c0 -13 -5 -24 -15 -34s-21 -15 -34 -15s-24 5 -34 15s-15 21 -15 34zM114 640c0 12 5 24 14 35c10 10 22 15 35 15s25 -5 35 -15s15 -22 15 -35s-5 -24 -15 -34s-22 -15 -35 -15s-24 5 -34 15
s-15 21 -15 34zM474 50c-60 -42 -122 -64 -184 -64c-75 -1 -136 24 -183 72c-47 47 -71 111 -71 194c0 77 22 140 65 189c44 49 104 74 181 74c41 0 79 -10 113 -29c35 -20 62 -49 81 -88s27 -88 24 -146c-74 2 -147 3 -218 3l-151 1c-5 -63 9 -116 42 -159
c34 -43 82 -65 144 -65c54 0 107 25 158 74zM416 295c-2 125 -47 187 -134 188c-47 0 -83 -19 -109 -56c-25 -37 -39 -81 -42 -132h285z" />
    <glyph glyph-name="afii61352" unicode="&#x2116;" horiz-adv-x="365" 
d="M190 746c50 0 91 -15 121 -46c28 -29 41 -66 41 -110c0 -30 -7 -60 -25 -87c-32 -49 -83 -73 -149 -73c-26 0 -50 4 -73 14c-18 8 -36 20 -53 37c-27 26 -39 64 -39 111c0 31 8 58 23 81c16 23 37 41 64 54s57 19 90 19zM337 368v-32h-311v32h311zM73 583
c0 -36 9 -67 27 -94c18 -26 45 -39 82 -40s64 16 81 48c17 31 26 63 26 96c0 35 -8 66 -23 93c-16 27 -42 41 -76 41c-41 0 -71 -14 -90 -42c-18 -28 -27 -62 -27 -102z" />
    <glyph glyph-name="afii10101" unicode="&#x454;" horiz-adv-x="516" 
d="M355 293v-48c-13 1 -32 2 -58 3s-49 1 -69 1h-103c2 -67 21 -121 57 -162c36 -42 82 -63 138 -63c29 0 55 6 77 18s46 30 71 53l7 -4l-5 -50c-49 -35 -104 -53 -164 -53c-87 0 -154 25 -201 75s-70 114 -70 191c0 82 25 146 76 193c50 46 116 69 196 69
c65 0 122 -15 171 -44l-25 -71h-8c-18 22 -28 34 -30 35c-12 14 -27 26 -47 33s-40 11 -59 11c-53 0 -95 -18 -126 -53c-31 -36 -50 -82 -57 -139h102c20 0 43 1 69 2s45 2 58 3z" />
    <glyph glyph-name="guillemotright" unicode="&#xbb;" horiz-adv-x="536" 
d="M432 235l-135 -199c-12 14 -25 24 -40 29l120 169l-114 176c17 6 30 16 40 29zM279 235l-135 -199c-12 14 -25 24 -40 29l120 169l-114 176c17 6 30 16 40 29z" />
    <glyph glyph-name="afii10105" unicode="&#x458;" horiz-adv-x="298" 
d="M113 509h19c8 -1 16 -2 23 -4c7 1 15 2 23 3s15 1 21 1v-518c0 -50 -4 -93 -14 -129c-8 -36 -24 -69 -54 -97c-38 -35 -80 -50 -124 -48l-7 34l10 -2c31 -6 57 17 78 68c17 40 25 100 25 179v513zM154 638c-14 0 -27 5 -38 16s-16 24 -16 39c0 16 5 29 15 39
c11 10 24 15 39 15s28 -5 39 -16c11 -10 17 -23 17 -37c0 -15 -6 -28 -17 -39s-24 -17 -39 -17z" />
    <glyph glyph-name="afii10054" unicode="&#x405;" horiz-adv-x="536" 
d="M80 141c14 -23 29 -43 45 -59c16 -17 35 -30 56 -39s45 -13 72 -13c43 0 79 15 107 46c28 30 42 67 42 110c0 44 -14 76 -42 97s-70 43 -125 65s-97 46 -126 73c-28 26 -43 66 -43 119c-1 67 23 118 68 153s102 53 170 53c64 0 115 -17 155 -51c-5 -11 -15 -40 -30 -88
h-11c-11 31 -28 54 -51 70s-50 24 -82 24c-37 0 -69 -11 -96 -35c-26 -23 -39 -54 -39 -91c0 -43 14 -75 41 -96s69 -42 125 -63c56 -22 99 -46 128 -71c29 -26 44 -65 44 -116c0 -49 -12 -93 -35 -130c-24 -38 -56 -67 -96 -86s-85 -29 -134 -29c-28 0 -60 6 -95 17
c-36 12 -63 27 -80 45c9 27 16 59 21 95h11z" />
    <glyph glyph-name="afii10102" unicode="&#x455;" horiz-adv-x="417" 
d="M77 101c14 -23 32 -42 55 -57c22 -15 45 -23 68 -23c26 0 50 10 71 29c22 19 33 42 33 69c0 33 -10 55 -29 66s-51 23 -94 34c-44 13 -77 30 -98 49c-21 18 -32 48 -32 89c0 49 17 88 50 117c33 28 75 42 125 42c52 0 93 -9 123 -29c-9 -19 -18 -44 -27 -75h-9
c-7 19 -20 36 -37 50c-18 14 -36 21 -55 21c-27 0 -50 -8 -69 -23c-19 -16 -29 -38 -29 -67c0 -30 9 -51 27 -62c18 -12 49 -25 94 -40s78 -31 99 -49c22 -18 33 -46 33 -85c0 -53 -20 -94 -60 -124s-86 -45 -137 -45c-50 0 -95 11 -135 34c5 13 10 27 15 42s8 27 9 37h9z
" />
    <glyph glyph-name="afii10104" unicode="&#x457;" horiz-adv-x="298" 
d="M192 -3c-6 0 -12 1 -17 2c-5 0 -9 0 -12 1h-14h-23c-6 -1 -13 -2 -20 -3l-1 512h21c8 -1 16 -2 23 -4c7 1 14 2 22 3s15 1 21 1v-512zM205 639c0 13 5 25 15 35s21 15 34 15s25 -5 34 -14c10 -10 15 -22 15 -36c0 -13 -5 -24 -15 -34s-21 -15 -34 -15s-24 5 -34 15
s-15 21 -15 34zM-5 639c0 12 5 24 14 35c10 10 22 15 35 15s25 -5 35 -15s15 -22 15 -35s-5 -24 -15 -34s-22 -15 -35 -15s-24 5 -34 15s-15 21 -15 34z" />
    <glyph glyph-name="afii10017" unicode="&#x410;" horiz-adv-x="695" 
d="M688 -3c-7 0 -14 1 -21 2c-7 0 -13 0 -17 1h-18h-31c-8 -1 -17 -2 -26 -2c-43 119 -80 215 -112 288h-273c-25 -63 -46 -116 -62 -160s-31 -87 -44 -130c-7 1 -13 2 -19 3s-13 1 -21 1h-21c-5 -1 -11 -2 -17 -3l335 749h25zM327 605l-116 -274h236z" />
    <glyph glyph-name="afii10018" unicode="&#x411;" horiz-adv-x="636" 
d="M98 730l434 -1c-3 -7 -4 -17 -4 -30c0 -10 1 -21 3 -32c-39 7 -71 10 -96 10l-129 2h-114v-270l98 1c104 1 178 -15 222 -44s66 -77 68 -143c0 -64 -23 -116 -67 -155c-43 -39 -101 -62 -175 -67c-32 -2 -71 -1 -116 -1c-46 1 -87 0 -124 0v730zM192 44h107
c51 0 94 17 128 51s51 75 51 123c0 39 -11 72 -34 101c-23 28 -55 44 -96 48c-15 1 -39 2 -72 2c-32 0 -60 0 -84 -1v-324z" />
    <glyph glyph-name="afii10019" unicode="&#x412;" horiz-adv-x="636" 
d="M97 0v730h216c81 0 141 -11 180 -33s58 -60 58 -114c0 -48 -16 -89 -48 -122s-72 -56 -121 -68c51 -3 97 -18 136 -45c40 -27 60 -68 60 -125c0 -75 -32 -135 -95 -180c-29 -20 -60 -32 -93 -37c-33 -4 -78 -6 -135 -6h-158zM191 408c48 0 85 0 110 3c24 1 49 8 74 19
c55 25 83 68 83 129c0 49 -15 83 -45 102c-31 20 -77 30 -138 30h-84v-283zM190 39l108 -2c53 0 96 17 129 49c33 31 50 71 50 120c0 60 -19 102 -56 125c-38 24 -93 36 -166 36h-65v-328z" />
    <glyph glyph-name="afii10020" unicode="&#x413;" horiz-adv-x="516" 
d="M97 730h380v-14c-1 -6 -2 -12 -3 -17c0 -2 1 -13 3 -33c-27 5 -59 10 -96 11l-108 2h-82v-681c-24 1 -40 2 -47 2c-11 0 -27 -1 -47 -2v732z" />
    <glyph glyph-name="afii10021" unicode="&#x414;" horiz-adv-x="716" 
d="M43 51c16 35 40 88 71 158s63 143 97 220c33 77 59 138 78 184s35 85 47 117l51 1c9 -22 24 -58 45 -107s46 -110 76 -183s61 -148 94 -225s56 -132 69 -165h47c-2 -12 -3 -26 -3 -42c0 -24 1 -42 3 -54l-10 -1c-13 21 -35 34 -64 39c-30 5 -80 7 -151 7h-260
c-71 0 -122 -1 -154 -6c-31 -4 -56 -18 -75 -39h-7c2 11 3 29 3 54c0 4 -1 18 -3 42h46zM570 51c-25 62 -56 139 -93 232c-37 92 -66 163 -86 212s-36 89 -48 119l-4 1c-49 -109 -91 -205 -125 -288s-68 -175 -103 -276h459z" />
    <glyph glyph-name="afii10022" unicode="&#x415;" horiz-adv-x="536" 
d="M190 410h166c11 0 22 0 35 2c12 0 23 1 34 2c10 1 19 2 27 2c-2 -18 -3 -27 -4 -28c1 -4 2 -9 3 -14c1 -6 1 -11 1 -15l-48 3s-32 2 -48 2h-166v-314c22 -1 87 1 194 4c31 1 64 4 99 11v-16c-1 -6 -2 -12 -4 -17c1 -5 2 -11 3 -17s1 -11 1 -15h-387v730h380v-14
c-1 -6 -2 -12 -3 -17c0 -2 1 -13 3 -33c-27 5 -59 10 -96 11l-108 2h-82v-269z" />
    <glyph glyph-name="afii10024" unicode="&#x416;" horiz-adv-x="954" 
d="M524 730v-332c0 -7 8 -5 24 8c6 4 21 19 43 43c24 26 59 68 110 126c49 56 83 92 98 109c16 18 28 33 38 46h20c8 -1 16 -2 23 -4c7 1 14 2 22 3s15 1 20 1l-305 -325c25 -29 67 -81 126 -157c59 -75 102 -129 127 -162c26 -34 48 -62 65 -84l1 -5c-21 2 -41 3 -60 3
c-21 0 -41 -1 -59 -2c-20 27 -41 55 -62 84c-22 29 -58 78 -108 146c-51 68 -86 115 -105 139c0 3 -3 5 -9 6s-9 0 -9 -2v-374c-18 2 -34 3 -49 3c-8 0 -23 -1 -45 -3v374c0 2 -3 3 -9 3c-6 -1 -9 -3 -8 -5c-19 -25 -54 -72 -104 -141c-51 -68 -85 -114 -103 -139
c-17 -24 -41 -55 -68 -92h-20c-8 1 -14 2 -18 3h-21h-19s-10 -1 -18 -2s-16 -1 -23 -1l1 5c17 22 43 56 78 101c35 46 78 100 128 163s87 109 112 138l-306 326h20c8 -1 15 -2 22 -4c7 1 15 2 23 3s15 1 20 1c45 -51 102 -116 171 -194s108 -122 118 -131
c16 -11 24 -13 24 -6l-1 331h24c9 -1 17 -2 24 -4c9 1 18 2 28 3s16 1 19 1z" />
    <glyph glyph-name="afii10025" unicode="&#x417;" horiz-adv-x="655" 
d="M53 678c18 16 45 32 82 47c36 14 82 21 137 21c76 0 139 -16 190 -47s76 -75 76 -132c0 -43 -15 -80 -44 -112c-29 -31 -71 -53 -127 -66c63 -4 114 -22 153 -55c39 -32 59 -75 59 -129c0 -72 -29 -127 -88 -164c-59 -38 -137 -57 -234 -57c-33 0 -70 6 -110 18
c-40 11 -73 24 -100 39c3 8 9 31 17 70l8 4c18 -25 45 -46 82 -63s72 -26 106 -26c69 0 121 15 156 45c35 31 53 75 55 133c0 49 -18 88 -52 117c-33 29 -78 44 -137 44c-13 0 -45 -1 -96 -4c3 5 5 13 5 24c0 7 -2 14 -5 22c32 -1 60 -2 83 -2c54 0 95 14 122 43
c27 28 41 65 41 110c0 43 -15 78 -45 106c-29 27 -69 42 -120 42c-43 0 -79 -8 -109 -23c-30 -16 -51 -37 -63 -62l-7 -3z" />
    <glyph glyph-name="afii10026" unicode="&#x418;" horiz-adv-x="835" 
d="M97 730c6 -2 22 -3 47 -3c3 0 19 1 47 3v-560h11l488 560h47v-733c-20 2 -36 3 -47 3c-10 0 -26 -1 -48 -3v586h-10l-448 -521c-33 -38 -51 -60 -55 -65h-32v733z" />
    <glyph glyph-name="afii10027" unicode="&#x419;" horiz-adv-x="835" 
d="M97 730c10 -2 26 -3 47 -3s37 1 47 3v-560h11l488 560h47v-733c-20 2 -36 3 -47 3c-10 0 -26 -1 -48 -3v586h-10c-36 -42 -101 -118 -197 -229c-94 -110 -168 -196 -221 -258c-53 -61 -81 -94 -85 -99h-32v733zM642 820c-67 -41 -141 -62 -222 -62c-79 0 -152 20 -220 61
l28 43c55 -35 119 -53 191 -53c73 0 139 18 198 53z" />
    <glyph glyph-name="afii10028" unicode="&#x41a;" horiz-adv-x="655" 
d="M380 497l-93 -93c29 -33 75 -84 139 -154c63 -70 104 -116 123 -140l87 -108v-6c-10 1 -19 2 -27 3s-19 1 -32 1h-33c-8 -1 -17 -2 -26 -3c-33 46 -58 79 -75 98l-234 273c-2 3 -6 4 -11 5s-7 0 -7 -2v-375c-6 1 -12 2 -19 3c-6 0 -11 0 -14 1h-14h-26
c-6 -1 -13 -2 -21 -3v733h21c9 -1 18 -2 26 -4c7 1 15 2 24 3s17 1 23 1l1 -331c1 -8 10 -6 24 7c10 7 30 24 58 52l263 272h21c9 -1 17 -2 24 -4l21 3c8 1 15 1 20 1z" />
    <glyph glyph-name="afii10029" unicode="&#x41b;" horiz-adv-x="695" 
d="M85 -3h-14c-5 1 -9 2 -13 3h-13h-12s-7 -1 -12 -2s-10 -1 -15 -1c15 29 45 95 91 197s93 209 141 321s77 184 87 215c18 -2 35 -2 50 0c19 -47 44 -108 76 -183c31 -75 75 -180 133 -316c57 -135 91 -213 102 -234h-18c-7 1 -12 2 -16 3h-17h-16c-4 0 -9 -1 -16 -2
s-14 -1 -20 -1c-9 25 -28 72 -55 141c-28 70 -50 125 -65 165c-16 40 -39 96 -67 167c-29 72 -47 120 -57 144h-8c-113 -255 -195 -461 -246 -617z" />
    <glyph glyph-name="afii10030" unicode="&#x41c;" horiz-adv-x="954" 
d="M817 730c9 -88 17 -159 23 -213s11 -102 15 -144c5 -43 13 -107 24 -193c11 -85 19 -146 24 -183h-19c-7 1 -12 2 -16 3h-15h-27c-7 -1 -15 -2 -24 -3c-8 100 -14 180 -21 240c-5 59 -11 116 -17 172c-6 55 -12 102 -17 141c-132 -236 -225 -416 -280 -541h-12l-59 120
c-23 47 -48 97 -75 150c-28 53 -52 100 -73 141s-44 84 -69 130c-13 -115 -23 -196 -28 -243c-6 -48 -11 -101 -16 -160s-8 -109 -8 -151c-7 1 -13 2 -18 3s-12 1 -20 1c-6 0 -10 0 -12 -1h-12s-10 -1 -15 -2c6 32 16 90 28 173c13 84 23 159 32 224s18 131 27 198
s14 113 16 138l27 1c61 -120 114 -222 159 -305c44 -83 93 -169 146 -258c61 112 119 218 173 317s99 181 135 245h24z" />
    <glyph glyph-name="afii10031" unicode="&#x41d;" horiz-adv-x="835" 
d="M642 730h21c10 -1 19 -2 26 -4c8 1 17 2 27 3c9 1 16 1 21 1v-734c-8 1 -15 2 -22 3s-15 1 -25 1h-27c-6 -1 -13 -2 -21 -3v369c-125 3 -200 5 -225 5c-22 0 -97 -2 -226 -5v-370c-6 1 -12 2 -19 3c-6 0 -11 0 -14 1h-14h-26c-6 -1 -13 -2 -21 -3v733h21
c9 -1 18 -2 26 -4c7 1 15 2 24 3s17 1 23 1v-308c129 -3 204 -5 226 -5c25 0 100 2 225 5v308z" />
    <glyph glyph-name="afii10032" unicode="&#x41e;" horiz-adv-x="893" 
d="M45 364c-1 76 17 143 52 201s83 103 144 134c60 31 127 47 201 47c70 0 136 -13 198 -41c62 -26 113 -66 151 -121c39 -56 57 -124 57 -204c0 -119 -38 -215 -114 -288c-76 -72 -174 -108 -294 -110c-77 0 -146 17 -206 49c-60 31 -107 75 -139 132
c-33 58 -50 125 -50 201zM674 607c-26 33 -58 59 -97 77s-81 27 -125 27c-61 0 -115 -14 -162 -44c-46 -29 -81 -73 -105 -128s-36 -118 -36 -187c0 -105 28 -187 84 -246c56 -58 126 -87 209 -87c69 0 127 20 172 60c47 40 82 88 104 144c20 56 26 105 23 148
c-2 50 -4 93 -11 130c-9 37 -29 72 -56 106z" />
    <glyph glyph-name="afii10033" unicode="&#x41f;" horiz-adv-x="835" 
d="M737 730v-734c-8 1 -15 2 -22 3s-15 1 -25 1h-27c-6 -1 -13 -2 -21 -3v679c-75 2 -150 3 -226 3c-73 0 -148 -1 -225 -3v-680c-6 1 -12 2 -19 3c-6 0 -11 0 -14 1h-14h-26c-6 -1 -13 -2 -21 -3v733h640z" />
    <glyph glyph-name="afii10034" unicode="&#x420;" horiz-adv-x="616" 
d="M191 -3c-6 0 -12 1 -19 2c-6 0 -11 0 -14 1h-14h-26c-6 -1 -13 -2 -21 -3v733h191c71 0 126 -6 166 -17s69 -30 86 -55c17 -26 26 -61 26 -104c0 -63 -19 -111 -56 -143c-37 -34 -95 -60 -174 -75c-18 -3 -33 -5 -45 -7c-12 0 -31 2 -55 3c-25 1 -40 2 -45 2v-337z
M191 374c30 -3 65 -3 106 0c53 6 95 25 125 57c30 31 45 70 45 116c0 39 -10 71 -31 96s-51 40 -90 44c-48 4 -100 4 -155 1v-314z" />
    <glyph glyph-name="afii10035" unicode="&#x421;" horiz-adv-x="716" 
d="M655 45c-61 -41 -140 -61 -237 -63c-78 0 -145 17 -201 48c-57 31 -101 76 -132 135c-30 58 -45 126 -45 203c0 78 18 146 52 204c36 57 86 100 147 129c61 30 130 45 205 45c79 0 156 -16 230 -49c-9 -25 -16 -52 -21 -82l-8 -1c-13 18 -38 38 -75 59
c-37 22 -80 33 -128 33c-95 0 -168 -33 -219 -98c-51 -66 -77 -147 -77 -244c0 -68 12 -127 36 -179c24 -51 58 -90 101 -117c43 -28 93 -42 150 -42c51 0 97 10 137 30s70 39 90 57z" />
    <glyph glyph-name="afii10036" unicode="&#x422;" 
d="M351 -3c-17 2 -33 3 -48 3c-16 0 -32 -1 -47 -3v681c-74 0 -152 -4 -235 -12c2 20 3 31 3 32v18c-1 4 -2 9 -3 14h554v-14c-1 -6 -2 -12 -3 -17c0 -2 1 -13 3 -33c-72 8 -147 12 -224 12v-681z" />
    <glyph glyph-name="afii10037" unicode="&#x423;" horiz-adv-x="695" 
d="M617 730c11 -2 23 -3 36 -4c6 1 13 2 20 3c8 1 14 1 19 1c-8 -13 -27 -48 -55 -104c-30 -57 -66 -125 -109 -204c-41 -79 -82 -163 -125 -251c-44 -88 -72 -146 -85 -174c-18 2 -29 3 -34 3c-18 0 -34 -1 -49 -3c25 39 50 80 75 123c25 44 43 77 55 98
c-13 19 -30 43 -51 72c-21 30 -53 77 -95 140c-44 64 -88 127 -132 190c-43 62 -71 99 -81 110c32 -2 54 -3 67 -3c3 0 22 1 58 3c36 -59 80 -127 132 -204c52 -78 100 -146 144 -204l12 -1c13 25 44 87 93 186s84 173 105 223z" />
    <glyph glyph-name="afii10038" unicode="&#x424;" horiz-adv-x="954" 
d="M429 60c-79 0 -148 14 -206 41s-102 64 -133 112c-30 47 -45 99 -45 156c0 90 34 163 102 220s162 85 282 85v56c9 -2 25 -3 46 -3s37 1 48 3v-56c121 0 215 -28 282 -85c68 -57 102 -130 102 -220c0 -58 -15 -110 -46 -157c-30 -47 -74 -84 -132 -111s-127 -41 -206 -41
v-63c-10 2 -26 3 -47 3s-37 -1 -47 -3v63zM429 100v539c-87 0 -154 -26 -204 -78c-49 -51 -75 -115 -76 -191c0 -51 12 -97 35 -138s56 -72 99 -96c42 -23 91 -36 146 -36zM523 639v-539c55 0 104 12 146 35c42 24 75 56 98 96c23 41 35 87 35 138c0 47 -12 92 -34 132
c-23 42 -54 76 -95 101c-42 25 -92 37 -150 37z" />
    <glyph glyph-name="afii10039" unicode="&#x425;" horiz-adv-x="655" 
d="M287 366c-20 34 -40 67 -59 101c-20 33 -41 67 -64 102l-107 161h27c12 -1 23 -2 32 -4c9 1 19 2 30 3s20 1 27 1c15 -23 34 -54 56 -92l113 -195c10 16 24 37 41 62c17 26 34 51 50 76s33 52 50 80c17 29 30 52 39 69h18c8 -1 15 -2 21 -4c7 1 14 2 22 3s14 1 20 1
c-7 -6 -13 -13 -19 -21l-165 -228l-52 -80l249 -404h-22c-8 1 -14 2 -18 3h-20h-31c-8 -1 -17 -2 -26 -4c-57 111 -119 220 -186 327c-66 -97 -131 -206 -195 -326h-15c-5 1 -9 2 -12 3h-13h-21c-6 -1 -12 -2 -19 -3c23 33 47 68 72 104s44 64 58 85z" />
    <glyph glyph-name="afii10040" unicode="&#x426;" horiz-adv-x="835" 
d="M732 51h60c-1 -4 -2 -10 -2 -18c0 -7 -1 -15 -3 -25c1 -11 2 -21 2 -30s1 -17 2 -23l-9 -1c-13 21 -35 34 -64 39c-30 5 -80 7 -150 7h-156c-149 0 -254 -1 -315 -3l-1 737c19 -3 35 -4 48 -4c10 0 26 1 47 4v-682c141 -1 290 -1 446 0v682c16 -3 32 -4 47 -4
c11 0 27 1 48 4v-683z" />
    <glyph glyph-name="afii10041" unicode="&#x427;" horiz-adv-x="774" 
d="M583 730h22c9 -1 17 -2 23 -4c8 1 17 2 27 3c9 1 16 1 21 1v-734c-8 1 -15 2 -22 3s-15 1 -25 1h-25c-6 -1 -13 -2 -21 -3v369c-89 -45 -178 -68 -267 -68c-35 0 -71 6 -108 18c-37 13 -68 32 -93 57s-37 56 -37 93v264h21c9 -1 17 -2 24 -4c8 1 17 2 27 3c9 1 16 1 21 1
v-264c0 -38 19 -67 56 -85c38 -19 82 -27 131 -27c34 0 73 7 118 21s81 30 107 47v308z" />
    <glyph glyph-name="afii10042" unicode="&#x428;" horiz-adv-x="954" 
d="M429 52v682c20 -3 36 -4 46 -4c21 0 37 1 48 4v-682c80 -1 159 -1 238 0v682c20 -3 36 -4 47 -4s27 1 48 4v-737c-52 2 -179 3 -380 3c-189 0 -315 -1 -379 -3l-1 737c19 -3 35 -4 47 -4c9 0 25 1 48 4v-682c79 -1 158 -1 238 0z" />
    <glyph glyph-name="afii10043" unicode="&#x429;" horiz-adv-x="954" 
d="M854 51h60c-1 -4 -2 -10 -2 -18c0 -7 -1 -15 -3 -25c1 -11 2 -21 2 -30s1 -17 2 -23l-9 -1c-13 20 -35 33 -64 38c-30 5 -80 8 -150 8h-90s-72 1 -123 1c-232 -1 -359 -3 -380 -4l-1 737c19 -3 35 -4 48 -4c10 0 26 1 47 4v-682c79 -1 158 -1 236 0v682
c21 -3 37 -4 48 -4s27 1 47 4v-682c106 -2 185 -2 237 0v682c16 -3 32 -4 47 -4c11 0 27 1 48 4v-683z" />
    <glyph glyph-name="afii10044" unicode="&#x42a;" horiz-adv-x="616" 
d="M202 730v-331h97c71 0 126 -6 165 -17c40 -11 69 -30 86 -55c17 -26 26 -61 26 -105c0 -63 -19 -111 -57 -144c-38 -34 -95 -59 -172 -74c-20 -4 -56 -5 -108 -4s-96 0 -132 0v677c-41 0 -79 -4 -114 -11c2 10 3 21 3 33c0 11 -1 21 -3 31c106 -1 176 -1 209 0zM202 44
h105c53 5 95 23 125 54s45 71 45 120c0 39 -10 71 -30 96s-50 39 -92 42c-15 1 -38 2 -69 2c-32 0 -60 0 -84 -1v-313z" />
    <glyph glyph-name="afii10045" unicode="&#x42b;" horiz-adv-x="854" 
d="M191 399h97c71 0 126 -6 166 -17s69 -30 86 -56s26 -60 26 -103c0 -64 -19 -113 -56 -148s-95 -59 -173 -71c-15 -2 -50 -3 -105 -4h-135v730h21c9 -1 18 -2 26 -4c7 1 15 2 24 3s17 1 23 1v-331zM662 730c15 -2 31 -3 47 -3c21 0 37 1 48 3v-734c-8 1 -15 2 -22 3
s-15 1 -24 1h-27c-7 -1 -14 -2 -22 -3v733zM191 44h106c34 0 64 12 90 28c26 15 46 35 59 60c14 25 21 54 21 86c0 39 -10 71 -31 96s-51 39 -90 42c-15 1 -39 2 -71 2s-60 0 -84 -1v-313z" />
    <glyph glyph-name="afii10046" unicode="&#x42c;" horiz-adv-x="616" 
d="M191 399h97c71 0 126 -6 166 -17s69 -30 86 -55c17 -26 26 -61 28 -104c0 -42 -10 -77 -28 -107c-17 -29 -42 -52 -75 -69c-34 -18 -77 -33 -129 -42c-20 -4 -56 -5 -107 -5c-52 1 -96 0 -132 0v730c15 -2 31 -3 47 -4c7 1 15 2 24 3s17 1 23 1v-331zM191 44h106
c34 0 64 12 90 28c26 15 46 35 59 60c14 25 21 54 21 86c0 39 -10 71 -31 96s-51 39 -90 42c-15 1 -39 2 -71 2s-60 0 -84 -1v-313z" />
    <glyph glyph-name="afii10047" unicode="&#x42d;" horiz-adv-x="716" 
d="M568 410c-7 86 -36 157 -87 212c-51 56 -120 84 -207 84c-47 0 -89 -11 -126 -32s-63 -41 -78 -60l-7 1c-11 43 -19 70 -24 82c77 33 154 49 231 49c76 0 145 -14 207 -44c61 -29 109 -74 144 -131s53 -125 53 -203c0 -77 -15 -145 -45 -203s-73 -103 -130 -134
s-124 -47 -202 -47c-97 0 -176 20 -237 61l-6 68c74 -58 150 -87 228 -87c57 0 107 14 150 41c43 28 77 67 102 118c24 51 36 111 36 179h-300h-24s-12 0 -19 -1c-8 0 -17 -2 -26 -2c-9 -1 -18 -2 -27 -4c0 5 1 11 2 18s2 11 2 12v11l-3 9c-1 2 -1 5 -1 9h25
c6 0 13 -1 21 -1c7 -1 15 -2 24 -3s18 -2 26 -2h298z" />
    <glyph glyph-name="afii10048" unicode="&#x42e;" horiz-adv-x="1132" 
d="M288 366c-30 3 -62 3 -97 0v-370c-8 1 -15 2 -22 3s-15 1 -25 1h-26c-6 -1 -13 -2 -21 -3v733c13 -2 29 -3 46 -3c15 0 31 1 48 3v-308c35 -3 68 -3 100 0c14 100 58 179 131 237s161 87 263 87c70 0 136 -13 199 -41c62 -26 113 -66 151 -121c39 -56 57 -124 57 -204
c0 -119 -38 -215 -114 -288c-76 -72 -174 -108 -294 -109c-77 0 -146 16 -206 47s-107 76 -140 134s-50 125 -50 200v2zM918 607c-26 33 -58 59 -97 77s-81 27 -126 27c-61 0 -115 -14 -162 -44c-46 -29 -81 -73 -105 -128s-36 -118 -36 -187c0 -105 28 -187 84 -246
c56 -58 126 -87 208 -87c69 0 127 20 174 60s81 87 101 142s28 105 27 149c-1 50 -4 94 -14 132c-9 37 -28 72 -54 105z" />
    <glyph glyph-name="afii10049" unicode="&#x42f;" horiz-adv-x="655" 
d="M558 -3h-17c-6 1 -11 2 -15 3h-15c-6 0 -11 0 -14 -1h-14s-12 -1 -18 -2v358h-42l-85 -101l-126 -164c-24 -31 -46 -62 -68 -93h-22c-8 1 -14 2 -18 3h-20c-9 0 -16 0 -21 -1h-19s-16 -1 -24 -2l20 26l52 61l222 280c-63 11 -115 34 -157 68s-63 79 -63 136
c0 108 79 162 238 162h226v-733zM466 691c-78 4 -131 4 -159 -1c-78 -13 -117 -59 -117 -136c0 -40 13 -73 39 -100s59 -45 98 -53c26 -5 53 -7 82 -7s48 1 57 2v295z" />
    <glyph glyph-name="afii10065" unicode="&#x430;" horiz-adv-x="536" 
d="M443 87c0 -17 1 -30 3 -37c1 -8 6 -13 15 -16s23 -2 42 3v-22c-18 -7 -29 -11 -32 -12c-67 -11 -104 10 -111 63l-9 -11c-47 -45 -100 -67 -159 -67c-39 0 -73 12 -102 36c-28 24 -42 56 -42 95c0 37 9 66 27 87s41 36 70 45s63 16 102 22c47 7 78 15 93 23s22 25 22 50
c0 39 -11 70 -33 92s-53 33 -94 33c-33 0 -61 -8 -85 -25c-23 -17 -37 -33 -42 -49h-11l1 60c57 39 114 59 171 59c116 0 174 -60 174 -180v-249zM357 264l-37 -9c-62 -15 -109 -24 -138 -37c-30 -13 -45 -41 -45 -84c0 -67 35 -100 104 -100c15 0 30 4 45 11s29 17 43 30
c6 5 12 11 19 18c6 7 9 12 9 14v157z" />
    <glyph glyph-name="afii10066" unicode="&#x431;" 
d="M313 516c75 0 135 -24 180 -71c46 -47 69 -111 69 -190c0 -47 -11 -91 -30 -131c-21 -41 -51 -74 -92 -99c-40 -25 -89 -37 -146 -37c-47 0 -91 10 -133 33c-40 22 -70 55 -91 95c-22 41 -31 88 -29 141c1 103 7 185 20 245c15 60 42 107 79 140c36 33 85 56 147 69
s143 19 244 19c-2 -18 -3 -29 -3 -33c0 -11 1 -21 3 -31c-48 7 -102 10 -163 10c-51 0 -95 -9 -132 -28s-65 -45 -84 -78c-19 -34 -29 -72 -29 -114c48 40 111 60 190 60zM136 241c0 -60 14 -112 41 -155s69 -65 126 -65c55 0 97 26 124 78c28 52 42 105 42 160
c0 37 -6 72 -16 105c-11 34 -27 62 -50 85c-24 23 -54 34 -90 34c-43 0 -78 -12 -104 -35s-45 -53 -56 -89s-17 -75 -17 -118z" />
    <glyph glyph-name="afii10067" unicode="&#x432;" horiz-adv-x="536" 
d="M83 0v506h205c119 0 179 -41 179 -124c0 -30 -10 -54 -31 -73c-20 -19 -48 -31 -83 -36c45 -7 81 -20 106 -39c26 -19 39 -50 39 -94s-18 -79 -55 -102c-37 -25 -80 -39 -130 -39zM168 41h111c35 0 64 9 87 27s34 42 34 71c0 39 -10 67 -29 84c-20 17 -50 26 -91 26h-112
v-208zM168 288h101c69 0 103 31 103 92c0 57 -33 85 -99 85h-105v-177z" />
    <glyph glyph-name="afii10068" unicode="&#x433;" horiz-adv-x="436" 
d="M168 -3c-6 0 -11 1 -17 2c-5 0 -9 0 -12 1h-14h-22c-6 -1 -13 -2 -20 -3v509l340 1c-1 -15 -2 -25 -2 -30c0 -7 1 -16 2 -28c-26 5 -57 8 -93 9c-35 1 -89 2 -162 2v-463z" />
    <glyph glyph-name="afii10069" unicode="&#x434;" horiz-adv-x="536" 
d="M47 48c38 81 74 160 107 237s62 151 87 223h16c6 -1 11 -2 16 -4l18 3c7 1 12 1 16 1c53 -143 115 -296 186 -460h40c-1 -15 -2 -28 -2 -39c0 -20 1 -33 2 -40h-8c-16 13 -37 22 -62 25c-26 4 -64 6 -114 6h-160c-50 0 -88 -2 -114 -5c-25 -3 -46 -12 -63 -26h-9
c2 7 3 20 3 40c0 15 -1 28 -3 39h44zM405 48c-30 95 -78 215 -143 360h-7c-15 -33 -38 -88 -69 -165s-56 -142 -75 -195h294z" />
    <glyph glyph-name="afii10070" unicode="&#x435;" horiz-adv-x="536" 
d="M475 51c-60 -42 -122 -64 -184 -64c-75 -1 -136 24 -183 72c-47 47 -71 111 -71 194c0 77 22 140 65 189c44 49 104 74 181 74c41 0 79 -10 113 -29c35 -20 62 -49 81 -88s27 -88 24 -146c-74 2 -147 3 -218 3l-151 1c-5 -63 9 -116 42 -159s81 -65 144 -65
c54 0 107 25 158 74zM417 296c-2 125 -47 187 -134 188c-47 0 -83 -19 -109 -56c-25 -37 -39 -81 -42 -132h285z" />
    <glyph glyph-name="afii10072" unicode="&#x436;" horiz-adv-x="774" 
d="M387 506c14 0 28 1 43 3v-187c0 -22 2 -34 5 -36s27 19 72 64l67 67l83 92c13 -2 28 -3 43 -3c13 0 27 1 42 3v-6c-19 -17 -39 -34 -59 -51s-46 -40 -79 -68c-32 -28 -65 -58 -99 -89c20 -22 39 -43 56 -62c17 -20 38 -45 63 -74s47 -54 65 -76c18 -21 41 -48 69 -81v-6
c-9 1 -18 2 -28 3s-18 1 -24 1h-25c-10 -1 -20 -2 -29 -3c-7 10 -26 33 -57 70c-30 36 -58 69 -85 100c-26 30 -47 54 -62 71c-11 13 -17 19 -18 17v-39v-220c-7 1 -14 2 -20 3s-14 1 -23 1h-14c-3 0 -7 -1 -12 -2c-6 -1 -12 -1 -17 -1v219c0 25 0 38 -1 39
c0 1 -5 -5 -15 -17c-106 -120 -175 -200 -206 -242c-9 1 -18 2 -28 3s-18 1 -25 1h-24c-10 -1 -20 -2 -29 -3v5c26 30 49 56 68 78c20 23 46 54 79 92c33 39 68 80 105 122c-34 33 -77 72 -130 118c-53 45 -88 75 -106 90v7h20c8 -1 15 -2 22 -3c15 0 29 1 43 3l84 -92
l67 -67c45 -45 68 -66 71 -64s5 14 5 36v187c14 -2 28 -3 43 -3z" />
    <glyph glyph-name="afii10073" unicode="&#x437;" horiz-adv-x="476" 
d="M288 272c40 -4 74 -17 101 -38s40 -53 40 -96c0 -48 -22 -85 -65 -111s-93 -39 -151 -39c-73 0 -129 11 -169 34c5 13 10 27 15 42s8 27 9 37h9c27 -53 73 -80 137 -82c34 0 62 12 85 34c23 21 34 48 34 80c0 25 -5 46 -14 62c-10 17 -25 30 -44 39s-40 14 -63 14
c-14 0 -39 -1 -75 -2v45c20 -1 45 -2 74 -2c27 0 49 9 66 27c17 19 25 42 25 68c0 29 -9 53 -27 72c-17 18 -40 27 -68 27c-55 0 -92 -24 -111 -71h-10c-6 26 -15 51 -26 76c31 19 83 28 156 28c50 0 93 -11 128 -34c35 -22 53 -54 53 -97c0 -30 -10 -55 -30 -75
s-46 -33 -79 -38z" />
    <glyph glyph-name="afii10074" unicode="&#x438;" 
d="M471 509h43v-513c-7 1 -14 2 -20 3s-14 1 -23 1h-16c-3 0 -7 -1 -13 -2c-5 -1 -10 -1 -15 -1v373c-68 -77 -126 -145 -173 -203c-48 -58 -91 -115 -129 -170h-42v512c9 -2 23 -3 42 -3s33 1 43 3v-373c103 111 204 235 303 373z" />
    <glyph glyph-name="afii10075" unicode="&#x439;" 
d="M471 509h43v-513c-7 1 -14 2 -20 3s-14 1 -23 1c-14 0 -29 -1 -44 -3v373c-68 -77 -126 -145 -173 -203c-48 -58 -91 -115 -129 -170h-42v512c14 -2 28 -3 42 -3s28 1 43 3v-373c103 111 204 235 303 373zM478 608c-58 -34 -118 -51 -181 -51c-62 0 -122 17 -180 50
l21 36c46 -28 99 -42 159 -42s113 14 160 42z" />
    <glyph glyph-name="afii10076" unicode="&#x43a;" horiz-adv-x="536" 
d="M170 322c0 -7 0 -14 -1 -21c0 -7 2 -12 7 -15s12 -2 21 2c9 5 18 11 27 18c8 7 17 15 27 24c9 10 15 17 18 20l67 67l82 92h21c9 -1 17 -2 24 -4l21 3c8 1 15 1 20 1v-6c-19 -17 -39 -34 -59 -51s-46 -40 -79 -68c-32 -28 -65 -58 -99 -89c20 -22 39 -43 56 -62
c17 -20 38 -45 63 -74s47 -54 65 -76c18 -21 41 -48 69 -81l1 -6l-21 3c-7 0 -12 0 -15 1h-17h-30c-7 -1 -15 -2 -24 -3c-31 41 -99 121 -205 241c-26 29 -39 22 -39 -22v-219h-16c-6 1 -10 2 -13 3h-13h-23c-6 -1 -13 -2 -20 -3l-1 512h21c8 -1 16 -2 23 -4c7 1 14 2 22 3
s15 1 20 1v-187z" />
    <glyph glyph-name="afii10077" unicode="&#x43b;" horiz-adv-x="516" 
d="M81 -4c-22 2 -34 3 -34 3h-11c-3 0 -7 -1 -12 -2c-4 -1 -8 -1 -12 -2c99 207 172 378 219 513h15c6 -1 12 -2 17 -4l18 3s11 1 15 1c12 -31 26 -66 41 -105c16 -39 34 -84 53 -135c21 -51 41 -97 59 -137c17 -40 36 -85 58 -135h-18c-6 1 -11 2 -14 3h-17s-12 0 -15 -1
h-15c-6 0 -12 -1 -18 -1c-12 39 -25 78 -41 117c-14 39 -30 83 -49 132c-19 48 -42 102 -69 162c-8 -7 -23 -36 -45 -87l-40 -93z" />
    <glyph glyph-name="afii10078" unicode="&#x43c;" horiz-adv-x="716" 
d="M110 508c10 -1 19 -1 28 1c95 -185 170 -318 225 -400c31 55 68 123 111 204s77 146 102 195c10 -1 20 -1 29 1c13 -115 25 -214 35 -296c10 -83 19 -155 27 -216h-18c-6 1 -11 2 -15 3h-15s-12 0 -15 -1h-14s-12 -1 -18 -2c-6 124 -16 241 -29 350
c-27 -43 -58 -96 -93 -159s-68 -127 -100 -191c-8 1 -16 1 -25 -1c-69 135 -134 252 -195 351c-3 -23 -8 -61 -15 -114s-12 -97 -15 -132c-3 -34 -5 -69 -6 -104h-9c-3 1 -6 2 -7 3h-11s-8 0 -10 -1h-9s-8 -1 -12 -2c14 56 39 226 74 511z" />
    <glyph glyph-name="afii10079" unicode="&#x43d;" 
d="M427 293l-1 216h21c9 -1 17 -2 24 -3c14 0 28 1 43 3v-513c-7 1 -14 2 -20 3s-14 1 -23 1c-14 0 -29 -1 -44 -3v248c-13 1 -33 2 -59 3s-49 1 -69 1c-21 0 -45 1 -72 0c-26 0 -46 -2 -59 -3v-250c-7 1 -14 2 -20 3s-14 1 -23 1h-22c-6 -1 -13 -2 -20 -3v512
c13 -2 27 -3 42 -3s29 1 43 3v-216c13 -1 33 -2 59 -3s50 -2 71 -2s44 1 70 2s46 2 59 3z" />
    <glyph glyph-name="afii10080" unicode="&#x43e;" 
d="M313 516c75 0 135 -24 180 -71c46 -47 69 -111 69 -190c0 -47 -11 -91 -30 -131c-21 -41 -51 -74 -92 -99c-40 -25 -89 -37 -146 -37c-47 0 -91 10 -133 33c-40 22 -70 55 -91 95c-22 41 -30 88 -28 141c1 50 11 95 34 134s56 70 97 92c42 22 89 33 140 33zM136 241
c0 -60 14 -112 41 -155s69 -65 126 -65c55 0 97 26 124 78c28 52 42 105 42 160c0 37 -6 72 -16 105c-11 34 -27 62 -50 85c-24 23 -54 34 -90 34c-43 0 -78 -12 -104 -35s-45 -53 -56 -89s-17 -75 -17 -118z" />
    <glyph glyph-name="afii10081" unicode="&#x43f;" 
d="M514 508v-512c-7 1 -14 2 -20 3s-14 1 -23 1h-16c-3 0 -7 -1 -13 -2c-5 -1 -10 -1 -15 -1v462h-259v-462c-15 2 -29 3 -44 3h-21c-6 -1 -13 -2 -20 -3v511h90c38 -1 80 -2 126 -2c47 0 89 1 126 2h89z" />
    <glyph glyph-name="afii10082" unicode="&#x440;" 
d="M156 -278c-21 3 -35 4 -42 4c-10 0 -24 -1 -43 -4l-1 787h21c8 -1 16 -2 23 -4c7 1 14 2 22 3s15 1 20 1v-102l1 -1c17 32 38 59 63 80s65 32 120 32c44 0 82 -11 114 -34c33 -23 58 -53 75 -91c17 -37 26 -78 26 -123c0 -87 -20 -156 -63 -207c-42 -50 -99 -75 -168 -75
c-73 0 -128 34 -166 103h-2v-369zM315 33c51 0 88 22 111 65s35 99 35 169c0 59 -11 108 -33 147c-23 39 -61 59 -114 59c-56 0 -96 -24 -121 -72c-25 -47 -37 -101 -37 -162s13 -111 39 -149c27 -38 67 -57 120 -57z" />
    <glyph glyph-name="afii10083" unicode="&#x441;" horiz-adv-x="516" 
d="M460 401h-8c-13 18 -23 30 -30 35c-12 14 -27 26 -48 33c-20 7 -39 12 -57 12c-59 1 -105 -22 -137 -66c-32 -43 -48 -95 -48 -156c0 -68 18 -124 55 -169c36 -44 83 -66 140 -66c30 0 56 6 78 17c22 12 45 30 70 54l7 -4l-7 -50c-49 -35 -103 -53 -162 -53
c-87 0 -155 25 -204 75c-48 50 -72 114 -72 191c0 55 12 102 36 141s57 69 99 90c43 21 91 31 144 31c64 0 120 -15 169 -44z" />
    <glyph glyph-name="afii10084" unicode="&#x442;" horiz-adv-x="476" 
d="M281 -3c-6 0 -11 1 -17 2c-5 0 -9 0 -12 1h-14h-23c-6 -1 -12 -2 -19 -3v461c-80 0 -142 -3 -186 -9c1 5 2 9 3 13s1 9 1 15v16c-1 4 -2 8 -3 13l455 1c-1 -15 -2 -25 -2 -30c0 -7 1 -16 2 -28c-42 6 -104 9 -185 9v-461z" />
    <glyph glyph-name="afii10085" unicode="&#x443;" horiz-adv-x="536" 
d="M28 509h22c11 -1 21 -2 30 -4c8 1 17 2 26 3s17 1 24 1c15 -46 30 -90 46 -133c16 -42 33 -85 52 -130c19 -44 39 -89 61 -134c41 81 95 213 162 397c12 -2 24 -3 35 -3s22 1 34 3c-31 -70 -61 -137 -91 -202s-60 -130 -89 -196s-60 -136 -92 -211s-57 -134 -75 -178
c-17 3 -29 4 -36 4c-8 0 -20 -1 -36 -4c69 135 117 228 144 279z" />
    <glyph glyph-name="afii10086" unicode="&#x444;" horiz-adv-x="835" 
d="M374 -278v323c-26 -38 -65 -57 -116 -57c-45 0 -84 11 -117 32c-33 23 -57 57 -76 100c-17 42 -27 92 -27 150c-1 68 19 126 57 174c37 48 86 72 147 72c63 0 107 -18 132 -55v266c16 -2 30 -3 43 -3c16 0 30 1 43 3v-266c27 37 71 55 131 55c41 0 77 -11 108 -34
s55 -53 71 -90s24 -78 24 -122c0 -88 -19 -157 -58 -207s-92 -75 -160 -75c-50 0 -89 19 -116 57v-323c-14 3 -28 4 -43 4s-29 -1 -43 -4zM269 471c-44 0 -78 -20 -101 -61c-23 -40 -34 -89 -34 -147c0 -153 45 -230 135 -230c21 0 41 5 60 16c20 11 35 25 45 43
c6 105 6 210 0 315c-23 43 -58 64 -105 64zM461 407c-5 -105 -5 -210 0 -315c23 -39 59 -59 107 -59c47 0 81 21 102 63s32 98 32 167c0 59 -12 108 -35 148s-56 60 -101 60c-47 0 -82 -21 -105 -64z" />
    <glyph glyph-name="afii10087" unicode="&#x445;" horiz-adv-x="536" 
d="M31 509h25c11 -1 21 -2 29 -4c9 1 19 2 29 3s19 1 26 1c19 -33 42 -67 67 -103c26 -36 50 -68 72 -97l60 78l90 122h17c7 -1 14 -2 19 -4c6 1 13 2 20 3s13 1 18 1c-66 -70 -133 -147 -200 -230l201 -272v-10h-19c-7 1 -12 2 -16 3h-15h-18s-9 -1 -16 -2
c-6 -1 -12 -1 -17 -2c-43 71 -93 145 -151 222c-78 -106 -129 -180 -154 -222l-12 3c-4 0 -7 0 -9 1h-11h-12s-6 -1 -9 -2c-4 -1 -8 -1 -12 -1v10c54 67 118 148 193 243z" />
    <glyph glyph-name="afii10088" unicode="&#x446;" 
d="M83 0v509c24 -2 38 -3 42 -3c14 0 28 1 43 3v-461c13 0 31 0 54 -1c22 0 47 -1 73 -1c29 0 55 1 78 2h54v461c13 -2 28 -3 44 -3c3 0 17 1 43 3v-461h55c-1 -15 -2 -28 -2 -40c0 -13 1 -26 2 -39h-9c-17 15 -39 24 -65 27c-27 4 -64 4 -111 4h-301z" />
    <glyph glyph-name="afii10089" unicode="&#x447;" horiz-adv-x="556" 
d="M382 293v216c24 -2 38 -3 41 -3c15 0 30 1 45 3v-512h-15c-6 1 -11 2 -14 3h-15c-14 0 -28 -1 -42 -3v249c-52 -34 -108 -51 -167 -51c-36 0 -72 9 -108 28s-54 49 -54 90l-1 196h21c9 -1 17 -2 24 -4c7 1 15 2 23 3s14 1 19 1v-193c0 -49 36 -73 108 -73
c43 0 88 17 135 50z" />
    <glyph glyph-name="afii10090" unicode="&#x448;" horiz-adv-x="774" 
d="M344 48v461c8 -2 22 -3 43 -3c18 0 32 1 43 3v-461c9 0 22 -1 37 -1c16 -1 33 -1 52 -1s36 1 51 2h36v461c8 -2 22 -3 44 -3c19 0 33 1 42 3v-509h-609v509c9 -2 23 -3 42 -3s33 1 43 3l-1 -461c9 0 21 0 36 -1c14 0 30 -1 48 -1c20 0 38 1 55 2h38z" />
    <glyph glyph-name="afii10091" unicode="&#x449;" horiz-adv-x="774" 
d="M83 0v509c24 -2 38 -3 42 -3c15 0 29 1 43 3v-461c9 0 21 0 36 -1h52c19 0 36 0 52 1h36v461c10 -2 24 -3 43 -3c14 0 28 1 43 3v-461c9 0 22 -1 37 -1c16 -1 33 0 52 0s36 0 51 1h36v461c12 -2 26 -3 43 -4c7 1 15 2 24 3s15 1 19 1v-461h54c-1 -15 -2 -28 -2 -40
c0 -13 1 -26 2 -39h-7c-16 14 -37 23 -63 26s-64 5 -115 5h-478z" />
    <glyph glyph-name="afii10092" unicode="&#x44a;" horiz-adv-x="497" 
d="M169 506v-210h127c51 0 93 -12 126 -37s50 -62 50 -111c0 -27 -9 -52 -27 -74c-19 -23 -43 -41 -72 -54s-58 -20 -87 -20h-202v459c-41 0 -72 -3 -93 -8c3 8 4 17 4 27c0 13 -1 23 -4 30c28 -1 59 -2 93 -2h85zM169 45c15 -1 30 -2 46 -2s27 0 32 -1c35 0 66 10 93 29
s40 45 40 76c0 36 -11 63 -34 80s-51 26 -84 26h-93v-208z" />
    <glyph glyph-name="afii10093" unicode="&#x44b;" horiz-adv-x="695" 
d="M83 0v509c12 -2 27 -3 44 -3c15 0 29 1 41 3v-213h127c51 0 93 -13 126 -37c33 -25 50 -62 50 -111c0 -27 -9 -52 -27 -74c-19 -23 -43 -41 -72 -54s-58 -20 -87 -20h-202zM612 -3c-7 0 -13 1 -19 2s-14 1 -23 1h-24c-6 -1 -13 -2 -20 -3v512c13 -2 28 -3 44 -3
c15 0 29 1 42 3v-512zM168 44c8 -1 21 -2 38 -2c18 0 32 0 42 1c33 -1 63 7 90 26c27 20 41 46 41 77c0 36 -11 63 -34 80s-51 26 -84 26h-93v-208z" />
    <glyph glyph-name="afii10094" unicode="&#x44c;" horiz-adv-x="497" 
d="M83 0v509c11 -2 26 -3 44 -3c17 0 31 1 41 3v-213h127c51 0 93 -12 126 -37s50 -62 50 -111c0 -27 -9 -52 -27 -74c-19 -23 -43 -41 -72 -54s-58 -20 -87 -20h-202zM168 45c14 -1 29 -2 46 -2h33c35 -1 66 7 93 27c26 19 39 46 39 77c0 36 -11 63 -34 80s-51 26 -84 26
h-93v-208z" />
    <glyph glyph-name="afii10095" unicode="&#x44d;" horiz-adv-x="516" 
d="M386 288c-6 54 -24 100 -55 137s-74 55 -128 55c-47 0 -82 -15 -105 -44c-5 -4 -15 -16 -30 -35h-9l-26 71c49 29 106 44 171 44c53 0 100 -10 141 -30c42 -21 74 -51 97 -91c23 -39 35 -86 35 -141c0 -77 -23 -141 -69 -191c-47 -50 -114 -75 -200 -75
c-61 0 -116 18 -165 53l-6 50l7 4c27 -25 51 -43 72 -54s46 -18 76 -18c56 -1 102 21 138 62s55 96 57 164h-103h-68c-26 -1 -46 -2 -59 -3v47c13 -1 33 -2 58 -3c26 -1 49 -2 69 -2h102z" />
    <glyph glyph-name="afii10096" unicode="&#x44e;" horiz-adv-x="794" 
d="M236 245l-68 1v-250c-7 1 -15 2 -23 3s-15 1 -20 1h-19c-8 -1 -16 -2 -23 -3l-1 512h20c8 -1 16 -2 23 -4c7 1 15 2 23 3s15 1 20 1v-216h69c6 44 22 83 47 117s57 60 97 79c39 18 81 27 127 27c75 0 135 -24 180 -71c46 -47 69 -111 69 -190c0 -47 -10 -91 -30 -131
c-21 -41 -52 -74 -92 -99s-89 -37 -146 -37c-71 0 -131 24 -180 71s-73 109 -73 186zM331 241c0 -60 14 -112 41 -155c28 -43 70 -65 126 -65s97 26 124 79c27 52 40 105 40 159c0 59 -12 111 -37 156s-64 68 -118 68c-43 0 -77 -12 -103 -35s-45 -53 -56 -89
s-17 -75 -17 -118z" />
    <glyph glyph-name="afii10097" unicode="&#x44f;" horiz-adv-x="536" 
d="M454 -3c-4 0 -11 1 -20 2s-16 1 -22 1h-23c-9 -1 -16 -2 -21 -3v214h-79l-151 -215c-5 1 -12 2 -22 3s-19 1 -27 1h-27c-10 -1 -18 -2 -23 -3l162 217c-38 7 -73 22 -104 45c-32 23 -48 61 -48 113c0 39 14 71 42 96s62 38 101 38h262v-509zM369 463c-25 1 -67 1 -126 1
c-29 0 -54 -9 -75 -29c-20 -19 -30 -46 -30 -78c0 -70 61 -105 183 -105h48v211z" />
    <glyph glyph-name="minus" unicode="&#x2212;" horiz-adv-x="655" 
d="M380 497l-93 -93c29 -33 75 -84 139 -154c63 -70 104 -116 123 -140l87 -108v-6c-10 1 -19 2 -27 3s-19 1 -32 1h-33c-8 -1 -17 -2 -26 -3c-33 46 -58 79 -75 98l-234 273c-2 3 -6 4 -11 5s-7 0 -7 -2v-375c-6 1 -12 2 -19 3c-6 0 -11 0 -14 1h-14h-26
c-6 -1 -13 -2 -21 -3v733h21c9 -1 18 -2 26 -4c7 1 15 2 24 3s17 1 23 1l1 -331c1 -8 10 -6 24 7c10 7 30 24 58 52l263 272h21c9 -1 17 -2 24 -4l21 3c8 1 15 1 20 1z" />
    <glyph glyph-name="c128" 
d="M14 736h26c11 -1 21 -2 30 -4c9 1 19 2 29 3s19 1 25 1c19 -41 51 -105 96 -191s77 -144 94 -175c15 19 45 73 90 162c45 88 79 156 101 204h18c7 -1 14 -2 20 -4c7 1 14 2 22 3c7 1 13 1 18 1c-9 -13 -22 -34 -40 -63c-18 -28 -29 -45 -32 -50l-94 -165h110v-53h-141
c-17 -32 -30 -58 -39 -79v-39h180v-52h-180v-239l-21 3c-6 1 -14 1 -24 1h-15s-8 -1 -13 -2c-6 -1 -11 -1 -16 -1v238h-195v52h195v18l-57 100h-138v53h109z" />
    <glyph glyph-name="nbspace" horiz-adv-x="500" 
 />
    <glyph glyph-name="Euro" unicode="&#x20ac;" 
d="M548 572h-20c-11 75 -72 107 -149 107c-136 0 -184 -103 -199 -255h309l-15 -37h-296c-1 -9 -1 -23 -1 -32v-34h268l-15 -37h-250c12 -164 82 -257 200 -257c68 0 136 28 148 110h20l-7 -82c-28 -36 -79 -66 -178 -66c-164 0 -252 103 -268 295h-73l16 37h52
c-1 9 -1 25 -1 35c0 7 0 23 1 31h-68l16 37h55c21 181 89 294 270 294c105 0 155 -33 178 -61z" />
  </font>
</defs>
</svg>
