<?xml version="1.0" standalone="no"?>
<!DOCTYPE svg PUBLIC "-//W3C//DTD SVG 1.1//EN" "http://www.w3.org/Graphics/SVG/1.1/DTD/svg11.dtd" >
<svg xmlns="http://www.w3.org/2000/svg" xmlns:xlink="http://www.w3.org/1999/xlink" version="1.1">
<metadata>
Created by FontForge 20190801 at Sat Feb 19 00:33:30 2005
 By Jimmy Wärting
* !22! Soft 1993
</metadata>
<defs>
<font id="OptimalC-Italic" horiz-adv-x="593" >
  <font-face 
    font-family="OptimalC"
    font-weight="400"
    font-style="italic"
    font-stretch="normal"
    units-per-em="1000"
    panose-1="0 0 5 0 0 0 0 0 0 0"
    ascent="718"
    descent="-282"
    x-height="501"
    cap-height="726"
    bbox="-116 -281.373 1135 905"
    underline-thickness="50"
    underline-position="-100"
    slope="-12"
    stemh="42"
    stemv="92"
    unicode-range="U+0020-2212"
  />
<missing-glyph horiz-adv-x="280" 
 />
    <glyph glyph-name=".notdef" horiz-adv-x="280" 
 />
    <glyph glyph-name="space" unicode=" " horiz-adv-x="296" 
 />
    <glyph glyph-name="space" unicode="&#xa0;" horiz-adv-x="296" 
 />
    <glyph glyph-name="exclam" unicode="!" horiz-adv-x="355" 
d="M169 184h-21l48 451c3 32 10 58 18 77c9 20 25 30 50 30c26 0 40 -10 41 -31s-2 -46 -10 -76zM145 116c17 0 31 -6 41 -19s14 -28 11 -45c-4 -17 -14 -32 -29 -45s-31 -19 -48 -19s-31 6 -42 19c-10 13 -13 28 -10 45s12 32 27 45s32 19 50 19z" />
    <glyph glyph-name="quotedbl" unicode="&#x22;" horiz-adv-x="355" 
d="M162 477c-3 -43 -19 -64 -49 -64c-15 0 -24 5 -28 15c-3 10 0 26 5 49l36 180c6 28 9 50 16 64c8 14 20 21 36 21c28 0 30 -27 19 -85zM336 477c-9 -42 -21 -64 -47 -64c-17 0 -27 5 -32 15c-3 9 2 25 7 49l35 180c6 29 10 51 17 64c8 14 20 21 36 21c28 0 30 -27 19 -85
z" />
    <glyph glyph-name="numbersign" unicode="#" 
d="M517 230h-116l-78 -230h-62l78 230h-143l-80 -230h-62l80 230h-114l12 60h124l50 142h-118l12 59h126l75 217h61l-74 -217h142l73 217h62l-74 -217h104l-12 -59h-112l-49 -142h107zM268 432l-51 -142h143l49 142h-141z" />
    <glyph glyph-name="dollar" unicode="$" 
d="M341 408c18 -8 38 -16 59 -24c20 -8 38 -19 54 -31c16 -13 28 -31 37 -54s10 -49 4 -79c-12 -61 -39 -111 -81 -150c-43 -39 -94 -64 -153 -75l-23 -119l-12 3c-3 1 -6 1 -8 1c-3 0 -6 0 -8 -1c-3 -1 -8 -2 -15 -3l22 112c-42 0 -79 4 -110 11s-57 22 -78 46
c22 47 34 77 37 90h12c16 -34 35 -60 57 -77c22 -18 52 -27 91 -27l59 298c-15 7 -33 15 -54 24c-20 9 -38 21 -54 35c-16 15 -28 33 -35 54s-8 47 -2 78c11 55 36 99 75 132s87 54 143 63l16 82h11c4 -1 8 -2 11 -4c3 1 7 2 12 3c4 1 7 1 9 1l-14 -78c69 0 119 -16 149 -50
c-17 -27 -31 -55 -42 -84h-12c-16 58 -51 88 -105 91zM350 673c-30 -6 -57 -20 -80 -42c-22 -21 -36 -47 -42 -78c-4 -20 -4 -37 1 -52s11 -27 19 -35c8 -9 18 -17 30 -24s20 -12 24 -14zM270 37c35 8 64 25 88 50c24 24 39 55 46 92c4 20 5 37 1 51c-4 15 -10 27 -18 36
c-9 9 -18 17 -28 23c-9 6 -21 13 -36 21z" />
    <glyph glyph-name="percent" unicode="%" horiz-adv-x="948" 
d="M232 -35c-18 3 -34 3 -49 0l548 777c15 -3 31 -3 48 0zM237 362c-50 -1 -88 16 -113 50c-24 33 -32 75 -22 126c7 34 21 64 42 91c20 26 45 47 74 62c30 16 62 24 96 24c49 0 85 -16 109 -49c23 -32 31 -73 22 -121c-10 -49 -35 -92 -76 -129c-41 -36 -85 -54 -132 -54z
M755 9c-28 -15 -57 -22 -86 -22c-50 0 -88 17 -113 51c-25 33 -33 74 -23 123c7 34 20 64 41 93c20 27 47 47 77 62c30 16 62 24 96 24c49 0 85 -17 108 -51c23 -33 31 -74 21 -123c-7 -34 -22 -65 -43 -92c-22 -27 -48 -49 -78 -65zM673 14c35 0 63 17 84 50s34 69 42 108
c18 94 -1 141 -60 141c-38 0 -67 -16 -87 -47c-20 -32 -36 -71 -45 -117c-7 -36 -5 -68 3 -95c9 -27 30 -40 63 -40zM242 388c35 0 63 17 85 51s36 70 42 107c17 95 -2 142 -59 142c-39 0 -68 -16 -88 -47c-20 -32 -36 -71 -45 -117c-7 -37 -5 -69 3 -96s29 -40 62 -40z" />
    <glyph glyph-name="ampersand" unicode="&#x26;" horiz-adv-x="770" 
d="M654 -2c-28 3 -50 4 -65 4h-33c-9 -1 -18 -2 -28 -4c-22 43 -39 73 -50 90c-76 -69 -160 -103 -251 -103c-59 0 -104 16 -135 48s-42 75 -31 131c16 87 91 165 229 224l7 3c-18 39 -30 70 -37 93c-7 22 -7 47 -2 74c9 47 31 85 67 114s78 43 126 43c41 0 73 -9 98 -29
c23 -19 30 -48 23 -83c-8 -41 -28 -76 -61 -106c-32 -29 -73 -58 -122 -88c7 -11 22 -36 45 -75c22 -39 41 -69 55 -90l43 -64c56 63 112 133 167 210c5 -14 16 -29 33 -44c-61 -72 -122 -137 -182 -195zM516 597c5 26 2 47 -11 64s-32 26 -57 26c-31 0 -55 -9 -73 -28
s-30 -43 -36 -73c-4 -23 -3 -48 4 -74s18 -52 33 -79c82 51 128 106 140 164zM301 360c-84 -51 -137 -105 -150 -173c-9 -45 0 -82 25 -111c24 -29 58 -44 102 -44c36 0 71 9 105 28s60 36 78 51c-67 107 -117 192 -150 255c-5 -2 -8 -4 -10 -6z" />
    <glyph glyph-name="quotesingle" unicode="'" horiz-adv-x="296" 
d="M219 477c-3 -43 -19 -64 -49 -64c-15 0 -24 5 -29 15c-3 9 2 25 7 49l35 180c6 31 10 53 18 66c7 13 18 19 34 19c29 0 32 -27 20 -85z" />
    <glyph glyph-name="parenleft" unicode="(" horiz-adv-x="296" 
d="M359 777c-105 -113 -174 -261 -209 -444c-15 -78 -21 -152 -16 -223c2 -33 7 -63 15 -91s22 -63 41 -106l-24 -22c-47 69 -77 139 -90 210c-12 71 -9 154 9 249c16 84 47 164 90 240c44 77 98 146 165 207z" />
    <glyph glyph-name="parenright" unicode=")" horiz-adv-x="296" 
d="M-37 -87c66 80 110 146 133 198c30 67 55 141 71 222c18 87 24 167 20 240s-23 141 -56 204l25 21c43 -59 72 -127 86 -204s13 -158 -5 -245c-18 -95 -46 -178 -86 -249c-41 -71 -98 -141 -171 -209z" />
    <glyph glyph-name="asterisk" unicode="*" horiz-adv-x="473" 
d="M273 569l18 164c21 -2 41 -1 60 2l-49 -168l151 99c5 -18 13 -36 24 -54l-165 -68l137 -66c-7 -8 -21 -26 -41 -54l-116 95l-14 -165c-24 3 -45 3 -62 0l46 162l-147 -95c-3 7 -6 14 -9 20c-2 6 -5 13 -9 22l-4 10l163 70l-141 68c19 18 33 36 42 54z" />
    <glyph glyph-name="plus" unicode="+" horiz-adv-x="646" 
d="M334 538h68l-45 -233h235l-14 -68h-235l-46 -237h-68l46 237h-234l13 68h235z" />
    <glyph glyph-name="comma" unicode="," horiz-adv-x="296" 
d="M77 65c21 40 40 61 62 61c11 0 20 -3 27 -10s9 -17 7 -30c-3 -14 -15 -32 -34 -56l-167 -209l-16 7z" />
    <glyph glyph-name="period" unicode="." horiz-adv-x="296" 
d="M116 116c18 0 32 -7 42 -20s12 -28 9 -43c-3 -17 -11 -32 -27 -45c-15 -13 -31 -20 -49 -20c-17 0 -31 6 -43 19c-10 13 -13 28 -9 45c4 19 14 34 29 46s31 18 48 18z" />
    <glyph glyph-name="slash" unicode="/" horiz-adv-x="296" 
d="M-62 -109c-13 3 -31 3 -54 0l480 906c18 -3 36 -3 54 0z" />
    <glyph glyph-name="zero" unicode="0" 
d="M401 713c81 0 136 -30 164 -90s31 -148 8 -264c-15 -79 -39 -146 -70 -201s-68 -97 -111 -126s-89 -44 -137 -44c-91 0 -150 31 -177 93s-30 146 -9 252c13 65 32 126 57 183c26 57 62 104 108 141s102 56 167 56zM485 358c11 61 17 116 16 164c-2 49 -12 88 -30 117
c-18 28 -44 43 -79 42c-45 -1 -82 -16 -110 -40c-29 -24 -53 -60 -71 -107c-19 -47 -36 -106 -50 -178c-18 -91 -23 -170 -16 -236s46 -99 117 -99c56 0 102 29 139 87c36 58 64 141 84 250z" />
    <glyph glyph-name="one" unicode="1" 
d="M323 641l-7 3l-130 -64c-6 19 -14 32 -25 39c100 38 182 75 246 110l17 -5l-141 -728c-7 1 -13 2 -19 3s-14 1 -23 1h-16c-3 0 -7 -1 -13 -2c-5 -1 -10 -1 -15 -1z" />
    <glyph glyph-name="two" unicode="2" 
d="M154 612c55 67 123 101 203 101c65 0 114 -16 145 -45c33 -31 44 -78 32 -141c-14 -72 -65 -146 -153 -224l-153 -136l-79 -68l-22 -20l3 -12c98 0 208 5 331 14c-5 -16 -9 -29 -13 -39c-1 -9 -2 -23 -3 -42h-458l3 15c13 11 28 24 44 40c17 14 39 29 61 48l77 68
c24 22 53 46 84 75c33 29 61 57 85 84c22 26 42 56 59 90c17 33 29 68 36 105c20 101 -12 151 -97 151c-33 0 -63 -11 -90 -32c-28 -21 -48 -48 -60 -81l-9 -3z" />
    <glyph glyph-name="three" unicode="3" 
d="M170 649c16 15 39 29 69 43s63 21 100 21c53 0 98 -13 134 -38c36 -26 49 -64 39 -114c-8 -42 -28 -79 -59 -111c-32 -33 -72 -58 -121 -75c51 -3 90 -19 118 -47s37 -67 27 -117c-9 -45 -28 -85 -57 -119c-31 -34 -70 -59 -116 -77c-45 -17 -92 -27 -142 -27
c-59 0 -110 11 -153 33c7 13 15 35 25 66l9 5c31 -47 74 -71 129 -71c53 0 98 18 136 53c38 36 62 81 72 134c9 47 3 83 -18 108s-55 37 -102 37c-6 0 -13 0 -21 -1s-18 -2 -30 -3c1 5 2 9 3 10c1 2 2 6 4 12c1 3 1 6 1 10s0 8 1 11c17 -1 30 -2 39 -2c41 0 76 15 104 45
s46 67 55 111c8 39 4 71 -11 96c-16 25 -42 38 -77 38c-26 0 -51 -8 -77 -24c-25 -16 -45 -36 -60 -61l-5 -3z" />
    <glyph glyph-name="four" unicode="4" 
d="M1 198l3 15c78 89 226 254 445 495h15c6 -1 12 -2 18 -4c5 1 11 2 18 3s12 1 16 1l-87 -449l99 4c-7 -19 -12 -42 -14 -69l-97 4l-40 -202c-7 1 -13 2 -18 3c-6 1 -14 1 -23 1h-16c-3 0 -7 -1 -13 -2c-5 -1 -10 -1 -15 -1l40 201h-331zM413 601l-5 5
c-35 -36 -65 -68 -90 -96s-54 -62 -90 -103c-35 -40 -78 -88 -126 -143l4 -5h239z" />
    <glyph glyph-name="five" unicode="5" 
d="M210 710l7 3h343l2 -8c-12 -29 -19 -55 -21 -78c-53 11 -100 17 -141 17h-158l-46 -238c38 17 78 26 119 26c59 0 105 -19 137 -57s43 -87 32 -146c-13 -64 -48 -120 -106 -169c-58 -48 -127 -72 -206 -72c-69 0 -123 14 -163 42l29 70l8 1c22 -52 69 -78 139 -78
c49 0 92 20 129 60c36 39 59 85 69 138c21 111 -19 166 -120 166c-43 0 -81 -12 -113 -35l-7 7z" />
    <glyph glyph-name="six" unicode="6" 
d="M522 673c-14 5 -30 7 -49 7c-53 0 -100 -19 -141 -56s-75 -83 -100 -136c-26 -54 -44 -107 -55 -160c52 63 116 95 191 95c65 0 112 -18 142 -54c29 -36 37 -84 25 -144c-14 -69 -46 -126 -98 -171c-51 -44 -111 -66 -181 -66c-83 0 -137 28 -165 85
c-27 56 -33 129 -16 218c25 127 73 229 146 306s156 116 249 116c21 0 37 -1 47 -3zM150 195c-9 -46 -3 -86 17 -121s52 -53 96 -53c29 0 56 9 81 28c25 18 45 42 61 72s27 62 32 96c10 50 7 90 -11 121c-18 30 -48 48 -90 46c-101 -4 -163 -70 -186 -189z" />
    <glyph glyph-name="seven" unicode="7" 
d="M619 713l-5 -31c-31 -39 -82 -103 -149 -189c-69 -88 -134 -176 -198 -262c-63 -85 -121 -163 -170 -235l-18 3c-5 1 -11 1 -18 1h-12c-3 0 -7 -1 -11 -2c-5 -1 -10 -1 -15 -1l5 12c54 67 104 129 149 185c45 57 84 106 116 147s71 90 116 147s81 104 108 141l-3 4
c-115 -2 -238 -8 -369 -17c8 28 12 44 13 49c2 8 3 16 3 24l3 24h455z" />
    <glyph glyph-name="eight" unicode="8" 
d="M413 397c28 -4 58 -20 91 -47c31 -27 39 -70 26 -128c-14 -71 -46 -128 -99 -171c-53 -42 -115 -63 -185 -63s-123 18 -159 54s-48 88 -35 157c9 47 33 88 70 124s78 59 123 69l1 8c-24 7 -47 22 -69 44s-29 56 -20 101c7 34 22 64 46 89c24 26 53 46 86 59
c34 13 69 20 105 20c60 0 105 -13 134 -39c34 -30 45 -70 35 -119c-7 -33 -24 -64 -53 -94c-28 -29 -60 -48 -95 -57zM288 633c-20 -23 -36 -56 -45 -99c-7 -35 0 -66 18 -92c14 -21 39 -31 73 -31c37 0 70 17 101 48c18 20 32 51 40 94c7 35 1 65 -14 90s-40 38 -74 38
c-37 0 -70 -16 -99 -48zM148 201c-9 -51 -6 -93 12 -128c18 -34 51 -51 100 -51c46 0 84 19 115 57c31 37 51 80 60 129c10 49 7 89 -10 121s-49 48 -97 49c-45 0 -84 -18 -118 -54c-33 -35 -53 -76 -62 -123z" />
    <glyph glyph-name="nine" unicode="9" 
d="M66 61c25 -27 57 -40 96 -42c33 0 68 15 104 43c36 27 67 65 95 114c35 60 60 127 74 202c-23 -31 -52 -55 -86 -72s-69 -26 -105 -26c-57 0 -101 19 -132 56c-31 38 -41 88 -29 150c13 69 46 124 97 165s113 62 186 62c79 0 131 -29 159 -88c26 -58 30 -130 13 -216
c-15 -80 -43 -152 -84 -217c-40 -64 -87 -114 -141 -150s-109 -54 -166 -54c-43 0 -70 5 -82 14c2 17 -2 35 -12 55zM356 680c-32 0 -61 -9 -86 -28s-45 -42 -60 -69c-15 -28 -26 -58 -32 -90c-9 -47 -5 -87 10 -120c15 -32 45 -48 90 -48c44 0 82 17 115 52
c33 34 53 74 63 119c12 56 10 100 -7 133c-18 34 -49 51 -93 51z" />
    <glyph glyph-name="colon" unicode=":" horiz-adv-x="296" 
d="M116 116c18 0 32 -7 42 -20s12 -28 9 -43c-3 -17 -11 -32 -27 -45c-15 -13 -31 -20 -49 -20c-17 0 -31 6 -43 19c-10 13 -13 28 -9 45c4 19 14 34 29 46s31 18 48 18zM191 501c17 0 31 -6 41 -19s14 -28 11 -45c-4 -17 -14 -32 -29 -45s-31 -19 -48 -19s-31 6 -41 19
c-11 13 -14 28 -10 45c3 17 11 32 26 45s32 19 50 19z" />
    <glyph glyph-name="semicolon" unicode=";" horiz-adv-x="296" 
d="M77 65c21 40 40 61 62 61c11 0 20 -3 27 -10s9 -17 7 -30c-3 -14 -15 -32 -34 -56l-167 -209l-16 7zM207 501c17 0 31 -6 41 -19s14 -28 11 -45c-4 -17 -14 -32 -29 -45s-31 -19 -48 -19s-31 6 -42 19c-10 13 -13 28 -10 45s12 32 27 45s32 19 50 19z" />
    <glyph glyph-name="less" unicode="&#x3c;" horiz-adv-x="646" 
d="M534 -7l-495 249l12 58l591 249l-13 -66l-498 -212l416 -212z" />
    <glyph glyph-name="equal" unicode="=" horiz-adv-x="646" 
d="M598 340h-537l13 68h537zM558 133h-538l14 68h537z" />
    <glyph glyph-name="greater" unicode="&#x3e;" horiz-adv-x="646" 
d="M500 271l-415 212l13 66l495 -249l-12 -58l-591 -249l13 66z" />
    <glyph glyph-name="question" unicode="?" horiz-adv-x="415" 
d="M235 384c-23 -20 -39 -38 -50 -52c-11 -13 -20 -29 -24 -48c-5 -23 2 -41 18 -53c15 -12 36 -13 63 -3l5 -4l-18 -30c-5 -3 -15 -4 -30 -4c-33 0 -59 11 -80 35c-19 22 -26 51 -18 89c5 26 15 48 28 66s32 38 57 60l77 70c44 40 73 73 80 104c6 27 -1 49 -18 66
c-16 16 -38 24 -65 24c-12 0 -24 -2 -35 -6s-22 -10 -33 -18c-11 -7 -21 -15 -30 -24l3 53c44 22 81 34 111 34c50 1 87 -13 110 -38c24 -25 32 -59 24 -102c-5 -29 -16 -54 -31 -76s-36 -46 -63 -70zM163 117c17 0 31 -6 41 -19s13 -28 10 -44c-3 -17 -12 -32 -28 -45
c-15 -13 -31 -20 -48 -20s-31 6 -42 19c-10 13 -13 28 -10 45s12 32 27 45s32 19 50 19z" />
    <glyph glyph-name="at" unicode="@" horiz-adv-x="853" 
d="M600 535h94l-131 -278c-7 -15 -10 -24 -11 -27c-1 -9 0 -17 4 -24s11 -11 19 -12c21 0 46 10 75 29c28 19 55 47 80 83c26 36 44 80 53 131c7 32 4 68 -8 108c-13 40 -39 74 -77 102c-39 28 -91 42 -156 42c-49 0 -96 -8 -140 -24s-85 -39 -124 -68
c-37 -29 -66 -63 -89 -102c-24 -39 -43 -83 -53 -132c-20 -96 -1 -175 54 -236c54 -60 132 -90 231 -90c55 0 109 14 162 42c52 27 98 63 137 108l65 -1c-29 -39 -64 -74 -105 -105c-42 -31 -87 -55 -134 -72c-48 -17 -95 -25 -141 -25c-72 0 -136 16 -191 47
s-95 75 -120 132s-31 121 -17 191c14 71 44 136 89 195s101 106 168 141s137 52 210 52c68 0 126 -14 173 -42c49 -28 84 -65 106 -112c20 -46 26 -96 15 -149c-10 -52 -32 -100 -65 -145s-71 -81 -113 -108c-42 -26 -80 -39 -114 -39c-30 0 -50 8 -60 23
c-11 15 -16 33 -15 54c-33 -26 -59 -45 -78 -55c-19 -11 -42 -17 -69 -17c-37 0 -67 15 -91 45c-23 29 -31 65 -23 109c8 39 27 77 56 115c29 37 64 67 104 90s79 35 118 35c47 0 77 -20 89 -60zM350 195c23 -1 48 14 76 43s53 63 75 101c22 39 36 72 41 98c4 19 2 35 -5 48
c-6 12 -19 18 -39 18c-29 0 -58 -13 -88 -39c-28 -26 -52 -57 -72 -93c-21 -37 -33 -69 -38 -96c-11 -53 6 -80 50 -80z" />
    <glyph glyph-name="A" unicode="A" horiz-adv-x="711" 
d="M633 -3c-9 0 -17 1 -24 2c-8 1 -18 1 -30 1c-9 0 -15 0 -20 -1h-17s-14 -1 -21 -2c-12 88 -30 184 -55 288h-271c-14 -24 -31 -52 -50 -85s-37 -64 -53 -93s-36 -66 -59 -111c-7 1 -13 2 -18 3s-12 1 -19 1h-14s-7 -1 -12 -2s-10 -1 -14 -1l478 745h24zM393 601
l-169 -273h234z" />
    <glyph glyph-name="B" unicode="B" horiz-adv-x="651" 
d="M42 0l140 726h209c82 0 140 -11 175 -34c34 -22 45 -60 34 -113c-10 -47 -32 -87 -69 -120c-38 -33 -83 -56 -136 -68c51 -3 94 -18 129 -45c34 -27 46 -68 35 -122c-15 -77 -59 -137 -131 -180c-32 -20 -65 -34 -98 -38c-34 -5 -79 -6 -136 -6h-152zM214 405
c50 0 87 1 109 3s47 9 74 19c28 12 50 30 69 54c18 22 31 47 37 76c9 48 1 82 -26 101s-70 29 -129 29h-79zM142 39h101c53 0 99 15 138 46s62 71 72 120c11 59 2 101 -31 125s-85 36 -156 36h-60z" />
    <glyph glyph-name="C" unicode="C" horiz-adv-x="711" 
d="M612 45c-68 -41 -150 -61 -247 -62c-77 0 -141 17 -190 48c-51 32 -87 75 -107 132c-18 57 -20 125 -5 203c11 60 33 113 62 158c29 46 65 86 109 119s91 58 142 75c51 16 105 24 163 24c77 0 150 -16 219 -50c-11 -19 -24 -46 -38 -81l-8 -1c-8 16 -29 35 -63 58
c-34 22 -75 33 -121 33c-47 0 -91 -9 -133 -27c-41 -18 -77 -43 -107 -74c-31 -32 -57 -69 -77 -110s-34 -84 -43 -129c-13 -67 -12 -126 1 -177c14 -51 40 -90 78 -117s85 -41 141 -41c49 0 96 10 141 30s79 39 101 56z" />
    <glyph glyph-name="D" unicode="D" horiz-adv-x="829" 
d="M188 726h242c28 0 57 1 86 1s56 -2 81 -5s48 -9 69 -18s41 -23 61 -41c32 -32 52 -71 61 -117c10 -47 10 -97 0 -150c-13 -70 -36 -131 -69 -183c-33 -51 -75 -95 -126 -133c-35 -25 -70 -43 -106 -54s-71 -18 -105 -21s-76 -5 -127 -5h-208zM150 48c39 -2 77 -4 113 -6
c36 -1 72 2 107 5c36 5 68 14 96 27c113 51 184 153 213 307c15 75 17 135 5 181c-14 45 -44 77 -88 96c-44 20 -107 30 -188 30c-13 0 -31 -1 -53 -2c-23 -1 -50 -2 -81 -3z" />
    <glyph glyph-name="E" unicode="E" horiz-adv-x="533" 
d="M208 408h164c11 0 22 0 32 1c11 0 23 2 35 3c13 1 23 2 30 2c-2 -7 -3 -12 -4 -15s-2 -7 -4 -13c-1 -3 -2 -13 -3 -30c-15 1 -32 2 -50 3s-32 2 -43 2h-166l-60 -310c22 -1 87 0 194 3c27 1 60 4 101 10c-1 -4 -3 -9 -5 -16c-3 -7 -5 -12 -6 -16c-1 -5 -1 -11 -1 -17
s-1 -11 -2 -15h-385l141 726h378c-1 -4 -2 -9 -4 -16s-3 -12 -4 -16c-1 -5 -1 -11 -1 -17s-1 -11 -2 -15c-31 6 -62 11 -94 12l-107 2h-82z" />
    <glyph glyph-name="F" unicode="F" horiz-adv-x="533" 
d="M176 726h378c-1 -4 -2 -9 -4 -16s-3 -12 -4 -16c-1 -5 -1 -11 -1 -17s-1 -11 -2 -15c-31 6 -62 11 -94 12l-107 2h-82l-52 -268h164c11 0 22 0 32 1c11 0 23 2 35 3c13 1 23 2 30 2c-2 -7 -3 -12 -4 -15s-2 -7 -4 -13c-1 -3 -2 -13 -3 -30c-15 1 -32 2 -50 3s-32 2 -43 2
h-166l-71 -364h-17c-6 1 -11 2 -14 3h-14h-27c-7 -1 -14 -2 -22 -3z" />
    <glyph glyph-name="G" unicode="G" horiz-adv-x="829" 
d="M799 598c-22 33 -53 58 -93 77c-39 17 -81 27 -126 27c-93 1 -173 -30 -241 -89s-112 -141 -132 -246c-21 -108 -10 -192 33 -252s116 -90 219 -90c65 0 123 12 174 36l53 274h22c9 -1 17 -2 23 -4c8 1 17 2 26 3s17 1 23 1l-59 -302c-101 -33 -201 -50 -299 -50
c-131 -1 -222 35 -275 105c-52 69 -67 160 -45 274c16 81 47 150 94 207s104 100 172 129s142 44 223 44c50 0 93 -4 129 -11c36 -8 64 -17 85 -26c21 -10 36 -18 46 -26c-7 -11 -20 -38 -40 -81h-12z" />
    <glyph glyph-name="H" unicode="H" horiz-adv-x="829" 
d="M720 726h21c9 -1 18 -2 26 -4c7 1 15 2 25 3c9 1 16 1 21 1l-141 -729h-17c-6 1 -11 2 -14 3h-14h-27c-7 -1 -14 -2 -22 -3l70 367c-123 3 -197 5 -222 5c-21 0 -96 -2 -226 -5l-71 -367h-17c-6 1 -11 2 -14 3h-14h-27c-7 -1 -14 -2 -22 -3l142 729h21c9 -1 18 -2 25 -4
c8 1 17 2 27 3c9 1 16 1 21 1l-60 -306c127 -3 202 -5 225 -5c22 0 97 2 225 5z" />
    <glyph glyph-name="I" unicode="I" horiz-adv-x="296" 
d="M182 726h21c9 -1 18 -2 25 -4c8 1 17 2 27 3c9 1 16 1 21 1l-142 -729h-17c-6 1 -11 2 -14 3h-16h-15s-8 -1 -14 -2s-12 -1 -17 -1z" />
    <glyph glyph-name="J" unicode="J" horiz-adv-x="296" 
d="M170 93c-9 -45 -24 -86 -47 -121c-24 -36 -55 -65 -92 -86c-38 -21 -80 -32 -126 -33l-3 29c54 2 93 21 118 56c24 36 41 83 52 141l126 647h21c9 -1 18 -2 25 -4c8 1 17 2 27 3c9 1 16 1 21 1z" />
    <glyph glyph-name="K" unicode="K" horiz-adv-x="651" 
d="M415 494l-109 -92c17 -24 34 -50 55 -79c19 -28 36 -52 50 -73c14 -20 30 -42 46 -65c17 -23 35 -48 52 -76l65 -107l-2 -5h-21c-8 1 -14 2 -18 3h-18h-33c-9 -1 -18 -2 -28 -4c-15 33 -33 66 -54 98l-179 272c-11 7 -17 8 -18 3l-73 -372h-17c-6 1 -11 2 -14 3h-14h-27
c-7 -1 -14 -2 -22 -3l142 729h21c9 -1 18 -2 25 -4c8 1 17 2 27 3c9 1 16 1 21 1l-64 -330c0 -3 3 -4 8 -2c5 1 12 4 19 9c17 11 40 28 68 52l313 271h21c8 -1 16 -2 23 -4c7 1 14 2 22 3s14 1 19 1z" />
    <glyph glyph-name="L" unicode="L" horiz-adv-x="533" 
d="M139 50c22 -1 87 0 194 4c14 0 48 4 104 10c-1 -4 -3 -9 -6 -15c-2 -6 -4 -12 -4 -17c-1 -5 -2 -11 -2 -17s-1 -11 -2 -15h-388l141 726h21c9 -1 18 -2 25 -4c8 1 17 2 27 3c9 1 16 1 21 1z" />
    <glyph glyph-name="M" unicode="M" horiz-adv-x="948" 
d="M889 726c-28 -311 -46 -554 -55 -730c-6 1 -12 2 -19 3c-6 0 -11 0 -15 1h-15h-17s-9 -1 -16 -2s-13 -1 -19 0c29 255 47 438 54 550c-56 -73 -108 -142 -155 -207c-47 -64 -90 -124 -128 -179s-72 -106 -101 -153h-12l-36 119c-16 53 -30 100 -42 141
c-13 41 -28 86 -44 135s-32 97 -47 144c-5 -19 -24 -80 -58 -183c-32 -103 -55 -182 -70 -237c-15 -54 -26 -98 -32 -132l-18 3c-5 1 -11 1 -18 1c-6 0 -10 0 -13 -1h-12s-10 -1 -15 -2c35 98 80 228 134 390c54 161 91 274 110 339h27c17 -56 36 -116 57 -179
c21 -64 44 -130 68 -197s47 -128 70 -183c60 81 120 162 179 243c59 80 104 140 133 180c30 40 64 85 103 136h22z" />
    <glyph glyph-name="N" unicode="N" horiz-adv-x="829" 
d="M664 -3h-32c-9 17 -23 39 -42 65l-362 509h-11l-110 -575l-15 3c-4 1 -9 1 -14 1s-9 0 -12 -1h-8c-4 0 -8 -1 -12 -2l142 729h41l400 -549h11l106 549h14c6 -1 11 -2 16 -4c5 1 11 2 16 3c6 1 11 1 14 1z" />
    <glyph glyph-name="O" unicode="O" horiz-adv-x="888" 
d="M68 361c14 77 45 144 91 201c46 58 102 102 168 133s136 47 209 47c52 0 101 -7 146 -22c45 -14 84 -36 117 -66s56 -69 71 -116c13 -47 12 -101 0 -161c-11 -56 -31 -109 -62 -160c-30 -50 -66 -92 -108 -125c-42 -34 -90 -60 -144 -79s-110 -29 -169 -29
c-78 0 -143 16 -198 47c-53 31 -89 75 -109 132c-22 57 -26 123 -12 198zM741 603c-12 22 -28 41 -49 56c-21 16 -45 28 -71 36s-53 12 -81 12c-61 0 -117 -15 -168 -43c-51 -29 -94 -71 -129 -125s-59 -117 -72 -190c-14 -71 -14 -131 0 -180c16 -49 45 -86 84 -111
c39 -26 86 -39 141 -39c69 0 130 20 184 59c54 40 97 87 129 142c31 55 47 105 54 149c8 49 14 91 11 128c-2 37 -14 72 -33 106z" />
    <glyph glyph-name="P" unicode="P" 
d="M117 -3h-17c-6 1 -11 2 -14 3h-14h-27c-7 -1 -14 -2 -22 -3l142 729h191c70 0 124 -6 161 -17s62 -29 75 -55c13 -25 14 -59 5 -103c-12 -62 -39 -110 -83 -143c-44 -34 -106 -59 -186 -73c-19 -4 -35 -6 -47 -7c-12 0 -31 1 -56 2s-39 2 -43 2zM191 373
c28 -3 63 -4 106 0c55 5 100 24 136 56c35 31 57 70 67 116c7 39 3 71 -13 98c-15 25 -43 37 -82 40c-51 5 -102 6 -153 1z" />
    <glyph glyph-name="Q" unicode="Q" horiz-adv-x="888" 
d="M870 380c-13 -68 -37 -127 -72 -178s-76 -92 -123 -123c-48 -32 -101 -57 -158 -76c20 -17 54 -47 102 -90c48 -44 82 -74 102 -89c-46 -19 -77 -34 -92 -45c-3 7 -29 37 -79 90c-50 54 -90 93 -121 118h-12l-15 -3c-79 0 -147 15 -203 43c-56 30 -95 74 -118 131
c-22 56 -28 124 -13 204c14 71 45 136 90 194c46 58 102 104 168 137c67 33 137 49 210 49c76 0 142 -14 198 -42s96 -70 121 -125s30 -120 15 -195zM742 602c-20 34 -47 60 -82 78s-75 27 -119 27c-99 0 -180 -34 -244 -103c-64 -68 -106 -153 -126 -255
c-21 -109 -9 -191 36 -246c45 -56 108 -84 190 -84c75 0 139 21 192 64s94 91 123 145c28 54 45 101 52 140c9 49 14 92 12 128c-2 37 -14 72 -34 106z" />
    <glyph glyph-name="R" unicode="R" horiz-adv-x="651" 
d="M177 726h226c157 0 226 -54 206 -163c-11 -57 -41 -102 -90 -136c-49 -33 -105 -55 -168 -66l165 -278l39 -60l15 -27c-10 1 -19 2 -28 3c-8 1 -19 1 -32 1h-21s-11 -1 -19 -2s-15 -1 -22 -1c-25 48 -41 79 -49 93l-94 163l-66 100h-41l-69 -356h-17c-6 1 -11 2 -14 3
h-14h-27c-7 -1 -14 -2 -22 -3zM207 393c53 -3 99 -1 138 6c43 8 79 25 109 52s49 60 57 101c15 77 -15 122 -91 134c-26 4 -78 4 -157 1z" />
    <glyph glyph-name="S" unicode="S" horiz-adv-x="533" 
d="M47 141c15 -36 34 -64 57 -83s54 -28 93 -28c42 0 80 15 115 45c35 31 56 68 64 111c8 44 1 76 -23 97c-23 20 -60 41 -111 63s-89 46 -112 71c-24 26 -30 66 -19 121c13 65 46 115 97 150c52 36 112 54 179 54c63 0 111 -17 143 -51c-12 -19 -27 -48 -46 -88l-11 -1
c-5 29 -17 52 -37 69s-46 25 -77 25c-37 0 -71 -12 -102 -35c-30 -23 -50 -53 -57 -89c-9 -44 -1 -76 21 -95s59 -40 111 -63c53 -23 92 -47 116 -72c24 -26 31 -64 21 -115c-10 -50 -30 -93 -61 -130c-30 -37 -67 -65 -111 -84s-90 -29 -138 -29c-27 0 -57 6 -91 17
c-34 12 -58 27 -71 45c15 26 28 58 39 95h11z" />
    <glyph glyph-name="T" unicode="T" 
d="M288 -5c-8 0 -15 1 -22 2c-6 1 -14 1 -23 1h-27c-7 -1 -14 -2 -22 -3l132 680c-69 0 -147 -4 -235 -14c1 5 3 10 4 15c2 4 4 10 5 18c1 4 1 9 1 14c0 6 0 12 1 18h550c-1 -4 -2 -9 -4 -16s-3 -12 -4 -16c-1 -5 -1 -11 -1 -17s-1 -11 -1 -15c-77 9 -151 13 -222 13z" />
    <glyph glyph-name="U" unicode="U" horiz-adv-x="829" 
d="M198 318c-13 -64 -16 -117 -9 -159c6 -42 24 -74 55 -95c30 -21 75 -31 134 -31c41 0 78 7 110 21s60 34 83 60c24 26 44 58 59 95c16 37 28 77 36 119l77 398h14c6 -1 11 -2 16 -4l15 3c6 1 11 1 15 1l-82 -424c-10 -51 -26 -97 -48 -137s-50 -73 -83 -100
s-70 -47 -111 -60c-42 -14 -86 -21 -132 -21c-98 0 -170 25 -215 75c-25 27 -39 61 -42 102c-2 41 1 87 11 139l82 426h21c9 -1 18 -2 25 -4c8 1 17 2 27 3c9 1 16 1 21 1z" />
    <glyph glyph-name="V" unicode="V" horiz-adv-x="711" 
d="M596 531l98 178l11 17h17c8 -1 15 -2 21 -4c7 1 14 2 22 3c7 1 13 1 18 1c-21 -31 -64 -97 -126 -195c-64 -100 -128 -206 -196 -318c-67 -111 -111 -183 -128 -217l-9 3s-7 1 -12 1h-12c-3 -1 -7 -2 -11 -3c-19 67 -38 137 -56 211c-18 73 -34 139 -49 198
c-14 60 -28 125 -44 195c-17 70 -28 112 -33 125h23c10 -1 19 -2 28 -4c9 1 18 2 28 3s18 1 24 1c8 -39 15 -73 20 -103l34 -187l70 -323h9c24 35 43 64 58 87s24 37 27 42z" />
    <glyph glyph-name="W" unicode="W" horiz-adv-x="1066" 
d="M94 726h23c10 -1 19 -2 27 -4c8 1 17 2 26 3c10 1 18 1 22 0c0 -1 2 -15 5 -43c3 -27 5 -50 7 -69l20 -216l35 -282l11 -1c185 341 293 545 324 612c18 -2 28 -3 31 -4l15 3c6 1 11 1 15 1c2 -28 12 -98 28 -209c17 -112 35 -246 56 -402h9c26 45 48 86 66 122l203 402
l43 87c22 -2 34 -3 36 -4c6 1 13 2 20 3s13 1 19 1c-27 -43 -55 -88 -81 -136l-318 -594c-6 1 -11 2 -16 3s-11 1 -18 1h-11c-3 0 -7 -1 -11 -2c-5 -1 -10 -1 -14 -1c-2 22 -7 52 -12 89c-6 38 -12 93 -21 164s-17 132 -24 183s-14 105 -21 162h-8l-323 -599
c-6 1 -11 2 -16 3s-11 1 -17 1h-21c-5 -1 -11 -2 -16 -3c-3 23 -6 48 -9 76s-5 50 -7 65z" />
    <glyph glyph-name="X" unicode="X" horiz-adv-x="651" 
d="M296 364c-39 98 -66 165 -83 201l-75 161h28c11 -1 21 -2 30 -4c9 1 19 2 30 3s20 1 28 2c6 -13 13 -29 20 -48s13 -34 17 -45l75 -194c15 18 51 61 108 128s99 120 126 158h18c8 -1 15 -2 21 -4c7 1 14 2 22 3c7 1 13 1 19 1c-5 -4 -13 -11 -23 -21l-207 -227l-67 -79
l168 -403c-9 1 -18 2 -26 3s-18 1 -31 1h-33c-8 -1 -17 -2 -28 -3c-31 100 -71 208 -120 324c-84 -98 -169 -206 -256 -325c-6 1 -12 2 -17 3c-6 1 -13 1 -23 1h-21c-5 -1 -11 -2 -18 -3c19 22 42 49 70 80s60 67 96 109z" />
    <glyph glyph-name="Y" unicode="Y" horiz-adv-x="651" 
d="M316 -3h-17c-6 1 -11 2 -14 3h-14h-27c-7 -1 -14 -2 -22 -3l59 307l-179 422h27c12 -1 23 -2 34 -4c9 1 19 2 31 3c11 1 20 1 27 1c13 -41 35 -103 66 -186s53 -140 67 -171c12 11 36 40 72 88c36 47 76 100 119 159c44 59 71 96 82 110h19c8 -1 15 -2 22 -4
c7 1 14 2 22 3s15 1 21 1c-31 -32 -64 -67 -97 -107l-154 -188c-30 -37 -57 -72 -80 -107z" />
    <glyph glyph-name="Z" unicode="Z" horiz-adv-x="651" 
d="M357 456c98 108 162 183 195 222v2l-120 -2c-45 -1 -90 -1 -134 -4s-100 -7 -166 -12c3 9 5 16 6 19c1 4 2 8 3 13c1 4 1 9 1 14c0 6 0 12 1 18h561l-3 -19c-83 -86 -177 -187 -282 -302s-209 -234 -311 -356v-2h162c57 0 157 7 301 17c-1 -4 -2 -9 -4 -14
c-2 -6 -4 -12 -4 -18c-1 -5 -2 -11 -2 -17s-1 -11 -2 -15h-601l5 23z" />
    <glyph glyph-name="bracketleft" unicode="[" horiz-adv-x="355" 
d="M239 797h167l-5 -30h-104l-167 -860h103l-6 -31h-167z" />
    <glyph glyph-name="backslash" unicode="\" horiz-adv-x="533" 
d="M438 0c-23 3 -45 3 -66 0l-242 797c23 -3 45 -3 66 0z" />
    <glyph glyph-name="bracketright" unicode="]" horiz-adv-x="355" 
d="M127 -124h-168l7 31h103l168 860h-104l6 30h167z" />
    <glyph glyph-name="asciicircum" unicode="^" horiz-adv-x="646" 
d="M51 293l318 433h70l148 -433h-74l-125 348l-262 -348h-75z" />
    <glyph glyph-name="underscore" unicode="_" horiz-adv-x="533" 
d="M-93 -171l8 41h533l-8 -41h-533z" />
    <glyph glyph-name="grave" unicode="`" horiz-adv-x="355" 
d="M272 567l-147 104l-12 12s-9 9 -10 11c-3 9 -2 19 4 30c4 8 12 14 22 19s19 6 26 3c6 -2 10 -4 13 -6c6 -5 16 -19 33 -40l108 -133h-37z" />
    <glyph glyph-name="a" unicode="a" horiz-adv-x="533" 
d="M407 86c-5 -25 -5 -41 -1 -49c4 -7 21 -7 51 0l-6 -22c-17 -7 -28 -11 -33 -13c-33 -5 -58 -2 -75 7c-17 8 -25 27 -23 56l-12 -10c-54 -45 -111 -67 -170 -67c-39 0 -70 12 -94 36c-23 24 -30 55 -22 94c11 55 34 92 70 112c36 18 88 31 157 41c47 8 79 16 96 24
c16 7 26 24 31 48c8 39 3 70 -15 92s-47 33 -87 33c-35 0 -65 -8 -89 -24c-25 -16 -42 -33 -51 -50h-12l12 60c64 39 125 59 182 59c115 0 162 -60 139 -179zM355 262l-39 -7c-64 -12 -112 -25 -144 -38s-52 -41 -60 -84c-12 -67 16 -100 86 -100c13 0 28 3 47 11
c17 7 32 17 45 30c23 15 34 27 35 33z" />
    <glyph glyph-name="b" unicode="b" 
d="M10 0l153 797h21c8 -1 16 -2 23 -4c7 1 14 2 22 3s15 1 20 1l-76 -394c65 73 133 110 205 110c70 0 119 -25 146 -74c28 -50 35 -108 21 -173c-9 -47 -26 -92 -53 -135c-28 -43 -63 -78 -105 -104s-87 -39 -134 -39c-69 0 -115 25 -138 77c-10 -6 -22 -15 -36 -26
s-30 -24 -49 -39h-20zM135 217c-11 -57 -7 -104 13 -141c20 -36 53 -54 98 -54c55 0 100 25 136 75s58 105 69 164c11 62 10 112 -7 150s-51 57 -101 57c-55 0 -100 -23 -134 -70c-34 -48 -59 -108 -74 -181z" />
    <glyph glyph-name="c" unicode="c" horiz-adv-x="533" 
d="M491 399h-9c-11 19 -18 31 -23 35c-19 29 -51 43 -96 43c-58 0 -107 -21 -148 -64c-40 -42 -66 -94 -78 -155c-9 -43 -9 -83 2 -119c9 -36 25 -64 50 -84c26 -20 58 -30 95 -30c49 0 103 23 162 69l6 -3l-14 -49c-56 -36 -114 -54 -174 -55c-57 0 -104 12 -142 35
c-37 23 -62 55 -76 96c-13 40 -14 85 -5 135c16 81 54 145 114 191c61 47 132 69 213 69c64 0 118 -15 161 -44z" />
    <glyph glyph-name="d" unicode="d" 
d="M475 -3c-7 0 -13 1 -18 2c-6 1 -14 1 -23 1h-16c-3 0 -7 -1 -13 -2c-5 -1 -10 -1 -15 -1l20 102c-58 -74 -126 -111 -204 -111c-63 0 -110 22 -141 66s-38 108 -22 192c9 48 26 93 54 133c27 41 60 74 100 98c39 23 81 36 127 36c71 0 120 -35 147 -104l74 388h20
c8 -1 16 -2 23 -4c7 1 15 2 23 3s15 1 20 1zM339 468c-105 0 -174 -79 -205 -239c-11 -53 -9 -100 6 -141c16 -41 49 -62 100 -62c39 0 72 12 100 36c28 25 50 56 67 93s29 73 36 108c11 55 8 103 -7 144s-47 61 -97 61z" />
    <glyph glyph-name="e" unicode="e" horiz-adv-x="533" 
d="M430 51c-67 -42 -132 -63 -194 -64c-49 0 -91 11 -126 32c-34 21 -58 52 -71 93c-13 40 -14 86 -4 138c15 77 48 140 100 189s117 74 194 74c41 0 77 -10 107 -29s51 -48 63 -88c12 -39 11 -87 -4 -144c-72 2 -144 3 -216 3l-151 1c-17 -63 -13 -116 12 -159
s68 -64 130 -64c55 0 112 25 172 74zM421 294c21 124 -12 186 -99 186c-46 0 -85 -18 -116 -54c-32 -36 -55 -80 -69 -132h284z" />
    <glyph glyph-name="f" unicode="f" horiz-adv-x="296" 
d="M125 466h-74c6 14 9 27 8 40h73l5 8c15 47 35 93 60 137c25 45 56 82 93 110c37 29 79 41 125 36c-9 -23 -16 -51 -21 -85l-6 -4l-19 11c-9 3 -21 5 -36 5c-85 0 -124 -73 -118 -218h108c-5 -15 -7 -28 -6 -40h-107l-92 -470c-7 1 -13 2 -18 3c-6 1 -14 1 -23 1h-16
c-3 0 -7 -1 -13 -2c-5 -1 -10 -1 -15 -1z" />
    <glyph glyph-name="g" unicode="g" horiz-adv-x="533" 
d="M538 469l-117 10c42 -37 58 -84 47 -141c-10 -55 -40 -96 -88 -123c-48 -28 -105 -42 -172 -42c-3 0 -9 0 -17 1c-9 0 -18 -1 -27 -4c-9 -2 -18 -7 -26 -15s-13 -19 -16 -32c-4 -21 2 -35 17 -42c16 -7 41 -11 76 -11h68c123 0 175 -47 158 -142
c-12 -62 -48 -111 -106 -150c-57 -38 -126 -59 -207 -59c-49 0 -91 13 -126 40c-34 26 -47 65 -37 117c7 37 23 66 47 87c24 22 54 36 90 41l1 9c-42 7 -58 36 -48 86c8 40 38 71 92 92c-31 16 -53 36 -68 60c-13 24 -14 55 -6 92c11 55 36 98 77 129c40 30 97 44 170 41
l147 -6c25 -1 51 -2 78 3zM31 -120c-9 -42 0 -74 24 -96c25 -22 60 -33 104 -33c45 0 87 11 126 34c38 23 60 57 69 101c10 50 4 82 -20 97s-62 22 -113 22c-110 0 -174 -41 -190 -125zM240 199c37 0 69 14 96 41c26 27 42 60 49 99c8 45 7 80 -6 106s-39 39 -79 39
c-37 0 -69 -12 -96 -39c-26 -25 -42 -59 -51 -101c-8 -40 -6 -74 9 -103c15 -28 41 -42 78 -42z" />
    <glyph glyph-name="h" unicode="h" 
d="M177 797h20c8 -1 16 -2 23 -4c7 1 14 2 22 3s15 1 20 1l-74 -388c52 69 115 104 190 105c61 0 102 -18 124 -53c20 -35 23 -87 9 -156l-61 -309c-7 1 -13 2 -19 3s-14 1 -22 1c-7 0 -12 0 -16 -1h-13c-5 0 -10 -1 -15 -2l55 283c12 61 12 106 0 135c-12 28 -40 42 -84 42
c-94 0 -151 -57 -173 -170l-56 -291c-7 1 -13 2 -19 3s-14 1 -23 1h-16c-3 0 -7 -1 -13 -2c-5 -1 -10 -1 -15 -1z" />
    <glyph glyph-name="i" unicode="i" horiz-adv-x="296" 
d="M130 -3c-7 0 -13 1 -19 2s-14 1 -23 1h-15c-3 0 -7 -1 -13 -2c-5 -1 -10 -1 -15 -1l98 509h21c8 -1 16 -2 23 -4c7 1 14 2 22 3s15 1 20 1zM212 633c-14 -1 -26 5 -35 16s-12 24 -9 39s11 28 23 39c12 10 26 15 41 15s27 -5 36 -16c9 -10 12 -23 9 -38s-11 -28 -23 -39
c-13 -11 -27 -16 -42 -16z" />
    <glyph glyph-name="j" unicode="j" horiz-adv-x="296" 
d="M150 506h20c8 -1 16 -2 23 -4c7 1 15 2 23 3s15 1 20 1l-101 -515c-10 -53 -23 -97 -38 -131s-38 -66 -72 -93c-46 -36 -91 -51 -132 -48l-1 34l10 -2c29 -6 59 15 90 68c23 37 43 96 59 177zM218 634c-15 0 -27 5 -35 16c-9 11 -12 24 -9 39c3 16 11 29 23 39
s26 15 41 15s27 -5 35 -16c9 -10 13 -23 11 -37c-3 -15 -11 -28 -24 -39s-27 -17 -42 -17z" />
    <glyph glyph-name="k" unicode="k" horiz-adv-x="533" 
d="M172 320c-1 -5 -2 -11 -4 -19s-1 -14 2 -15c13 -8 47 14 105 62l80 67l99 91h21c8 -1 16 -2 23 -4l21 3c8 1 15 1 20 1l-1 -7c-7 -5 -42 -31 -104 -76c-63 -46 -120 -89 -171 -130c13 -19 34 -51 65 -95c29 -44 53 -82 74 -115c22 -33 40 -60 55 -81l-1 -5h-19
c-7 1 -12 2 -15 3h-17h-30c-7 -1 -15 -2 -24 -3c-21 36 -73 116 -156 240c-20 29 -36 21 -44 -23l-42 -218c-7 1 -13 2 -19 3s-14 1 -23 1h-16c-3 0 -7 -1 -13 -2c-5 -1 -10 -1 -15 -1l155 800h21c8 -1 16 -2 23 -4c7 1 14 2 22 3s15 1 20 1z" />
    <glyph glyph-name="l" unicode="l" horiz-adv-x="296" 
d="M200 797h20c8 -1 16 -2 23 -4c7 1 15 2 23 3s15 1 20 1l-156 -801c-7 1 -13 2 -19 3s-14 1 -23 1h-15c-3 0 -7 -1 -13 -2c-5 -1 -10 -1 -15 -1z" />
    <glyph glyph-name="m" unicode="m" horiz-adv-x="888" 
d="M114 506h20c8 -1 16 -2 23 -4c7 1 14 2 22 3s15 1 20 1l-17 -91c51 65 110 98 175 98c37 0 68 -9 93 -28s40 -45 44 -78c56 71 118 106 187 106c63 0 104 -17 124 -52s21 -87 8 -156l-60 -309c-7 1 -13 2 -19 3s-14 1 -23 1h-16c-3 0 -7 -1 -13 -2c-5 -1 -10 -1 -15 -1
l56 283c11 57 11 101 2 132c-9 30 -38 45 -86 45c-81 0 -133 -57 -156 -172l-57 -289c-7 1 -13 2 -18 3c-6 1 -14 1 -23 1h-16c-3 0 -7 -1 -13 -2c-5 -1 -10 -1 -15 -1l59 312c10 51 10 88 -2 112c-13 24 -40 36 -80 36c-50 0 -86 -13 -110 -39c-22 -26 -38 -63 -47 -111
l-61 -311c-7 1 -13 2 -19 3s-13 1 -22 1h-16c-3 0 -7 -1 -13 -2c-5 -1 -10 -1 -15 -1z" />
    <glyph glyph-name="n" unicode="n" 
d="M120 506h20c8 -1 16 -2 23 -4c7 1 15 2 23 3s15 1 20 1l-18 -97c52 69 115 104 190 106c61 0 102 -18 122 -52c20 -33 25 -86 11 -158l-61 -309c-7 1 -13 2 -19 3s-14 1 -22 1c-7 0 -12 0 -16 -1h-13c-5 0 -10 -1 -15 -2l55 283c7 38 9 70 9 95c-1 25 -9 45 -23 60
s-37 22 -70 22c-53 0 -93 -18 -120 -54s-46 -89 -60 -159l-49 -248c-7 1 -13 2 -19 3s-14 1 -23 1h-16c-3 0 -7 -1 -13 -2c-5 -1 -10 -1 -15 -1z" />
    <glyph glyph-name="o" unicode="o" 
d="M359 513c48 0 89 -11 123 -32c33 -21 56 -51 69 -90s15 -85 5 -137c-9 -47 -28 -91 -56 -131c-29 -41 -66 -74 -111 -99c-45 -24 -95 -36 -151 -36c-47 0 -88 11 -124 33s-61 54 -75 95s-13 87 -1 140c16 75 53 137 114 185s130 72 207 72zM128 240
c-12 -60 -8 -112 12 -155c19 -43 56 -64 112 -64c55 0 101 26 139 78c37 51 60 104 71 160c12 57 10 108 -7 153c-16 45 -51 68 -105 68c-61 0 -110 -23 -147 -69c-37 -47 -62 -104 -75 -171z" />
    <glyph glyph-name="p" unicode="p" 
d="M43 -276h-15c-6 1 -11 2 -14 3h-14h-23c-6 -1 -13 -2 -20 -3l151 782h20c8 -1 16 -2 23 -4c7 1 15 2 23 3s15 1 20 1l-20 -107h2c22 33 47 60 75 81c28 22 70 33 126 33c43 0 79 -11 108 -34c29 -22 48 -52 57 -89c10 -38 11 -78 3 -121c-8 -42 -21 -81 -39 -116
s-40 -64 -66 -89c-25 -24 -53 -44 -84 -57s-63 -19 -96 -19c-73 0 -121 34 -144 103h-2zM259 33c33 0 63 11 88 31c26 21 48 48 65 83s31 74 38 116c12 61 10 112 -4 153c-15 41 -49 61 -102 61c-55 0 -98 -24 -133 -73c-33 -48 -57 -103 -69 -166c-12 -61 -8 -110 12 -148
c19 -38 54 -57 105 -57z" />
    <glyph glyph-name="q" unicode="q" 
d="M487 506h20c8 -1 16 -2 23 -4c7 1 15 2 23 3s15 1 20 1l-152 -782h-16c-6 1 -10 2 -13 3h-13h-23c-6 -1 -13 -2 -20 -3l70 364h-2c-46 -67 -107 -100 -182 -101c-73 0 -125 26 -157 77c-30 51 -37 114 -22 187c15 77 46 140 93 189c46 49 103 73 170 73
c50 0 88 -13 113 -38s40 -51 45 -78h2zM326 477c-53 0 -94 -19 -124 -57s-51 -89 -63 -153c-13 -66 -13 -121 2 -166c14 -45 51 -68 111 -68c45 0 84 20 117 60c32 40 55 88 66 146c13 67 9 124 -8 169c-18 46 -52 69 -101 69z" />
    <glyph glyph-name="r" unicode="r" horiz-adv-x="355" 
d="M123 506h19c8 -1 16 -2 23 -4c7 1 15 2 23 3s15 1 20 1l-20 -106l7 13c56 67 107 100 154 100c14 0 25 -2 33 -6l-32 -89c-6 2 -14 5 -24 10c-9 5 -17 7 -24 7c-29 0 -54 -9 -74 -27c-22 -20 -36 -40 -43 -57c-7 -18 -15 -44 -22 -78l-54 -277c-7 1 -13 2 -19 3
s-14 1 -23 1h-16c-3 0 -7 -1 -13 -2c-5 -1 -10 -1 -15 -1z" />
    <glyph glyph-name="s" unicode="s" horiz-adv-x="415" 
d="M35 100c9 -21 24 -39 45 -56c20 -15 41 -24 62 -24c27 -1 53 10 78 29s42 42 48 69c7 31 -1 53 -20 66c-18 13 -46 25 -84 36s-67 26 -86 45c-19 18 -25 48 -17 90c10 51 34 90 71 117c38 27 82 41 131 41c53 0 92 -9 117 -28c-16 -26 -29 -51 -40 -76l-10 -1
c-3 19 -12 36 -27 51c-15 14 -32 21 -49 21c-28 0 -53 -7 -76 -23c-21 -15 -34 -38 -39 -65c-6 -31 0 -53 18 -66c17 -12 45 -25 84 -38c40 -13 69 -29 88 -47s24 -46 16 -83c-7 -35 -22 -66 -47 -92c-24 -26 -52 -46 -84 -59s-65 -19 -98 -19c-51 0 -93 11 -128 34
c19 35 32 61 39 78h8z" />
    <glyph glyph-name="t" unicode="t" horiz-adv-x="296" 
d="M239 645l-28 -139h112c-5 -17 -7 -30 -6 -40h-113l-53 -268c-11 -58 -15 -101 -13 -130c1 -28 22 -42 60 -42c6 0 22 2 49 7l-6 -26c-39 -13 -70 -19 -92 -19c-43 0 -73 13 -87 38c-16 25 -16 68 -4 130l61 310l-65 1c5 15 7 28 6 39h66l21 106z" />
    <glyph glyph-name="u" unicode="u" 
d="M456 -3c-7 0 -13 1 -18 2c-6 1 -14 1 -23 1h-16c-3 0 -7 -1 -13 -2c-5 -1 -10 -1 -15 -1l19 91c-23 -32 -51 -57 -84 -74s-68 -27 -105 -27c-60 -1 -101 17 -124 50s-27 85 -13 156l60 313h21c8 -1 16 -2 23 -4c7 1 14 2 22 3s15 1 20 1l-56 -287c-11 -59 -9 -103 6 -133
c14 -30 44 -45 89 -45c49 0 87 17 113 51s43 74 52 120l55 294h21c8 -1 16 -2 23 -4c7 1 15 2 23 3s15 1 20 1z" />
    <glyph glyph-name="v" unicode="v" horiz-adv-x="533" 
d="M483 506h16c7 -1 13 -2 18 -4c5 1 11 2 18 3s12 1 16 1c-48 -72 -104 -159 -168 -260c-64 -102 -113 -185 -148 -250l-15 3c-4 1 -9 1 -16 1h-19c-4 -1 -9 -2 -15 -3c-31 175 -68 345 -110 509h21c10 -1 19 -2 27 -4c7 1 15 2 24 3s17 1 23 1c10 -100 36 -237 78 -410
c17 19 26 29 27 30l93 150z" />
    <glyph glyph-name="w" unicode="w" horiz-adv-x="829" 
d="M537 -3h-10c-4 1 -7 2 -9 3h-8h-16c-4 -1 -9 -2 -13 -4c-5 50 -10 95 -16 135c-5 39 -10 81 -17 127c-6 45 -15 87 -24 126c-55 -78 -128 -207 -220 -388c-5 1 -9 2 -12 3c-4 1 -9 1 -16 1c-5 0 -8 0 -10 -1h-8c-4 0 -8 -1 -12 -2c-13 102 -27 196 -42 281
s-31 161 -47 228h21c9 -1 17 -2 25 -4c7 1 15 2 24 3s17 1 23 2c4 -43 8 -86 15 -130c5 -43 12 -88 19 -135c8 -47 16 -91 25 -132c27 41 64 103 112 186s86 153 114 210c16 -2 25 -3 27 -4l15 3s9 1 13 1c11 -149 31 -281 60 -396c125 203 203 335 233 396h15
c7 -1 14 -2 20 -4c5 1 11 2 18 3c6 1 11 1 14 2c-21 -30 -51 -76 -90 -138c-39 -61 -79 -125 -120 -192s-75 -127 -103 -180z" />
    <glyph glyph-name="x" unicode="x" horiz-adv-x="533" 
d="M69 506h25c11 -1 21 -2 29 -4c9 1 19 2 29 3s19 1 25 1c7 -18 22 -50 44 -95c22 -46 41 -80 56 -103l75 77l112 121h17c7 -1 14 -2 19 -4l21 3s13 1 17 1c-90 -80 -171 -156 -242 -229l146 -270l-2 -11c-6 1 -12 2 -19 3c-6 0 -11 0 -15 1h-15h-27c-7 -1 -15 -2 -24 -3
c-29 73 -65 146 -109 219c-85 -91 -150 -164 -194 -220l-15 3c-4 1 -10 1 -16 1c-5 0 -9 0 -12 -1h-10c-4 0 -8 -1 -12 -2l2 10c102 102 182 182 239 241z" />
    <glyph glyph-name="y" unicode="y" horiz-adv-x="533" 
d="M66 506h22c10 -1 20 -2 29 -4c8 1 17 2 26 3s17 1 24 1c17 -121 44 -253 81 -395c28 39 64 95 107 168c43 72 87 148 130 227h18c6 -1 12 -2 18 -4l18 3s11 1 16 1c-48 -74 -89 -137 -123 -190s-77 -120 -129 -202c-53 -82 -93 -144 -120 -187
c-26 -42 -67 -110 -122 -204c-5 1 -10 2 -14 3c-5 0 -9 0 -12 1h-12h-19c-5 -1 -11 -2 -17 -2c85 119 150 211 196 276z" />
    <glyph glyph-name="z" unicode="z" horiz-adv-x="533" 
d="M103 43l-1 -4c48 0 106 2 173 7c67 4 119 7 155 9c-4 -10 -7 -19 -9 -27c-1 -3 -1 -8 -1 -14s0 -11 -1 -14h-455l1 9c61 61 129 131 204 210c74 78 149 158 224 240v4c-42 0 -84 -1 -125 -4c-42 -3 -97 -7 -164 -13c5 9 8 18 8 27c1 3 2 7 3 11v17h408l-1 -10z" />
    <glyph glyph-name="braceleft" unicode="{" horiz-adv-x="355" 
d="M162 10c-8 -39 -7 -70 2 -91c9 -22 29 -36 60 -44c-41 -1 -73 3 -95 13c-22 9 -36 25 -42 48c-6 24 -4 57 4 100l35 174c7 38 8 66 1 85c-6 18 -27 32 -61 41c35 10 61 24 74 41c15 18 26 45 33 81l36 190c11 60 33 100 63 120s74 30 132 29c-35 -7 -61 -21 -78 -43
c-16 -21 -29 -51 -37 -91l-37 -189c-8 -41 -19 -72 -34 -93c-16 -21 -42 -36 -79 -45c34 -9 55 -25 61 -47c7 -23 5 -57 -4 -102z" />
    <glyph glyph-name="bar" unicode="|" horiz-adv-x="355" 
d="M143 0h-143h211v797h-68v-797z" />
    <glyph glyph-name="braceright" unicode="}" horiz-adv-x="355" 
d="M112 187c9 45 22 79 37 101s41 38 78 47c-33 9 -53 24 -59 45c-8 21 -9 52 -1 94l37 189c8 38 9 68 1 89c-9 21 -30 36 -63 45c39 0 70 -4 91 -11c22 -8 37 -22 45 -43s8 -53 0 -96l-37 -190c-7 -36 -6 -63 1 -80c7 -18 26 -32 56 -42c-35 -9 -59 -22 -72 -39
c-13 -18 -25 -46 -33 -86l-33 -174c-12 -64 -33 -107 -60 -129c-28 -22 -74 -32 -137 -32c33 7 59 22 77 45c18 22 31 52 38 89z" />
    <glyph glyph-name="asciitilde" unicode="~" horiz-adv-x="646" 
d="M594 319c-23 -32 -50 -60 -80 -83c-30 -22 -61 -33 -93 -34c-10 0 -23 3 -39 8c-17 5 -35 12 -54 20c-18 8 -32 14 -42 19c-41 19 -70 28 -87 28c-25 0 -47 -8 -66 -25s-41 -41 -66 -73l-30 44c31 39 60 69 86 90s56 32 90 32c26 0 66 -12 120 -37c53 -24 87 -38 102 -38
c21 0 44 9 68 28c24 18 45 39 62 63z" />
    <glyph glyph-name="ellipsis" unicode="&#x2026;" horiz-adv-x="1066" 
d="M146 116c17 0 31 -6 41 -19s13 -28 10 -44c-3 -17 -12 -32 -28 -45c-15 -13 -31 -20 -48 -20s-31 6 -42 19c-10 13 -13 28 -10 45s12 32 27 45s32 19 50 19zM501 116c17 0 31 -6 41 -19s13 -28 10 -44c-3 -17 -12 -32 -28 -45c-15 -13 -31 -20 -48 -20s-31 6 -42 19
c-10 13 -13 28 -10 45s12 32 27 45s32 19 50 19zM856 116c17 0 31 -6 41 -19s13 -28 10 -44c-3 -17 -12 -32 -28 -45c-15 -13 -31 -20 -48 -20s-31 6 -42 19c-10 13 -13 28 -10 45s12 32 27 45s32 19 50 19z" />
    <glyph glyph-name="dagger" unicode="&#x2020;" horiz-adv-x="533" 
d="M252 421c-25 0 -87 -2 -187 -5c1 5 3 11 6 18c2 7 3 13 4 17c1 3 2 14 3 34c107 -3 168 -5 184 -5l48 246h17c8 -1 15 -2 21 -4c6 1 13 2 20 3s13 1 17 1l-48 -246c24 0 86 2 186 5c-1 -4 -2 -9 -4 -16c-2 -6 -4 -12 -4 -18c-1 -6 -2 -12 -2 -19s-1 -12 -2 -16
c-101 3 -163 5 -185 5l-82 -425l-18 3c-5 1 -11 1 -19 1h-21c-5 -1 -11 -2 -18 -3z" />
    <glyph glyph-name="quoteleft" unicode="&#x2018;" horiz-adv-x="296" 
d="M207 498c-8 -17 -17 -31 -26 -43s-21 -18 -35 -18c-12 0 -22 4 -29 11s-9 17 -7 29c2 13 14 31 34 56l166 209l17 -7z" />
    <glyph glyph-name="quoteright" unicode="&#x2019;" horiz-adv-x="296" 
d="M203 681c21 40 39 61 60 61c12 0 22 -4 29 -12c8 -7 10 -16 8 -27c-3 -13 -15 -32 -35 -57l-166 -209l-17 8z" />
    <glyph glyph-name="quotedblleft" unicode="&#x201c;" horiz-adv-x="473" 
d="M383 498c-8 -17 -17 -31 -26 -43s-21 -18 -35 -18c-12 0 -22 4 -29 11s-9 17 -7 29c2 13 14 31 34 56l166 209l17 -7zM201 498c-21 -40 -40 -61 -60 -61c-12 0 -22 4 -29 11s-10 17 -8 29c2 6 4 12 7 17c3 6 7 13 12 21c6 7 11 13 15 18l167 209l17 -7z" />
    <glyph glyph-name="quotedblright" unicode="&#x201d;" horiz-adv-x="473" 
d="M203 681c21 40 39 61 60 61c12 0 22 -4 29 -12c8 -7 10 -16 8 -27c-3 -13 -15 -32 -35 -57l-166 -209l-17 8zM385 681c8 17 17 31 27 43c9 12 20 18 35 18c11 0 20 -4 27 -12c8 -7 10 -16 8 -27c-3 -13 -14 -32 -34 -57l-167 -209l-17 8z" />
    <glyph glyph-name="bullet" unicode="&#x2022;" horiz-adv-x="296" 
d="M153 309c18 0 32 -7 42 -20s12 -28 9 -44s-11 -31 -27 -44c-15 -13 -31 -20 -48 -20s-31 6 -42 19s-15 28 -11 45c4 19 14 34 29 46s31 18 48 18z" />
    <glyph glyph-name="endash" unicode="&#x2013;" horiz-adv-x="533" 
d="M-19 210l10 51h539l-11 -51h-538z" />
    <glyph glyph-name="emdash" unicode="&#x2014;" horiz-adv-x="1066" 
d="M-9 261h1067l-11 -51h-1066z" />
    <glyph glyph-name="trademark" unicode="&#x2122;" horiz-adv-x="1013" 
d="M988 726c-2 -37 -7 -86 -12 -147c-6 -62 -9 -120 -12 -173c-4 -53 -7 -91 -8 -114c-3 1 -7 2 -10 3c-4 0 -7 0 -9 1h-9h-17c-4 -1 -9 -2 -13 -4c17 145 27 254 30 327c-101 -132 -177 -238 -228 -318h-6l-21 71c-8 28 -20 66 -36 114s-31 92 -43 133
c-51 -163 -83 -272 -96 -327c-3 1 -7 2 -10 3c-4 1 -8 1 -11 1s-6 0 -7 -1h-8c-3 0 -6 -1 -9 -2c42 121 76 221 102 299s40 123 43 134l16 1c50 -157 88 -268 115 -333c36 48 67 89 92 124s51 70 78 106s52 70 76 102h13zM245 293c-16 2 -25 3 -27 3h-15c-4 -1 -8 -2 -13 -3
l79 403c-37 0 -84 -2 -140 -7l6 37h327l-7 -37c-50 5 -94 7 -131 7z" />
    <glyph glyph-name="nbspace" horiz-adv-x="500" 
 />
    <glyph glyph-name="afii10062" unicode="&#x40e;" horiz-adv-x="691" 
d="M700 726c12 -2 24 -3 36 -4c6 1 13 2 21 3c7 1 13 1 17 1c-7 -9 -39 -53 -96 -132c-57 -80 -108 -152 -153 -216c-44 -63 -94 -134 -150 -213c-55 -79 -93 -135 -114 -168c-12 2 -23 3 -32 3c-15 0 -31 -1 -49 -3c25 29 56 68 93 116c36 48 62 82 77 103
c-37 75 -85 173 -145 293c-59 120 -96 192 -111 217c32 -2 54 -3 67 -3c9 0 19 1 30 2s20 1 26 2c29 -65 50 -113 63 -144c14 -31 34 -72 59 -123c26 -51 51 -98 75 -140h11c10 15 33 49 69 101s75 108 116 167c41 60 71 106 90 138z" />
    <glyph glyph-name="afii10110" unicode="&#x45e;" horiz-adv-x="533" 
d="M72 506h24c10 -1 19 -2 28 -4c8 1 17 2 26 3s17 1 23 1c3 -23 9 -60 19 -110c9 -50 17 -97 27 -141c9 -43 22 -91 36 -145c28 41 66 101 113 180s89 151 125 216c11 -2 23 -3 35 -3c11 0 22 1 34 3c-48 -74 -89 -137 -123 -190s-76 -118 -128 -196
c-50 -78 -94 -147 -131 -207c-38 -61 -75 -124 -113 -190c-5 1 -10 2 -14 3c-5 0 -9 0 -12 1h-10h-21c-5 -1 -10 -2 -16 -3c44 63 77 110 97 141c21 30 40 55 55 75c14 20 29 40 44 61z" />
    <glyph glyph-name="afii10057" unicode="&#x408;" horiz-adv-x="296" 
d="M170 93c-9 -45 -24 -86 -47 -121c-24 -36 -55 -65 -92 -86c-38 -21 -80 -32 -126 -33l-3 29c54 2 93 21 118 56c24 36 41 83 52 141l126 647h21c9 -1 18 -2 25 -4c8 1 17 2 27 3c9 1 16 1 21 1z" />
    <glyph glyph-name="currency" unicode="&#xa4;" 
d="M72 208c-29 51 -39 105 -28 162c12 65 42 119 88 162l-46 59l56 47l48 -59c53 38 111 57 174 57c59 0 108 -19 147 -56l67 56l37 -45l-68 -57c30 -45 40 -99 28 -162c-11 -61 -43 -115 -93 -163l46 -58l-56 -45l-44 56c-53 -37 -109 -55 -169 -55c-62 0 -112 18 -149 55
l-68 -56l-39 44zM109 370c-11 -55 -1 -102 31 -141c31 -38 76 -57 132 -57c55 0 106 20 152 59c46 40 75 87 86 140c7 35 4 68 -8 99s-31 56 -58 74s-58 27 -92 27c-37 0 -73 -9 -107 -27c-35 -18 -65 -42 -90 -73c-24 -30 -39 -64 -46 -101z" />
    <glyph glyph-name="afii10050" unicode="&#x490;" horiz-adv-x="355" 
d="M143 0h-143h211v299h-68v-299zM211 797v-298h-68v298h68z" />
    <glyph glyph-name="section" unicode="&#xa7;" horiz-adv-x="533" 
d="M211 164c-34 16 -62 30 -83 43s-36 31 -48 54c-11 22 -15 50 -8 84c10 48 42 91 96 128c-12 37 -15 68 -10 92c11 54 37 97 78 129c42 32 90 48 144 48c58 0 102 -20 132 -59c-15 -15 -30 -36 -45 -63h-10c-5 27 -16 48 -32 63c-17 16 -37 24 -59 24
c-33 0 -62 -8 -87 -24c-33 -21 -52 -48 -57 -81c-9 -45 8 -80 55 -102l124 -58c57 -27 79 -73 66 -137c-9 -47 -39 -92 -88 -135c21 -29 29 -58 24 -85c-8 -41 -25 -78 -51 -111s-58 -58 -96 -75c-37 -17 -76 -26 -118 -26c-49 0 -96 15 -141 44c15 34 25 64 30 90h9
c23 -63 71 -95 142 -95c35 0 69 13 103 40c33 27 51 53 56 79c6 29 3 51 -11 67c-14 15 -35 28 -64 42zM315 217l53 -30c26 31 41 56 45 74c8 43 -15 79 -69 106l-101 50c-9 5 -17 9 -24 12c-7 4 -14 8 -21 13s-12 10 -15 15c-31 -25 -50 -50 -55 -75c-4 -21 -1 -39 7 -54
c6 -10 15 -21 27 -29c10 -11 26 -20 45 -30s31 -16 36 -18z" />
    <glyph glyph-name="afii10023" unicode="&#x401;" horiz-adv-x="533" 
d="M214 408h165c11 0 22 0 32 1c11 0 23 2 35 3s22 2 29 2c-2 -7 -3 -12 -4 -15s-2 -7 -4 -13v-15s-1 -11 -2 -15c-15 1 -32 2 -50 3s-33 2 -44 2h-165l-61 -310c22 -1 87 0 194 3c27 1 60 4 100 10c-1 -4 -2 -9 -4 -14c-2 -6 -4 -12 -4 -18c-1 -5 -2 -10 -3 -14
c0 -4 -1 -10 -2 -18h-384l140 726h379c-1 -4 -2 -9 -4 -14s-4 -11 -5 -18c-1 -5 -1 -11 -1 -17s-1 -11 -2 -15c-31 6 -62 11 -94 12l-106 2h-82zM466 856c2 13 10 24 21 34c12 10 25 15 38 15s23 -5 31 -16c8 -10 10 -21 8 -33s-9 -23 -21 -34c-12 -10 -25 -15 -38 -15
c-12 0 -22 5 -30 14c-8 10 -11 22 -9 35zM257 856c2 13 10 24 21 34c12 10 25 15 38 15s24 -5 31 -15c8 -10 10 -21 8 -34s-9 -24 -21 -34s-25 -15 -38 -15c-12 0 -22 5 -30 14c-8 10 -11 22 -9 35z" />
    <glyph glyph-name="copyright" unicode="&#xa9;" horiz-adv-x="800" 
d="M55 362c13 70 42 133 86 190c45 58 100 104 165 139c65 34 132 51 200 51c54 0 102 -10 144 -30s77 -47 104 -81s46 -74 57 -121s12 -96 2 -148c-10 -51 -29 -99 -55 -144c-28 -46 -65 -86 -109 -122c-43 -35 -89 -64 -139 -83s-100 -29 -151 -29
c-104 0 -186 37 -245 111s-79 163 -59 267zM754 363c11 58 7 112 -12 162s-50 90 -94 120s-95 45 -152 45c-56 0 -112 -15 -168 -43c-55 -30 -101 -71 -139 -122c-39 -51 -64 -105 -75 -162s-7 -111 13 -162c19 -50 50 -90 93 -119c44 -29 94 -44 149 -44
c57 0 113 15 168 44c56 29 103 69 143 121c39 51 64 104 74 160zM540 187c-40 -23 -89 -35 -146 -35c-69 0 -120 19 -152 58c-32 38 -43 90 -31 157c12 65 45 116 98 153c52 37 113 56 181 56c47 0 91 -9 131 -29c-9 -15 -16 -31 -21 -48l-5 -1c-4 9 -17 19 -38 30
s-46 16 -75 16c-49 0 -92 -17 -129 -52c-37 -34 -60 -77 -70 -129c-11 -55 -4 -99 20 -131s59 -48 104 -48c43 0 92 14 147 43z" />
    <glyph glyph-name="afii10053" unicode="&#x404;" horiz-adv-x="711" 
d="M346 408c10 0 21 0 31 1c11 0 23 2 35 3s22 2 29 2c-2 -7 -3 -12 -4 -15s-2 -7 -4 -13v-15s-1 -11 -2 -15c-15 1 -32 2 -50 3s-33 2 -44 2h-164c-13 -67 -12 -126 3 -177s41 -90 79 -117s85 -41 140 -41c82 0 163 29 242 86l-17 -67c-69 -41 -152 -61 -249 -63
c-78 0 -142 17 -191 50c-50 31 -85 74 -104 131c-18 57 -20 125 -5 203s45 145 89 202c46 57 104 99 172 129c67 29 138 45 213 45c78 0 151 -16 220 -49c-13 -23 -26 -50 -39 -82l-7 -1c-8 16 -29 35 -64 58c-34 22 -75 33 -121 33c-85 0 -158 -27 -220 -82
c-61 -55 -104 -125 -129 -211h161z" />
    <glyph glyph-name="guillemotleft" unicode="&#xab;" horiz-adv-x="533" 
d="M91 239l172 196c9 -13 20 -22 33 -27l-151 -168l80 -176c-18 -5 -33 -14 -46 -28zM243 239l173 196c7 -13 18 -22 33 -27l-152 -168l80 -177c-19 -5 -34 -14 -45 -27z" />
    <glyph glyph-name="logicalnot" unicode="&#xac;" horiz-adv-x="646" 
d="M530 340h-469l13 68h537l-56 -288h-68z" />
    <glyph glyph-name="registered" unicode="&#xae;" horiz-adv-x="800" 
d="M44 364c13 66 42 129 87 188c46 59 102 105 167 139s132 51 200 51s128 -17 179 -51s88 -80 112 -138c22 -58 26 -121 12 -188c-13 -69 -42 -133 -85 -192c-45 -59 -101 -104 -167 -138c-65 -33 -131 -51 -198 -51c-69 0 -129 17 -180 50c-52 34 -89 81 -112 140
c-23 60 -28 123 -15 190zM743 363c11 57 7 111 -12 162c-19 50 -50 90 -93 119s-93 44 -150 44c-56 0 -112 -15 -167 -44c-56 -29 -104 -69 -143 -119c-39 -51 -64 -105 -75 -161c-11 -57 -7 -111 12 -162s51 -91 96 -121s95 -45 151 -45s112 15 167 45
c56 30 103 70 141 121c38 50 62 104 73 161zM300 159c-5 0 -9 1 -12 2c-4 1 -9 1 -15 1c-1 0 -11 -1 -29 -3l79 407h135c94 0 136 -30 123 -90c-6 -33 -24 -58 -53 -77c-29 -18 -62 -30 -99 -36l101 -156l24 -33l8 -16c-6 1 -11 2 -16 3s-11 1 -19 1c-3 0 -15 -1 -37 -3
c-7 12 -17 29 -29 52l-59 91l-39 55h-25zM345 388h69c29 0 53 7 73 22c20 14 33 33 38 57c8 42 -12 66 -59 66h-93z" />
    <glyph glyph-name="afii10056" unicode="&#x407;" horiz-adv-x="296" 
d="M182 726h21c9 -1 18 -2 25 -4c8 1 17 2 27 3c9 1 16 1 21 1l-142 -729h-17c-6 1 -11 2 -14 3h-16h-15s-8 -1 -14 -2s-12 -1 -17 -1zM313 856c2 13 10 24 21 34c12 10 25 15 38 15s23 -5 31 -16c8 -10 10 -21 8 -33s-9 -23 -21 -34c-12 -10 -25 -15 -38 -15
c-12 0 -22 5 -30 14c-8 10 -11 22 -9 35zM104 856c2 13 10 24 21 34c12 10 25 15 38 15s24 -5 31 -15c8 -10 10 -21 8 -34s-9 -24 -21 -34s-25 -15 -38 -15c-12 0 -22 5 -30 14c-8 10 -11 22 -9 35z" />
    <glyph glyph-name="degree" unicode="&#xb0;" horiz-adv-x="426" 
d="M239 393c-44 0 -78 16 -103 47s-34 69 -26 114c8 43 31 80 68 111c38 32 79 48 122 48c45 0 80 -16 105 -48s32 -69 24 -112c-9 -44 -30 -82 -67 -113s-78 -47 -123 -47zM291 671c-32 0 -62 -12 -89 -34c-27 -23 -44 -51 -50 -83c-6 -33 0 -61 19 -84
c18 -23 43 -34 75 -34s62 11 90 33c28 23 44 51 50 84c6 32 1 60 -18 83c-18 23 -44 35 -77 35z" />
    <glyph glyph-name="plusminus" unicode="&#xb1;" horiz-adv-x="646" 
d="M334 538h68l-33 -169h234l-12 -68h-235l-34 -173h-68l34 173h-235l13 68h235zM-5 0l12 68h538l-13 -68h-537z" />
    <glyph glyph-name="afii10055" unicode="&#x406;" horiz-adv-x="296" 
d="M182 726h21c9 -1 18 -2 25 -4c8 1 17 2 27 3c9 1 16 1 21 1l-142 -729h-17c-6 1 -11 2 -14 3h-16h-15s-8 -1 -14 -2s-12 -1 -17 -1z" />
    <glyph glyph-name="afii10103" unicode="&#x456;" horiz-adv-x="296" 
d="M130 -3c-7 0 -13 1 -19 2s-14 1 -23 1h-15c-3 0 -7 -1 -13 -2c-5 -1 -10 -1 -15 -1l98 509h21c8 -1 16 -2 23 -4c7 1 14 2 22 3s15 1 20 1zM212 633c-14 -1 -26 5 -35 16s-12 24 -9 39s11 28 23 39c12 10 26 15 41 15s27 -5 36 -16c9 -10 12 -23 9 -38s-11 -28 -23 -39
c-13 -11 -27 -16 -42 -16z" />
    <glyph glyph-name="afii10098" unicode="&#x491;" horiz-adv-x="355" 
d="M187 567h-37l160 133c4 3 10 8 17 14s12 10 15 12c4 2 9 6 15 11s12 8 17 9c8 3 16 2 24 -3c9 -5 14 -11 15 -19c3 -13 1 -23 -7 -29c-4 -7 -15 -14 -32 -23z" />
    <glyph glyph-name="mu" unicode="&#xb5;" 
d="M457 506h20c8 -1 16 -2 23 -4c7 1 15 2 23 3s15 1 20 1l-100 -510c-7 1 -13 2 -18 3c-6 1 -14 1 -23 1h-16c-3 0 -7 -1 -13 -2c-5 -1 -10 -1 -15 -1l18 91h-2c-46 -67 -108 -100 -186 -100c-34 0 -63 10 -86 29l-56 -293h-15c-6 1 -11 2 -14 3h-14h-23
c-6 -1 -12 -2 -19 -3l150 782h21c8 -1 16 -2 23 -4c7 1 14 2 22 3s15 1 20 1l-56 -287c-11 -59 -9 -103 6 -133c14 -30 44 -45 89 -45c49 0 87 17 113 51s43 74 52 120z" />
    <glyph glyph-name="mu" unicode="&#x3bc;" 
d="M457 506h20c8 -1 16 -2 23 -4c7 1 15 2 23 3s15 1 20 1l-100 -510c-7 1 -13 2 -18 3c-6 1 -14 1 -23 1h-16c-3 0 -7 -1 -13 -2c-5 -1 -10 -1 -15 -1l18 91h-2c-46 -67 -108 -100 -186 -100c-34 0 -63 10 -86 29l-56 -293h-15c-6 1 -11 2 -14 3h-14h-23
c-6 -1 -12 -2 -19 -3l150 782h21c8 -1 16 -2 23 -4c7 1 14 2 22 3s15 1 20 1l-56 -287c-11 -59 -9 -103 6 -133c14 -30 44 -45 89 -45c49 0 87 17 113 51s43 74 52 120z" />
    <glyph glyph-name="paragraph" unicode="&#xb6;" horiz-adv-x="853" 
d="M524 692l-156 -802l-15 3c-4 1 -10 1 -17 1h-11c-3 0 -7 -1 -12 -2c-4 -1 -8 -1 -12 -1l88 454l-39 -3c-63 -5 -110 16 -141 49s-41 82 -28 146c7 35 21 67 42 98c20 30 46 51 76 66c24 11 49 20 75 22c27 3 65 3 114 3h203l-162 -836l-15 3c-4 1 -10 1 -17 1h-11
c-3 0 -7 -1 -12 -2c-4 -1 -8 -1 -12 -1l155 801h-93zM318 498c-16 -84 4 -129 62 -125l15 1l61 318c-39 2 -67 -7 -85 -28c-18 -20 -32 -52 -40 -97z" />
    <glyph glyph-name="periodcentered" unicode="&#xb7;" horiz-adv-x="533" 
d="M178 320c-1 -5 -2 -11 -4 -19s-1 -14 2 -15c13 -8 47 14 105 62l80 67l101 91h19c8 -1 16 -2 23 -4c7 1 14 2 22 3s15 1 20 1l-1 -7c-22 -16 -48 -35 -78 -57s-59 -43 -87 -64s-65 -49 -109 -85c23 -34 43 -64 60 -91c17 -26 32 -49 45 -68c13 -20 28 -42 44 -67
c16 -24 31 -46 44 -65v-6l-21 3c-7 0 -12 0 -16 1h-15h-31c-7 -1 -15 -2 -24 -3c-24 43 -76 123 -157 241c-20 29 -33 21 -42 -24l-43 -218c-7 1 -13 2 -19 3s-13 1 -22 1h-16c-3 0 -7 -1 -13 -2c-5 -1 -10 -1 -15 -1l98 509h21c8 -1 16 -2 23 -4c7 1 14 2 22 3s15 1 20 1z
" />
    <glyph glyph-name="periodcentered" unicode="&#x2219;" horiz-adv-x="533" 
d="M178 320c-1 -5 -2 -11 -4 -19s-1 -14 2 -15c13 -8 47 14 105 62l80 67l101 91h19c8 -1 16 -2 23 -4c7 1 14 2 22 3s15 1 20 1l-1 -7c-22 -16 -48 -35 -78 -57s-59 -43 -87 -64s-65 -49 -109 -85c23 -34 43 -64 60 -91c17 -26 32 -49 45 -68c13 -20 28 -42 44 -67
c16 -24 31 -46 44 -65v-6l-21 3c-7 0 -12 0 -16 1h-15h-31c-7 -1 -15 -2 -24 -3c-24 43 -76 123 -157 241c-20 29 -33 21 -42 -24l-43 -218c-7 1 -13 2 -19 3s-13 1 -22 1h-16c-3 0 -7 -1 -13 -2c-5 -1 -10 -1 -15 -1l98 509h21c8 -1 16 -2 23 -4c7 1 14 2 22 3s15 1 20 1z
" />
    <glyph glyph-name="afii10071" unicode="&#x451;" horiz-adv-x="533" 
d="M401 636c3 14 11 26 23 35c11 10 23 15 36 15s24 -5 32 -15s10 -22 7 -35c-2 -13 -9 -24 -21 -34s-24 -15 -37 -15s-23 5 -31 14c-8 10 -12 22 -9 35zM192 636c3 14 11 26 23 35c11 10 23 15 36 15s24 -5 31 -15c8 -10 10 -22 8 -35c-2 -12 -9 -23 -21 -34
c-12 -10 -24 -15 -37 -15s-23 5 -31 14c-8 10 -12 22 -9 35zM437 51c-67 -42 -132 -63 -195 -64c-49 0 -91 11 -126 32c-34 21 -58 52 -73 92c-13 40 -13 87 -2 140c16 78 50 141 102 190c51 48 115 72 192 73c64 0 113 -23 147 -68s41 -110 20 -194c-73 2 -145 3 -217 3
l-150 1c-17 -63 -13 -116 12 -159s68 -64 130 -64c54 0 111 25 171 74zM427 294c22 124 -11 186 -98 186c-46 0 -85 -18 -118 -55c-32 -36 -55 -80 -68 -131h284z" />
    <glyph glyph-name="afii61352" unicode="&#x2116;" horiz-adv-x="362" 
d="M273 742c50 0 88 -15 112 -47c22 -28 28 -65 19 -109c-6 -30 -20 -59 -42 -86c-40 -48 -94 -72 -162 -72c-24 0 -47 4 -69 13c-18 7 -33 20 -46 37c-21 27 -27 64 -18 110c6 29 19 56 39 80s45 42 74 55s60 19 93 19zM348 366l-7 -32h-309l6 32h310zM127 579
c-8 -38 -4 -69 9 -94s37 -38 73 -38c37 0 67 16 91 48s38 64 44 94c7 36 5 67 -5 94c-11 27 -34 40 -68 40c-41 0 -74 -14 -97 -41c-24 -28 -39 -62 -47 -103z" />
    <glyph glyph-name="afii10101" unicode="&#x454;" horiz-adv-x="513" 
d="M285 25c48 0 102 23 161 69l6 -3l-14 -49c-56 -36 -114 -54 -174 -55c-57 0 -104 12 -142 35c-37 23 -62 55 -76 96c-13 40 -14 85 -5 135c16 81 54 145 114 191c61 47 132 69 213 69c64 0 118 -15 161 -44l-38 -70h-9c-11 19 -18 31 -23 35c-19 29 -51 43 -96 43
c-53 0 -98 -18 -136 -52c-38 -35 -65 -80 -82 -135h125c11 0 22 0 32 1c11 0 23 2 35 3s22 2 29 2c-2 -7 -3 -12 -4 -15s-2 -7 -4 -13v-15s-1 -11 -2 -15c-15 1 -32 2 -50 3s-33 2 -44 2h-128c-10 -64 -1 -116 26 -157c28 -41 70 -61 125 -61z" />
    <glyph glyph-name="guillemotright" unicode="&#xbb;" horiz-adv-x="533" 
d="M416 233l-173 -197c-8 14 -19 23 -34 28l151 168l-80 176c19 6 34 15 46 28zM263 233l-173 -197c-9 14 -20 23 -33 28l151 168l-79 176c19 7 34 16 45 28z" />
    <glyph glyph-name="afii10105" unicode="&#x458;" horiz-adv-x="296" 
d="M150 506h20c8 -1 16 -2 23 -4c7 1 15 2 23 3s15 1 20 1l-101 -515c-10 -53 -23 -97 -38 -131s-38 -66 -72 -93c-46 -36 -91 -51 -132 -48l-1 34l10 -2c29 -6 59 15 90 68c23 37 43 96 59 177zM218 634c-15 0 -27 5 -35 16c-9 11 -12 24 -9 39c3 16 11 29 23 39
s26 15 41 15s27 -5 35 -16c9 -10 13 -23 11 -37c-3 -15 -11 -28 -24 -39s-27 -17 -42 -17z" />
    <glyph glyph-name="afii10054" unicode="&#x405;" horiz-adv-x="533" 
d="M47 141c15 -36 34 -64 57 -83s54 -28 93 -28c42 0 80 15 115 45c35 31 56 68 64 111c8 44 1 76 -23 97c-23 20 -60 41 -111 63s-89 46 -112 71c-24 26 -30 66 -19 121c13 65 46 115 97 150c52 36 112 54 179 54c63 0 111 -17 143 -51c-12 -19 -27 -48 -46 -88l-11 -1
c-5 29 -17 52 -37 69s-46 25 -77 25c-37 0 -71 -12 -102 -35c-30 -23 -50 -53 -57 -89c-9 -44 -1 -76 21 -95s59 -40 111 -63c53 -23 92 -47 116 -72c24 -26 31 -64 21 -115c-10 -50 -30 -93 -61 -130c-30 -37 -67 -65 -111 -84s-90 -29 -138 -29c-27 0 -57 6 -91 17
c-34 12 -58 27 -71 45c15 26 28 58 39 95h11z" />
    <glyph glyph-name="afii10102" unicode="&#x455;" horiz-adv-x="415" 
d="M35 100c9 -21 24 -39 45 -56c20 -15 41 -24 62 -24c27 -1 53 10 78 29s42 42 48 69c7 31 -1 53 -20 66c-18 13 -46 25 -84 36s-67 26 -86 45c-19 18 -25 48 -17 90c10 51 34 90 71 117c38 27 82 41 131 41c53 0 92 -9 117 -28c-16 -26 -29 -51 -40 -76l-10 -1
c-3 19 -12 36 -27 51c-15 14 -32 21 -49 21c-28 0 -53 -7 -76 -23c-21 -15 -34 -38 -39 -65c-6 -31 0 -53 18 -66c17 -12 45 -25 84 -38c40 -13 69 -29 88 -47s24 -46 16 -83c-7 -35 -22 -66 -47 -92c-24 -26 -52 -46 -84 -59s-65 -19 -98 -19c-51 0 -93 11 -128 34
c19 35 32 61 39 78h8z" />
    <glyph glyph-name="afii10104" unicode="&#x457;" horiz-adv-x="296" 
d="M130 -3c-7 0 -13 1 -19 2s-14 1 -23 1h-15c-3 0 -7 -1 -13 -2c-5 -1 -10 -1 -15 -1l98 509h21c8 -1 16 -2 23 -4c7 1 14 2 22 3s15 1 20 1zM268 635c3 14 11 26 23 35c11 10 23 15 36 15s24 -5 32 -15s10 -22 7 -35c-2 -13 -9 -24 -21 -34s-24 -15 -37 -15s-23 5 -31 14
c-8 10 -12 22 -9 35zM59 635c3 14 11 26 23 35c11 10 23 15 36 15s24 -5 31 -15c8 -10 10 -22 8 -35c-2 -12 -9 -23 -21 -34c-12 -10 -24 -15 -37 -15s-23 5 -31 14c-8 10 -12 22 -9 35z" />
    <glyph glyph-name="afii10017" unicode="&#x410;" horiz-adv-x="691" 
d="M629 -3c-9 0 -17 1 -24 2c-8 1 -18 1 -30 1h-20s-10 -1 -17 -2s-14 -1 -21 -1c-15 99 -33 195 -55 288h-271c-75 -125 -129 -221 -162 -289c-7 1 -13 2 -18 3s-12 1 -21 1h-12c-3 0 -7 -1 -12 -2s-10 -1 -14 -1l478 745h24zM389 601l-169 -273h234z" />
    <glyph glyph-name="afii10018" unicode="&#x411;" horiz-adv-x="632" 
d="M184 726l432 1c-5 -11 -7 -22 -9 -33c-4 -17 -4 -28 -3 -32c-40 8 -71 12 -93 12l-128 2h-114l-53 -269h98c103 0 174 -15 213 -44c38 -29 50 -76 37 -142c-12 -63 -43 -114 -94 -153s-113 -62 -187 -68c-32 -2 -71 -1 -116 0h-123zM146 44l107 -1c51 0 97 17 137 50
s64 74 74 124c5 25 5 48 1 69c-6 22 -19 40 -37 53c-17 14 -39 23 -66 26c-15 1 -38 2 -69 2c-32 0 -60 0 -84 -1z" />
    <glyph glyph-name="afii10019" unicode="&#x412;" horiz-adv-x="632" 
d="M43 0l140 726h215c81 0 139 -11 174 -34c35 -22 47 -60 36 -113c-9 -47 -33 -87 -71 -120s-83 -56 -136 -68c51 -3 94 -18 129 -45c34 -27 46 -68 35 -122c-15 -77 -59 -137 -131 -180c-32 -20 -65 -34 -98 -38c-34 -5 -79 -6 -136 -6h-157zM215 406c48 0 85 0 110 2
c24 1 50 8 78 19c59 23 95 67 108 130c9 48 0 82 -27 101s-70 29 -130 29h-84zM143 39l107 -1c53 0 99 16 139 47c39 31 63 71 72 120c11 59 0 101 -34 124c-34 24 -86 36 -156 36h-65z" />
    <glyph glyph-name="afii10020" unicode="&#x413;" horiz-adv-x="513" 
d="M183 726h379c-1 -4 -2 -9 -4 -14s-4 -11 -5 -18c-1 -5 -1 -11 -1 -17s-1 -11 -2 -15c-31 6 -62 11 -94 12l-106 2h-82l-132 -678c-23 1 -38 2 -46 2c-11 0 -27 -1 -47 -2z" />
    <glyph glyph-name="afii10021" unicode="&#x414;" horiz-adv-x="711" 
d="M-1 51c18 28 61 95 128 200c67 106 131 207 191 304s94 154 103 171h51c5 -22 14 -59 24 -111c12 -52 25 -106 37 -162c12 -57 27 -123 44 -198s33 -143 47 -204h46c-6 -14 -9 -28 -11 -42c-5 -29 -8 -47 -8 -54l-9 -1c-10 21 -29 34 -58 39c-28 5 -77 7 -147 7h-260
c-70 0 -121 -2 -153 -6c-32 -5 -59 -18 -82 -39h-8c3 8 8 26 15 54c2 20 3 34 4 42h46zM523 51c-11 58 -25 128 -42 209s-32 152 -45 213s-23 107 -29 137h-5c-33 -53 -61 -97 -84 -133s-55 -87 -93 -151c-40 -66 -71 -122 -97 -167c-25 -44 -46 -80 -61 -108h456z" />
    <glyph glyph-name="afii10022" unicode="&#x415;" horiz-adv-x="533" 
d="M214 408h165c11 0 22 0 32 1c11 0 23 2 35 3s22 2 29 2c-2 -7 -3 -12 -4 -15s-2 -7 -4 -13v-15s-1 -11 -2 -15c-15 1 -32 2 -50 3s-33 2 -44 2h-165l-61 -310c22 -1 87 0 194 3c27 1 60 4 100 10c-1 -4 -2 -9 -4 -14c-2 -6 -4 -12 -4 -18c-1 -5 -2 -10 -3 -14
c0 -4 -1 -10 -2 -18h-384l140 726h379c-1 -4 -2 -9 -4 -14s-4 -11 -5 -18c-1 -5 -1 -11 -1 -17s-1 -11 -2 -15c-31 6 -62 11 -94 12l-106 2h-82z" />
    <glyph glyph-name="afii10024" unicode="&#x416;" horiz-adv-x="948" 
d="M609 726l-65 -329c0 -3 3 -4 9 -2c5 1 10 4 15 8c10 7 58 49 142 128c85 79 155 144 209 195h21c8 -1 16 -2 23 -4l21 3c8 1 15 1 20 1l-366 -323c23 -35 48 -76 75 -122c28 -46 59 -99 93 -158s57 -99 70 -121l-1 -5c-19 2 -38 3 -58 3c-21 0 -41 -1 -60 -4
c-6 13 -33 64 -81 153s-87 161 -118 216c0 3 -3 5 -8 6c-6 1 -10 0 -11 -2l-72 -372c-18 2 -34 3 -48 3c-7 0 -22 -1 -46 -3l73 372c0 1 -1 2 -4 2s-6 0 -9 -1s-5 -2 -6 -3c-23 -25 -59 -64 -107 -118c-49 -53 -98 -104 -145 -153c-46 -49 -77 -82 -92 -99
c-34 2 -53 3 -58 3c-9 0 -15 0 -19 -1h-17c-8 0 -16 -1 -24 -2l1 5c21 22 58 60 110 113c52 54 104 108 157 161c53 54 95 96 127 126l-241 324h20c8 -1 15 -2 22 -4c7 1 15 2 23 3s15 1 19 1c35 -51 80 -116 135 -195s85 -122 91 -128c13 -13 20 -15 22 -6l63 329h24
c9 -1 17 -2 24 -4c9 1 18 2 28 3s16 1 19 1z" />
    <glyph glyph-name="afii10025" unicode="&#x417;" horiz-adv-x="651" 
d="M131 675c20 16 50 31 89 46c38 14 85 21 141 21c47 0 90 -7 127 -20c38 -14 67 -34 86 -62c19 -27 25 -59 18 -96c-8 -43 -30 -80 -65 -111c-36 -31 -82 -53 -139 -66c60 -4 107 -23 140 -56s44 -75 34 -127c-14 -71 -53 -126 -118 -163c-66 -38 -148 -57 -244 -57
c-35 0 -70 5 -105 16s-66 25 -93 42c5 7 15 30 29 68l10 4c13 -24 36 -45 70 -62s67 -26 99 -26c69 0 124 15 166 46c41 30 66 73 76 129c9 50 0 89 -27 118s-69 43 -126 43c-14 0 -46 -1 -97 -3c3 5 6 13 9 24v22c31 -1 58 -2 82 -2c54 0 97 14 130 42c32 28 52 65 61 110
c8 42 1 77 -23 104c-24 28 -61 42 -112 42c-44 0 -82 -8 -114 -24c-32 -15 -57 -35 -74 -60l-7 -3z" />
    <glyph glyph-name="afii10026" unicode="&#x418;" horiz-adv-x="829" 
d="M183 726c7 -2 23 -3 47 -3c3 0 19 1 47 3l-107 -556h10l593 556h47l-142 -729c-16 2 -31 3 -46 3c-8 0 -24 -1 -48 -3l114 582h-10l-546 -517c-36 -34 -59 -55 -68 -65h-32z" />
    <glyph glyph-name="afii10027" unicode="&#x419;" horiz-adv-x="829" 
d="M183 726c11 -2 27 -3 46 -3c23 0 39 1 48 3l-107 -556h10l593 556h47l-142 -729c-16 2 -31 3 -46 3c-8 0 -24 -1 -48 -3l114 582h-9c-25 -23 -61 -56 -110 -101c-47 -44 -108 -104 -185 -179c-77 -73 -149 -140 -216 -203c-66 -63 -101 -96 -104 -99h-32zM743 814
c-76 -40 -153 -60 -232 -60c-78 0 -147 20 -208 59l36 44c47 -35 108 -52 182 -52s142 17 205 52z" />
    <glyph glyph-name="afii10028" unicode="&#x41a;" horiz-adv-x="651" 
d="M420 494l-109 -92c17 -24 35 -50 53 -78c20 -28 35 -48 42 -58c7 -11 23 -34 48 -69s46 -64 60 -88l65 -107l-1 -6c-10 1 -19 2 -27 3s-18 1 -30 1h-21s-11 -1 -18 -2c-8 -1 -16 -1 -23 -2c-15 33 -33 66 -54 98l-178 271c-3 3 -7 5 -11 6s-7 0 -8 -2l-73 -372h-17
c-6 1 -11 2 -14 3h-13h-27c-7 -1 -14 -2 -22 -3l141 729h21c9 -1 18 -2 25 -4c8 1 17 2 27 3c9 1 16 1 21 1l-64 -330c0 -3 3 -4 8 -2c5 1 12 4 19 9c17 11 40 28 68 52l315 271h19c8 -1 16 -2 23 -4c7 1 14 2 22 3s15 1 20 1z" />
    <glyph glyph-name="afii10029" unicode="&#x41b;" horiz-adv-x="691" 
d="M30 -3h-13c-5 1 -9 2 -13 3h-13c-5 0 -9 0 -11 -1h-13c-5 0 -10 -1 -15 -2c19 26 62 90 128 192c66 103 133 209 201 318c67 108 110 181 129 219c17 -2 34 -2 51 0c10 -47 26 -121 48 -222c22 -102 46 -207 71 -315c25 -107 41 -171 49 -192h-18c-7 1 -12 2 -16 3h-17
s-13 0 -16 -1h-16s-14 -1 -21 -3c0 3 -7 39 -21 108c-14 68 -30 140 -45 215c-16 76 -27 137 -36 184s-16 83 -21 107l-10 -1c-153 -241 -274 -445 -362 -612z" />
    <glyph glyph-name="afii10030" unicode="&#x41c;" horiz-adv-x="948" 
d="M899 726c-12 -137 -23 -266 -32 -385c-9 -120 -17 -235 -24 -345c-6 1 -12 2 -19 3c-6 0 -11 0 -15 1h-15h-27c-7 -1 -15 -2 -24 -3c29 263 47 446 53 550c-184 -244 -312 -423 -383 -538h-12l-35 120c-18 61 -39 128 -64 203c-24 74 -48 146 -71 216
c-5 -19 -22 -75 -51 -168c-29 -92 -52 -167 -69 -224s-30 -110 -39 -160c-6 1 -12 2 -17 3s-12 1 -20 1c-6 0 -10 0 -12 -1h-12s-10 -1 -15 -2c35 98 80 228 134 390c54 161 91 274 110 339h27c17 -56 36 -116 57 -179c21 -64 44 -130 68 -197s47 -128 70 -183
c45 61 94 127 146 198s100 136 144 195c44 60 85 115 124 166h23z" />
    <glyph glyph-name="afii10031" unicode="&#x41d;" horiz-adv-x="829" 
d="M726 726h21c9 -1 18 -2 25 -4c8 1 17 2 27 3c9 1 16 1 21 1l-142 -729h-17c-6 1 -11 2 -14 3h-14h-27c-7 -1 -14 -2 -22 -3l72 367c-125 3 -199 5 -223 5c-21 0 -96 -2 -226 -5l-72 -367h-17c-6 1 -11 2 -14 3h-13h-27c-7 -1 -14 -2 -22 -3l141 729h21c9 -1 18 -2 25 -4
c8 1 17 2 27 3c9 1 16 1 21 1l-57 -306c125 -3 199 -5 222 -5s98 2 225 5z" />
    <glyph glyph-name="afii10032" unicode="&#x41e;" horiz-adv-x="888" 
d="M75 361c15 77 45 144 91 201c46 58 102 102 167 133c66 31 136 47 211 47c51 0 99 -7 144 -23c45 -14 84 -35 117 -64c32 -29 55 -68 69 -116s15 -102 3 -162c-11 -56 -31 -109 -62 -160c-30 -50 -66 -92 -108 -125c-42 -34 -90 -60 -144 -79s-110 -29 -168 -29
c-79 0 -145 16 -199 47c-53 31 -90 75 -113 132c-21 57 -23 123 -8 198zM749 603c-19 32 -47 58 -83 77c-36 18 -76 27 -119 27c-61 0 -117 -15 -168 -44c-52 -29 -95 -71 -130 -126s-59 -118 -71 -188c-20 -104 -9 -185 34 -243c44 -58 108 -87 191 -87c69 0 130 20 184 59
c54 40 97 87 129 142c31 55 47 105 53 149c8 49 14 92 12 129c-3 38 -13 73 -32 105z" />
    <glyph glyph-name="afii10033" unicode="&#x41f;" horiz-adv-x="829" 
d="M820 726l-142 -729h-17c-6 1 -11 2 -14 3h-14h-27c-7 -1 -14 -2 -22 -3l132 676c-75 2 -149 3 -223 3s-149 -1 -225 -3l-133 -676h-17c-6 1 -11 2 -14 3h-13h-27c-7 -1 -14 -2 -22 -3l141 729h637z" />
    <glyph glyph-name="afii10034" unicode="&#x420;" horiz-adv-x="612" 
d="M135 -3h-17c-6 1 -11 2 -14 3h-13h-27c-7 -1 -14 -2 -22 -3l141 729h191c70 0 124 -6 161 -17s62 -29 74 -55c13 -25 15 -59 7 -102c-9 -43 -24 -79 -45 -108c-22 -28 -53 -50 -91 -68c-37 -17 -82 -32 -134 -42c-19 -3 -35 -5 -47 -6c-12 0 -31 1 -56 2s-39 2 -43 2z
M209 373c29 -3 64 -4 106 0c55 5 100 24 136 56c35 31 57 70 67 116c7 39 3 71 -13 98c-15 25 -43 37 -82 40c-51 5 -102 6 -153 1z" />
    <glyph glyph-name="afii10035" unicode="&#x421;" horiz-adv-x="711" 
d="M619 45c-68 -41 -151 -61 -248 -63c-78 0 -142 17 -191 50c-50 31 -85 74 -104 131c-18 57 -20 125 -5 203s45 145 89 202c46 57 104 99 172 129c67 29 138 45 213 45c78 0 151 -16 220 -49c-13 -23 -26 -50 -39 -82l-7 -1c-8 16 -29 35 -64 58c-34 22 -75 33 -121 33
c-47 0 -91 -9 -133 -27c-41 -18 -77 -43 -107 -74c-31 -32 -57 -69 -77 -110s-35 -84 -42 -129c-19 -102 -9 -183 31 -244c41 -61 104 -91 189 -91c82 0 163 29 242 86z" />
    <glyph glyph-name="afii10036" unicode="&#x422;" 
d="M294 -3c-16 2 -31 3 -46 3c-16 0 -32 -1 -48 -3l133 678c-68 0 -147 -4 -236 -13c1 4 2 8 4 11c1 3 2 7 3 11s2 7 3 10c1 4 1 9 1 14c0 6 0 12 1 18h550c-1 -4 -2 -9 -4 -14s-4 -11 -5 -18c-1 -5 -1 -11 -1 -17s-1 -11 -2 -15c-75 9 -149 13 -221 13z" />
    <glyph glyph-name="afii10037" unicode="&#x423;" horiz-adv-x="691" 
d="M700 726c12 -2 24 -3 36 -4c6 1 13 2 21 3c7 1 13 1 17 1c-7 -9 -39 -53 -96 -132c-57 -80 -108 -152 -153 -216c-44 -63 -94 -134 -150 -213c-55 -79 -93 -135 -114 -168c-12 2 -23 3 -32 3c-15 0 -31 -1 -49 -3c25 29 56 68 93 116c36 48 62 82 77 103
c-37 75 -85 173 -145 293c-59 120 -96 192 -111 217c32 -2 54 -3 67 -3c9 0 19 1 30 2s20 1 26 2c29 -65 50 -113 63 -144c14 -31 34 -72 59 -123c26 -51 51 -98 75 -140h11c10 15 33 49 69 101s75 108 116 167c41 60 71 106 90 138z" />
    <glyph glyph-name="afii10038" unicode="&#x424;" horiz-adv-x="948" 
d="M396 60c-79 0 -145 14 -197 41s-89 64 -110 111c-21 46 -26 98 -14 154c11 59 35 112 74 159c39 46 90 81 153 107c62 25 133 39 212 39l11 55c9 -2 25 -3 46 -3s37 1 48 3l-12 -55c79 0 145 -13 198 -38c53 -26 90 -62 111 -108s26 -99 15 -158
c-11 -58 -36 -110 -75 -156s-90 -83 -153 -110s-134 -41 -213 -41l-14 -63c-9 2 -24 3 -45 3s-37 -1 -48 -3zM403 99l105 536c-57 0 -109 -11 -156 -35c-46 -23 -84 -56 -114 -97s-51 -86 -61 -135c-11 -51 -7 -97 9 -138c15 -41 41 -73 79 -96c37 -23 83 -35 138 -35z
M602 635l-105 -537c84 0 156 26 218 77c60 51 98 115 113 191c10 48 6 93 -8 134s-40 74 -77 99c-37 24 -84 36 -141 36z" />
    <glyph glyph-name="afii10039" unicode="&#x425;" horiz-adv-x="651" 
d="M303 364c-14 34 -27 65 -40 93c-11 28 -23 65 -43 108l-76 161h27c11 -1 22 -2 32 -4c9 1 19 2 30 3s20 1 27 1c9 -20 21 -51 37 -92l75 -193c25 31 54 65 87 102c32 37 58 68 79 93c20 25 43 55 69 90h17c8 -1 15 -2 22 -4c7 1 14 2 22 3c7 1 13 1 18 1
c-5 -4 -10 -8 -13 -11l-10 -10l-207 -227l-67 -79l169 -403c-10 1 -19 2 -27 3s-18 1 -30 1c-9 0 -16 0 -21 -1h-17c-8 0 -16 -1 -23 -2c-33 106 -73 214 -120 324c-40 -47 -72 -84 -94 -110c-23 -28 -47 -61 -75 -98c-28 -36 -57 -75 -88 -117c-6 1 -12 2 -17 3
c-6 1 -13 1 -20 1h-15c-3 0 -7 -1 -12 -2s-10 -1 -15 -1c25 28 50 56 74 84c25 28 56 63 92 105z" />
    <glyph glyph-name="afii10040" unicode="&#x426;" horiz-adv-x="829" 
d="M46 0l142 729h22c9 -1 17 -2 24 -4c8 1 17 2 27 3c9 1 16 1 21 1l-131 -676c75 -2 149 -3 222 -3c74 0 149 1 225 3l133 676h22c8 -1 16 -2 23 -4c8 1 17 2 27 3c9 1 16 1 21 1l-131 -677c13 0 25 0 36 -1h23c-1 -4 -2 -8 -4 -13c-1 -4 -3 -14 -6 -29
c-2 -10 -4 -20 -5 -30s-2 -18 -3 -24l-9 -1c-9 20 -28 33 -56 38s-78 8 -149 8h-474z" />
    <glyph glyph-name="afii10041" unicode="&#x427;" horiz-adv-x="770" 
d="M674 726h21c9 -1 18 -2 25 -4c8 1 17 2 27 3c9 1 16 1 21 1l-142 -729h-17c-6 1 -11 2 -14 3h-15h-25c-7 -1 -14 -2 -22 -3l71 367c-95 -45 -188 -68 -278 -68c-36 0 -71 6 -106 19c-34 13 -61 32 -80 58c-19 25 -26 55 -19 90l51 263h21c9 -1 18 -2 25 -4c8 1 17 2 27 3
c9 1 16 1 21 1l-51 -264c-8 -39 6 -67 40 -84s75 -26 124 -26c34 0 74 7 121 20c47 14 86 30 116 48z" />
    <glyph glyph-name="afii10042" unicode="&#x428;" horiz-adv-x="948" 
d="M384 52l132 677c15 -2 30 -3 45 -3c21 0 37 1 48 3l-131 -677c77 -1 156 -1 236 0l132 677c15 -2 30 -3 45 -3c16 0 32 1 48 3l-143 -732c-50 2 -175 3 -376 3c-187 0 -313 -1 -378 -3l142 732c14 -2 29 -3 46 -3c16 0 32 1 48 3l-131 -677c77 -1 156 -1 237 0z" />
    <glyph glyph-name="afii10043" unicode="&#x429;" horiz-adv-x="948" 
d="M805 51h59c-1 -4 -2 -8 -4 -13c-1 -4 -3 -14 -6 -29c-2 -10 -4 -20 -5 -30s-2 -18 -3 -24l-9 -1c-9 20 -28 33 -57 38c-28 5 -77 8 -147 8h-91c-31 0 -71 1 -121 1c-231 -1 -357 -3 -379 -4l142 732c14 -2 29 -3 46 -3s33 1 48 3l-131 -677c77 -1 156 -1 236 0l132 677
c15 -2 30 -3 45 -3c17 0 33 1 48 3l-130 -677c103 -2 181 -2 234 0l131 677c12 -2 27 -3 46 -3c16 0 32 1 48 3z" />
    <glyph glyph-name="afii10044" unicode="&#x42a;" horiz-adv-x="612" 
d="M288 726l-64 -329h97c70 0 124 -6 161 -17s62 -29 74 -54s14 -60 6 -104c-11 -62 -39 -110 -83 -144s-106 -59 -187 -73c-21 -4 -57 -5 -108 -5c-52 1 -96 0 -131 0l131 674c-40 0 -79 -4 -115 -12c5 15 8 26 9 31c1 15 2 26 3 33c107 -1 176 -1 207 0zM156 44h105
c54 0 99 24 134 54c36 32 58 71 67 118c8 38 5 69 -11 93c-15 25 -42 41 -81 45c-15 1 -39 2 -70 2c-32 0 -60 0 -84 -1z" />
    <glyph glyph-name="afii10045" unicode="&#x42b;" horiz-adv-x="849" 
d="M213 397h97c70 0 124 -6 161 -17s62 -29 75 -55c13 -25 15 -59 6 -103c-12 -63 -40 -112 -84 -147c-43 -34 -105 -58 -187 -72c-15 -2 -50 -3 -103 -3c-54 -1 -99 0 -135 0l140 726h21c9 -1 18 -2 25 -4c8 1 17 2 27 3c9 1 16 1 21 1zM746 726c15 -2 31 -3 46 -3
c21 0 37 1 48 3l-142 -729h-17c-6 1 -11 2 -14 3h-14h-27c-7 -1 -14 -2 -22 -3zM145 44h105c35 0 67 12 96 27c29 16 52 36 70 60s29 52 35 85c7 38 5 69 -11 93c-15 25 -42 41 -82 45c-15 1 -38 2 -69 2s-59 0 -83 -1z" />
    <glyph glyph-name="afii10046" unicode="&#x42c;" horiz-adv-x="612" 
d="M213 397h97c70 0 124 -6 161 -17s62 -29 75 -55c13 -25 15 -59 6 -103c-12 -63 -40 -111 -84 -145c-43 -33 -105 -58 -187 -73c-21 -4 -57 -5 -109 -4h-129l140 726c15 -2 31 -3 47 -3c8 0 16 1 26 2c9 1 16 1 21 1zM145 44h105c35 0 67 12 96 27c29 16 52 36 70 60
s29 52 35 85c7 38 5 69 -11 93c-15 25 -42 41 -82 45c-15 1 -38 2 -69 2s-59 0 -83 -1z" />
    <glyph glyph-name="afii10047" unicode="&#x42d;" horiz-adv-x="711" 
d="M590 408c6 55 1 105 -14 149s-41 79 -78 105c-38 26 -85 39 -142 39c-32 0 -64 -6 -95 -17s-57 -23 -76 -36c-20 -13 -37 -26 -51 -38l-7 1c0 34 -2 61 -7 82c82 33 162 49 239 49c75 0 141 -15 196 -44c56 -30 96 -73 120 -129s29 -124 14 -203
c-15 -78 -43 -146 -84 -203c-42 -57 -94 -101 -157 -132c-62 -31 -132 -47 -209 -47c-96 0 -171 20 -224 61l7 67c61 -57 131 -87 210 -87c85 -1 160 31 225 93c65 61 107 142 126 243h-297c-16 0 -33 -1 -51 -2c-19 -2 -34 -3 -45 -3c1 6 3 12 5 17c2 6 3 10 2 13
c1 3 2 7 3 12v16c7 0 17 -1 29 -1l36 -3s22 -2 29 -2h296z" />
    <glyph glyph-name="afii10048" unicode="&#x42e;" horiz-adv-x="1126" 
d="M304 364c-28 3 -60 3 -97 0l-72 -367c-26 2 -41 3 -44 3h-27c-7 -1 -14 -2 -22 -3l141 729c13 -2 29 -3 47 -3c15 0 31 1 47 3l-58 -306c32 -3 65 -3 99 0c22 65 56 122 101 171s99 86 162 112c62 26 126 39 192 39c51 0 99 -7 144 -23c45 -14 84 -35 117 -64
c32 -29 55 -68 69 -116s15 -102 3 -162c-11 -56 -31 -109 -62 -160c-30 -50 -66 -92 -108 -125c-42 -34 -90 -60 -144 -79s-110 -29 -168 -29c-79 0 -145 16 -199 47c-53 31 -90 75 -112 132c-21 57 -24 123 -9 198v3zM978 603c-19 32 -47 58 -83 77c-36 18 -76 27 -119 27
c-61 0 -117 -15 -168 -44c-52 -29 -95 -71 -130 -126s-59 -118 -71 -188c-20 -104 -9 -185 34 -243c44 -58 108 -87 191 -87c69 0 130 20 184 59c54 40 97 87 129 142c31 55 47 105 53 149c8 49 14 92 12 129c-3 38 -13 73 -32 105z" />
    <glyph glyph-name="afii10049" unicode="&#x42f;" horiz-adv-x="651" 
d="M501 -3c-28 2 -43 3 -46 3c-7 0 -12 0 -15 -1h-15c-6 0 -12 -1 -18 -2l70 356h-41l-104 -100l-158 -163c-38 -39 -66 -71 -86 -93h-20c-8 1 -14 2 -18 3h-20c-9 0 -16 0 -21 -1h-19s-16 -1 -24 -2l25 26l63 60l273 278c-59 11 -106 34 -142 67c-35 34 -48 79 -37 135
c10 55 39 96 82 123s105 40 187 40h226zM542 687c-77 3 -129 2 -157 -2c-81 -13 -129 -57 -144 -134c-8 -40 -3 -73 18 -100c20 -26 51 -43 90 -51c36 -7 81 -10 136 -7z" />
    <glyph glyph-name="afii10065" unicode="&#x430;" horiz-adv-x="533" 
d="M413 86c-3 -15 -5 -27 -5 -35s4 -14 13 -17s23 -2 42 3l-5 -23c-21 -7 -32 -11 -32 -11c-21 -3 -39 -4 -54 -2s-27 8 -36 19c-8 10 -11 25 -9 45l-12 -10c-54 -45 -111 -67 -171 -67c-39 0 -70 12 -94 37s-31 56 -23 93c8 38 22 67 44 87c22 21 48 36 78 45s65 16 106 22
c48 7 80 15 96 21c16 8 25 25 30 50c7 39 4 70 -13 92s-46 33 -87 33c-35 0 -65 -8 -90 -24s-42 -33 -51 -50h-12l12 60c65 39 126 59 182 59c115 0 162 -60 139 -179zM362 262l-40 -9c-12 -3 -31 -5 -56 -9c-25 -5 -48 -12 -69 -20c-20 -8 -37 -20 -51 -35s-24 -34 -28 -56
c-13 -66 16 -99 84 -99c15 0 31 3 49 11c17 7 32 18 46 30c23 19 34 30 34 32z" />
    <glyph glyph-name="afii10066" unicode="&#x431;" 
d="M365 513c48 0 89 -11 123 -32c33 -21 56 -51 69 -90s16 -85 6 -138c-9 -49 -30 -93 -58 -131c-28 -40 -65 -73 -110 -98c-45 -24 -95 -36 -152 -36c-47 0 -88 11 -124 33c-36 23 -60 55 -73 96c-14 41 -12 87 0 139c23 105 44 187 69 245s59 104 102 137
c42 33 95 56 160 69c64 13 146 19 246 19c0 -1 -3 -12 -10 -33c-1 -8 -2 -18 -2 -31c-51 7 -105 11 -161 11c-51 0 -97 -10 -137 -28c-40 -19 -73 -45 -98 -78s-42 -71 -51 -114c55 40 122 60 201 60zM135 240c-12 -60 -9 -111 9 -154c19 -43 57 -65 114 -65
c55 0 101 26 139 78c37 51 60 104 71 159c12 58 10 109 -6 154s-51 68 -106 68c-61 0 -110 -23 -147 -70c-36 -46 -61 -103 -74 -170z" />
    <glyph glyph-name="afii10067" unicode="&#x432;" horiz-adv-x="533" 
d="M29 0l98 503h205c117 0 168 -41 152 -124c-6 -30 -21 -54 -44 -72c-24 -19 -54 -31 -89 -35c44 -7 77 -20 98 -39c22 -19 28 -50 19 -92c-9 -44 -33 -79 -73 -104c-41 -25 -87 -38 -138 -38zM123 42h111c35 0 65 9 91 26c25 17 40 41 46 72c8 39 4 66 -13 83
c-17 16 -45 24 -85 24h-111zM170 287h100c67 0 108 30 120 90c11 57 -17 85 -82 85h-104z" />
    <glyph glyph-name="afii10068" unicode="&#x433;" horiz-adv-x="434" 
d="M113 -3c-26 2 -40 3 -42 3h-15c-3 0 -7 -1 -13 -2c-5 -1 -10 -1 -15 -1l99 506h339c-1 -3 -2 -7 -3 -12c-2 -5 -4 -11 -6 -16v-14c-1 -5 -2 -10 -2 -15c-25 5 -55 8 -90 9s-89 2 -162 2z" />
    <glyph glyph-name="afii10069" unicode="&#x434;" horiz-adv-x="533" 
d="M3 48c125 189 219 341 282 457h15c6 -1 12 -2 17 -4l18 3s11 1 15 0c9 -53 22 -118 38 -195s36 -164 59 -261h39c-5 -19 -8 -32 -9 -39c-4 -16 -7 -29 -7 -40h-7c-13 13 -32 22 -57 25c-25 4 -63 6 -113 6h-160c-49 0 -87 -2 -112 -5c-26 -3 -49 -12 -69 -26h-9
c4 7 9 20 12 40c4 24 4 37 4 39h44zM359 48c-12 89 -36 208 -73 358h-7c-21 -33 -54 -87 -99 -161s-83 -140 -114 -197h293z" />
    <glyph glyph-name="afii10070" unicode="&#x435;" horiz-adv-x="533" 
d="M438 51c-67 -42 -132 -63 -195 -64c-49 0 -91 11 -126 32c-34 21 -58 52 -73 92c-13 40 -13 87 -2 140c16 78 50 141 102 190c51 48 115 72 192 73c64 0 113 -23 147 -68s41 -110 20 -194c-73 2 -145 3 -217 3l-150 1c-17 -63 -13 -116 12 -159s68 -64 130 -64
c54 0 111 25 171 74zM428 294c22 124 -11 186 -98 186c-46 0 -85 -18 -118 -55c-32 -36 -55 -80 -68 -131h284z" />
    <glyph glyph-name="afii10072" unicode="&#x436;" horiz-adv-x="770" 
d="M430 503c13 0 27 1 42 3l-36 -186c-4 -21 -4 -33 -1 -35c3 -3 30 19 83 63l80 67l101 91c13 -2 27 -3 42 -3c13 0 27 1 42 3l-2 -7c-7 -5 -42 -31 -104 -76c-63 -46 -120 -89 -171 -130c13 -19 34 -51 65 -95c29 -44 53 -82 74 -115c22 -33 40 -60 55 -81l-1 -6
c-9 1 -18 2 -28 3s-18 1 -22 1h-26l-30 -3c-17 32 -69 112 -156 240c-8 12 -12 17 -13 16s-3 -14 -8 -39l-43 -218c-7 1 -13 2 -19 3s-13 1 -22 1h-13s-8 -1 -14 -2s-12 -1 -17 -1l41 218c3 13 7 22 8 27c1 6 2 10 2 11c0 2 -2 1 -6 -1l-15 -15c-30 -28 -62 -58 -95 -89
c-34 -32 -58 -55 -72 -69c-15 -14 -43 -41 -84 -83c-8 1 -17 2 -28 3c-10 1 -18 1 -24 1h-24c-10 -1 -20 -2 -29 -3v5c23 21 55 51 96 89c40 38 77 73 110 105l102 96c-31 36 -64 73 -100 111c-36 37 -67 69 -94 96l1 7h20c8 -1 15 -2 21 -3c15 0 29 1 43 3l66 -91l52 -67
c4 -5 11 -14 20 -25c10 -12 19 -22 26 -29c8 -7 13 -10 14 -9c5 3 8 15 12 35l36 186c14 -2 28 -3 43 -3z" />
    <glyph glyph-name="afii10073" unicode="&#x437;" horiz-adv-x="473" 
d="M286 271c38 -5 69 -18 92 -39c23 -22 30 -53 22 -94c-9 -48 -38 -85 -86 -111s-100 -39 -157 -39c-73 0 -127 11 -161 34c17 31 29 57 37 78h9c19 -53 59 -79 121 -79c34 0 64 11 91 32s42 48 48 81c6 36 1 63 -16 82c-18 20 -44 30 -81 30c-13 0 -38 -1 -74 -2l9 46
c19 -1 43 -2 72 -2c27 0 51 9 71 27s33 41 39 68s2 50 -13 69c-14 19 -36 28 -65 28c-55 0 -96 -24 -122 -71l-10 1c-3 31 -7 56 -12 75c36 19 89 28 159 28c51 0 92 -11 124 -33c31 -22 42 -54 33 -97c-6 -30 -21 -55 -44 -74c-23 -20 -52 -33 -86 -38z" />
    <glyph glyph-name="afii10074" unicode="&#x438;" 
d="M513 506h42l-99 -510c-7 1 -13 2 -18 3c-6 1 -14 1 -23 1h-16c-3 0 -7 -1 -13 -2c-5 -1 -10 -1 -15 -1l72 371c-80 -75 -149 -141 -208 -198c-59 -58 -114 -116 -165 -173h-42l99 509c9 -2 23 -3 43 -3c18 0 32 1 43 3c-5 -24 -12 -59 -21 -105s-19 -98 -30 -155
s-18 -94 -21 -111c57 51 121 112 191 182s130 133 181 189z" />
    <glyph glyph-name="afii10075" unicode="&#x439;" 
d="M513 506h42l-99 -510c-7 1 -13 2 -19 3s-13 1 -22 1c-14 0 -29 -1 -44 -3l72 371c-80 -75 -149 -141 -208 -198c-59 -58 -114 -116 -165 -173h-42l99 509c14 -2 28 -3 43 -3c13 0 27 1 42 3c-2 -11 -6 -30 -11 -55c-5 -26 -11 -58 -18 -97s-14 -79 -22 -120
c-7 -40 -15 -73 -20 -99c57 51 121 112 191 182s130 133 181 189zM539 604c-63 -33 -126 -50 -188 -50c-61 0 -118 16 -171 49l28 37c39 -29 89 -43 150 -43c59 0 115 14 168 43z" />
    <glyph glyph-name="afii10076" unicode="&#x43a;" horiz-adv-x="533" 
d="M178 320c-1 -5 -2 -11 -4 -19s-1 -14 2 -15c13 -8 47 14 105 62l80 67l101 91h19c8 -1 16 -2 23 -4c7 1 14 2 22 3s15 1 20 1l-1 -7c-22 -16 -48 -35 -78 -57s-59 -43 -87 -64s-65 -49 -109 -85c23 -34 43 -64 60 -91c17 -26 32 -49 45 -68c13 -20 28 -42 44 -67
c16 -24 31 -46 44 -65v-6l-21 3c-7 0 -12 0 -16 1h-15h-31c-7 -1 -15 -2 -24 -3c-24 43 -76 123 -157 241c-20 29 -33 21 -42 -24l-43 -218c-7 1 -13 2 -19 3s-13 1 -22 1h-16c-3 0 -7 -1 -13 -2c-5 -1 -10 -1 -15 -1l98 509h21c8 -1 16 -2 23 -4c7 1 14 2 22 3s15 1 20 1z
" />
    <glyph glyph-name="afii10077" unicode="&#x43b;" horiz-adv-x="513" 
d="M26 -4c-5 0 -10 1 -15 2s-11 1 -17 1h-11c-3 0 -7 -1 -12 -2s-10 -1 -14 -2c16 23 40 60 73 111s63 98 91 141c28 44 55 87 81 130s50 86 72 128h16c6 -1 11 -2 16 -4l18 3s11 1 15 2c33 -189 70 -359 110 -510h-16c-6 1 -11 2 -14 3h-17s-12 0 -15 -1h-15
c-6 0 -12 -1 -18 -3c-12 111 -38 248 -78 411c-11 -8 -32 -37 -63 -87l-57 -93z" />
    <glyph glyph-name="afii10078" unicode="&#x43c;" horiz-adv-x="711" 
d="M154 505c10 -1 19 -1 28 0c52 -167 101 -299 146 -397c33 43 78 103 135 181c57 77 108 149 154 216c10 -1 20 -1 29 1c-7 -94 -12 -163 -15 -206s-7 -93 -11 -150s-8 -108 -12 -153c-28 2 -43 3 -46 3c-7 0 -12 0 -15 -1h-15c-6 0 -12 -1 -18 -2c21 140 34 256 39 347
c-84 -103 -171 -219 -260 -347c-7 1 -15 1 -24 0c-19 64 -40 126 -62 186s-43 114 -64 161c-55 -164 -90 -280 -105 -348c-3 1 -6 2 -10 3c-3 1 -8 1 -15 1c-5 0 -8 0 -9 -1h-9s-8 -1 -13 -2c29 67 86 236 172 508z" />
    <glyph glyph-name="afii10079" unicode="&#x43d;" 
d="M429 292l41 214c26 -2 40 -3 43 -3c14 0 28 1 42 3l-99 -510c-7 1 -13 2 -19 3s-13 1 -22 1c-14 0 -29 -1 -44 -3l49 246c-13 1 -33 2 -59 3s-49 1 -70 1h-70c-26 -1 -46 -2 -59 -3l-49 -248c-7 1 -13 2 -19 3s-14 1 -23 1h-15c-3 0 -7 -1 -13 -2c-5 -1 -10 -1 -15 -1
l100 509c13 -2 27 -3 42 -3c14 0 28 1 42 3l-41 -214c13 -1 33 -2 58 -3c26 -1 49 -2 69 -2c21 0 45 1 72 2c26 1 46 2 59 3z" />
    <glyph glyph-name="afii10080" unicode="&#x43e;" 
d="M365 513c48 0 89 -11 123 -32c33 -21 56 -51 69 -90s16 -85 6 -138c-9 -49 -30 -93 -58 -131c-28 -40 -65 -73 -110 -98c-45 -24 -95 -36 -152 -36c-47 0 -88 11 -124 33c-36 23 -60 55 -73 96c-14 41 -13 87 -2 139c16 75 53 137 114 185s130 72 207 72zM135 240
c-12 -60 -9 -111 9 -154c19 -43 57 -65 114 -65c55 0 101 26 139 78c37 51 60 104 71 159c12 58 10 109 -6 154s-51 68 -106 68c-61 0 -110 -23 -147 -70c-36 -46 -61 -103 -74 -170z" />
    <glyph glyph-name="afii10081" unicode="&#x43f;" 
d="M555 505l-99 -509c-7 1 -13 2 -18 3c-6 1 -14 1 -23 1h-16c-3 0 -7 -1 -13 -2c-5 -1 -10 -1 -15 -1l90 459h-258l-90 -459c-14 2 -28 3 -42 3h-23c-6 -1 -13 -2 -20 -3l99 508c22 0 52 -1 89 -1c38 -1 80 -1 126 -1s87 1 124 2h89z" />
    <glyph glyph-name="afii10082" unicode="&#x440;" 
d="M49 -276h-15c-6 1 -11 2 -15 3h-13h-22c-6 -1 -13 -2 -20 -3l150 782h21c8 -1 16 -2 23 -4c7 1 14 2 22 3s15 1 20 1l-19 -101h2c12 18 26 35 41 50c15 16 36 30 62 42c27 12 60 18 100 18c65 0 112 -24 141 -72c29 -49 37 -107 24 -174c-8 -42 -21 -81 -39 -116
s-39 -65 -64 -89s-53 -43 -85 -56c-31 -13 -63 -20 -96 -20c-74 0 -122 34 -144 103h-3zM265 33c50 0 93 22 124 65c33 44 54 99 67 166c11 59 10 108 -5 147s-49 59 -102 59c-55 0 -99 -23 -133 -70s-57 -101 -69 -162c-11 -61 -6 -110 13 -148s54 -57 105 -57z" />
    <glyph glyph-name="afii10083" unicode="&#x441;" horiz-adv-x="513" 
d="M491 399h-9c-11 19 -18 31 -23 35c-19 29 -51 43 -96 43c-58 0 -107 -21 -148 -64c-40 -42 -66 -94 -78 -155c-9 -43 -9 -83 2 -119c9 -36 25 -64 50 -84c26 -20 58 -30 95 -30c49 0 103 23 162 69l6 -3l-14 -49c-56 -36 -114 -54 -174 -55c-57 0 -104 12 -142 35
c-37 23 -62 55 -76 96c-13 40 -14 85 -5 135c16 81 54 145 114 191c61 47 132 69 213 69c64 0 118 -15 161 -44z" />
    <glyph glyph-name="afii10084" unicode="&#x442;" horiz-adv-x="473" 
d="M225 -3c-26 2 -40 3 -41 3c-7 0 -12 0 -16 -1h-13c-5 0 -10 -1 -15 -2l89 458c-79 0 -141 -3 -186 -9l9 27c0 1 1 11 3 30l453 1c-5 -15 -8 -25 -9 -29v-14l-3 -15c-40 6 -101 9 -182 9z" />
    <glyph glyph-name="afii10085" unicode="&#x443;" horiz-adv-x="533" 
d="M72 506h24c10 -1 19 -2 28 -4c8 1 17 2 26 3s17 1 23 1c3 -23 9 -60 19 -110c9 -50 17 -97 27 -141c9 -43 22 -91 36 -145c28 41 66 101 113 180s89 151 125 216c11 -2 23 -3 35 -3c11 0 22 1 34 3c-48 -74 -89 -137 -123 -190s-76 -118 -128 -196
c-50 -78 -94 -147 -131 -207c-38 -61 -75 -124 -113 -190c-5 1 -10 2 -14 3c-5 0 -9 0 -12 1h-10h-21c-5 -1 -10 -2 -16 -3c44 63 77 110 97 141c21 30 40 55 55 75c14 20 29 40 44 61z" />
    <glyph glyph-name="afii10086" unicode="&#x444;" horiz-adv-x="829" 
d="M273 -276l62 321c-34 -38 -76 -57 -126 -57c-45 0 -81 11 -110 34c-28 22 -47 54 -56 96s-8 92 2 151c8 41 24 81 49 120c23 38 52 68 87 91c35 22 73 33 114 33c62 0 102 -18 121 -55l51 265c15 -2 29 -3 41 -3c15 0 30 1 45 3l-51 -265c31 37 78 55 140 55
c61 0 105 -24 133 -72s35 -105 22 -172c-11 -58 -28 -108 -55 -151c-25 -42 -57 -74 -94 -97c-37 -22 -78 -33 -123 -33c-50 0 -85 19 -104 57l-62 -321c-16 2 -30 3 -43 3s-27 -1 -43 -3zM313 468c-44 0 -83 -20 -112 -60c-31 -41 -51 -90 -62 -147
c-29 -152 0 -228 89 -228c21 0 42 5 63 16c22 11 40 25 54 44c27 113 47 217 61 312c-6 19 -17 33 -34 45c-16 11 -36 18 -59 18zM492 405c-27 -114 -47 -218 -61 -313c15 -39 46 -59 94 -59c47 0 85 21 115 63c29 42 50 97 63 165c11 57 9 106 -6 147c-14 40 -44 60 -89 60
s-84 -21 -116 -63z" />
    <glyph glyph-name="afii10087" unicode="&#x445;" horiz-adv-x="533" 
d="M76 506h24c11 -1 21 -2 29 -4c9 1 19 2 29 3s19 1 27 1c27 -70 60 -136 99 -198l74 77l112 121h17c7 -1 14 -2 19 -4l21 3s13 1 18 1c-82 -72 -163 -148 -242 -229l146 -270l-2 -11c-6 1 -12 2 -19 3c-6 0 -11 0 -15 1h-15h-17s-9 -1 -16 -2s-13 -1 -19 -1
c-28 71 -64 144 -107 219c-91 -97 -156 -170 -196 -220c-5 1 -10 2 -14 3s-10 1 -17 1h-12c-2 0 -5 -1 -10 -2c-4 -1 -8 -1 -11 -1l2 11c43 43 123 123 239 240z" />
    <glyph glyph-name="afii10088" unicode="&#x446;" 
d="M29 0l98 506c24 -2 38 -3 43 -3c13 0 27 1 42 3l-88 -458c13 0 30 0 52 -1c22 0 46 -1 73 -1c29 0 55 1 79 2h54l88 458c12 -2 26 -3 43 -3c4 0 18 1 42 3l-88 -458h54c-5 -19 -8 -32 -8 -39c-5 -20 -7 -33 -8 -40h-7c-14 14 -34 23 -61 27c-26 4 -62 4 -109 4h-299z" />
    <glyph glyph-name="afii10089" unicode="&#x447;" horiz-adv-x="553" 
d="M393 292l41 214c26 -2 40 -3 43 -3c14 0 28 1 43 3l-100 -509c-24 2 -38 3 -41 3c-14 0 -29 -1 -44 -3l49 247c-59 -34 -118 -51 -177 -51c-35 0 -69 9 -100 27c-32 18 -44 48 -36 90l37 196c26 -2 40 -3 43 -4c7 1 15 2 24 3s15 1 18 1l-37 -193c-9 -48 21 -71 93 -71
c45 0 93 17 144 50z" />
    <glyph glyph-name="afii10090" unicode="&#x448;" horiz-adv-x="770" 
d="M299 48l88 458c8 -2 22 -3 43 -3c17 0 31 1 42 3l-88 -458c9 0 21 0 36 -1c15 0 32 -1 52 -1c19 0 36 1 51 2h36l88 458c8 -2 22 -3 43 -3c20 0 34 1 42 3l-98 -506h-605l98 506c9 -2 23 -3 43 -3c18 0 32 1 42 3l-88 -458c8 0 19 0 34 -1c14 0 30 -1 47 -1
c21 0 39 1 56 2h38z" />
    <glyph glyph-name="afii10091" unicode="&#x449;" horiz-adv-x="770" 
d="M29 0l98 506c24 -2 38 -3 43 -3c14 0 28 1 42 3l-89 -458c9 0 21 0 36 -1h52c19 0 36 0 52 1h36l88 458c10 -2 24 -3 43 -3c13 0 27 1 42 3l-87 -458c9 0 21 0 36 -1h51s36 0 51 1h36l88 458c12 -2 26 -3 43 -3c4 0 18 1 42 3l-88 -458h54c-5 -19 -8 -32 -8 -39
c-5 -20 -7 -33 -8 -40h-7c-13 13 -32 22 -57 25c-25 4 -63 6 -113 6h-476z" />
    <glyph glyph-name="afii10092" unicode="&#x44a;" horiz-adv-x="494" 
d="M213 503l-40 -209h126c51 0 91 -13 118 -37c28 -25 38 -62 29 -109c-7 -41 -35 -76 -80 -105s-90 -43 -135 -43h-201l88 456c-40 0 -71 -3 -92 -8c4 12 7 21 8 27c2 17 3 27 2 30c28 -1 59 -2 92 -2h85zM124 45c28 -1 46 -2 55 -2s16 0 22 -1c35 0 68 10 98 30
c30 19 48 44 54 76c7 35 1 61 -19 78c-19 17 -45 26 -78 26h-92z" />
    <glyph glyph-name="afii10093" unicode="&#x44b;" horiz-adv-x="691" 
d="M29 0l98 506c12 -2 27 -3 44 -3c15 0 29 1 41 3l-40 -212h125c51 0 90 -13 118 -37c28 -25 37 -62 28 -109c-8 -41 -34 -76 -78 -105c-45 -29 -90 -43 -135 -43h-201zM554 -3h-15c-5 1 -9 2 -12 3h-14h-16c-3 0 -7 -1 -13 -2c-5 -1 -10 -1 -15 -1l100 509
c13 -2 27 -3 42 -3s29 1 43 3zM123 45c16 -1 31 -2 44 -2h33c35 0 67 9 98 28c30 19 48 44 54 77c7 35 1 61 -19 78c-19 17 -45 26 -78 26h-92z" />
    <glyph glyph-name="afii10094" unicode="&#x44c;" horiz-adv-x="494" 
d="M29 0l98 506c11 -2 26 -3 43 -3c19 0 33 1 42 3l-40 -212h125c52 0 92 -13 119 -37c27 -25 36 -62 27 -109c-8 -41 -34 -76 -78 -105c-45 -29 -90 -43 -135 -43h-201zM123 45c27 -1 45 -2 54 -2h23c35 -1 67 8 98 27c30 19 48 45 54 78c7 35 1 61 -19 78
c-19 17 -45 26 -78 26h-92z" />
    <glyph glyph-name="afii10095" unicode="&#x44d;" horiz-adv-x="513" 
d="M386 287c6 55 -5 101 -29 136c-25 36 -63 54 -116 54c-45 0 -83 -14 -114 -43c-6 -4 -18 -16 -35 -35h-9l-11 70c53 29 112 44 175 44c55 0 101 -10 138 -31s63 -51 78 -90c15 -40 17 -86 8 -139c-15 -77 -51 -140 -108 -190c-56 -49 -127 -75 -213 -75
c-61 0 -112 18 -152 54l4 49l7 3c24 -25 45 -43 63 -55c18 -10 41 -15 70 -14c57 -1 107 20 151 61c43 41 72 95 87 161h-103h-69c-25 -1 -44 -2 -57 -3l8 48c13 -1 32 -2 57 -3s48 -2 69 -2h101z" />
    <glyph glyph-name="afii10096" unicode="&#x44e;" horiz-adv-x="790" 
d="M228 243l-66 1l-49 -248c-7 1 -15 2 -23 3s-14 1 -19 1h-19c-9 -1 -17 -2 -24 -3l98 509h21c8 -1 16 -2 23 -4c7 1 14 2 22 3s15 1 20 1l-41 -214h68c15 44 38 83 68 116c31 33 68 59 111 78c43 18 87 27 132 27c49 0 90 -11 124 -32c33 -21 56 -51 69 -90s15 -85 5 -138
c-14 -73 -49 -135 -106 -187s-127 -78 -210 -78c-47 0 -88 12 -122 33c-35 22 -60 51 -74 90s-17 83 -8 132zM322 240c-12 -60 -8 -112 12 -155c19 -43 56 -64 112 -64c37 0 71 13 101 39s54 58 73 97c19 38 31 72 37 102c12 57 9 108 -8 153c-16 45 -51 68 -105 68
c-62 0 -111 -23 -148 -70c-36 -46 -61 -103 -74 -170z" />
    <glyph glyph-name="afii10097" unicode="&#x44f;" horiz-adv-x="533" 
d="M397 -3c-4 0 -10 1 -18 2s-16 1 -23 1h-24c-9 -1 -16 -2 -21 -3l42 212h-78l-192 -213c-5 1 -12 2 -21 3s-18 1 -27 1h-27c-10 -1 -18 -2 -23 -3l204 215c-36 7 -68 22 -95 45s-37 61 -27 113c7 39 29 71 61 96c33 25 69 37 108 37h260zM402 460c-25 1 -67 1 -125 1
c-29 0 -55 -10 -79 -28c-24 -19 -40 -45 -46 -78c-8 -42 4 -70 36 -83c32 -14 74 -21 125 -21h48z" />
    <glyph glyph-name="minus" unicode="&#x2212;" horiz-adv-x="651" 
d="M420 494l-109 -92c17 -24 35 -50 53 -78c20 -28 35 -48 42 -58c7 -11 23 -34 48 -69s46 -64 60 -88l65 -107l-1 -6c-10 1 -19 2 -27 3s-18 1 -30 1h-21s-11 -1 -18 -2c-8 -1 -16 -1 -23 -2c-15 33 -33 66 -54 98l-178 271c-3 3 -7 5 -11 6s-7 0 -8 -2l-73 -372h-17
c-6 1 -11 2 -14 3h-13h-27c-7 -1 -14 -2 -22 -3l141 729h21c9 -1 18 -2 25 -4c8 1 17 2 27 3c9 1 16 1 21 1l-64 -330c0 -3 3 -4 8 -2c5 1 12 4 19 9c17 11 40 28 68 52l315 271h19c8 -1 16 -2 23 -4c7 1 14 2 22 3s15 1 20 1z" />
    <glyph glyph-name="hyphenminus" horiz-adv-x="355" 
d="M36 269h267l-13 -66h-267z" />
    <glyph glyph-name="c128" 
d="M96 731h25c11 -1 21 -2 30 -4c9 1 19 2 29 3c11 1 20 1 26 1c11 -41 30 -103 57 -184c27 -82 47 -141 60 -178c11 11 27 30 48 58c20 27 48 66 84 117s62 88 77 111c16 23 33 48 52 76h18c7 -1 14 -2 21 -4c6 1 13 2 20 3c8 1 14 1 18 1c-15 -19 -32 -39 -50 -60
c-18 -22 -32 -39 -42 -52l-126 -164h110l-10 -52l-140 -1c-20 -27 -38 -53 -55 -78l-8 -38h180l-9 -53h-181l-46 -237c-7 1 -14 2 -20 3s-14 1 -23 1h-24c-6 -1 -13 -2 -21 -3l47 236h-195l10 53h195l3 18l-39 99h-137l11 52h109z" />
    <glyph glyph-name="Euro" unicode="&#x20ac;" 
d="M617 568h-20c5 75 -48 106 -125 106c-135 0 -204 -102 -251 -253h306l-23 -37h-293c-2 -9 -6 -22 -8 -32s-5 -25 -7 -34h266l-24 -36h-247c-23 -163 27 -255 144 -255c67 0 140 28 170 108h20l-24 -81c-36 -36 -93 -65 -191 -65c-164 0 -229 102 -205 293h-72l23 36h52
c1 9 4 26 6 35c2 8 6 23 8 31h-67l23 37h55c59 180 151 292 331 292c105 0 147 -32 164 -61z" />
  </font>
</defs>
</svg>
